/* XPM */
static char *dummy[]={
"9 9 4 1",
". c None",
"b c #000000",
"a c #808080",
"# c #bfbfbf",
"..#####..",
".#######.",
"###aaa###",
"##abbba##",
"##abbba##",
"##abbba##",
"###aaa###",
".#######.",
"..#####.."};
