<?xml version="1.0" encoding="UTF-8" standalone="no"?>
<!DOCTYPE svg PUBLIC "-//W3C//DTD SVG 1.1//EN" "http://www.w3.org/Graphics/SVG/1.1/DTD/svg11.dtd">
<svg width="100%" height="100%" viewBox="0 0 64 64" version="1.1" xmlns="http://www.w3.org/2000/svg" xmlns:xlink="http://www.w3.org/1999/xlink" xml:space="preserve" xmlns:serif="http://www.serif.com/" style="fill-rule:evenodd;clip-rule:evenodd;stroke-linecap:round;stroke-linejoin:round;">
    <g transform="matrix(0.306082,0,0,0.306082,22.5242,22.1665)">
        <g id="Shadow" transform="matrix(1,0,0,1,-68,-68)">
            <g id="g5022">
                <rect id="rect4173" x="38.531" y="168.527" width="120.855" height="29.613" style="fill:url(#_Linear1);"/>
                <path id="path5058" d="M159.386,168.528L159.386,198.139C172.275,198.195 190.546,191.505 190.546,183.332C190.546,175.158 176.162,168.528 159.386,168.528Z" style="fill:url(#_Radial2);fill-rule:nonzero;"/>
                <path id="path5018" d="M38.531,168.528L38.531,198.139C25.642,198.195 7.371,191.505 7.371,183.332C7.371,175.158 21.754,168.528 38.531,168.528Z" style="fill:url(#_Radial3);fill-rule:nonzero;"/>
            </g>
        </g>
        <g id="Base" transform="matrix(1,0,0,1,-68,-68)">
            <path id="rect15391" d="M172.396,19.371C172.396,16.729 170.251,14.583 167.608,14.583L31.871,14.583C29.229,14.583 27.083,16.729 27.083,19.371L27.083,180.893C27.083,183.536 29.229,185.681 31.871,185.681L167.608,185.681C170.251,185.681 172.396,183.536 172.396,180.893L172.396,19.371Z" style="fill:url(#_Radial4);stroke:url(#_Radial5);stroke-width:4.17px;"/>
            <path id="rect15660" d="M168.498,19.375C168.498,19.033 168.22,18.754 167.877,18.754L31.881,18.754C31.539,18.754 31.26,19.033 31.26,19.375L31.26,180.751C31.26,181.094 31.539,181.372 31.881,181.372L167.877,181.372C168.22,181.372 168.498,181.094 168.498,180.751L168.498,19.375Z" style="fill:none;stroke:url(#_Radial6);stroke-width:4.17px;"/>
            <path id="path15672" d="M47.941,22.893L47.941,180.837" style="fill:none;stroke:black;stroke-opacity:0.02;stroke-width:4.12px;stroke-linecap:butt;stroke-linejoin:miter;"/>
            <path id="path15674" d="M52.083,20.919L52.083,179.326" style="fill:none;stroke:white;stroke-opacity:0.2;stroke-width:4.17px;stroke-linecap:butt;stroke-linejoin:miter;"/>
        </g>
        <g id="Text" transform="matrix(1,0,0,1,-68,-68)">
            <g id="g2188">
                <path id="rect15686" d="M150,38.074C150,37.757 149.743,37.5 149.426,37.5L67.241,37.5C66.924,37.5 66.667,37.757 66.667,38.074L66.667,41.093C66.667,41.409 66.924,41.667 67.241,41.667L149.426,41.667C149.743,41.667 150,41.409 150,41.093L150,38.074Z" style="fill:rgb(155,155,155);fill-opacity:0.55;"/>
                <path id="rect15688" d="M150,46.407C150,46.091 149.743,45.833 149.426,45.833L67.241,45.833C66.924,45.833 66.667,46.091 66.667,46.407L66.667,49.426C66.667,49.743 66.924,50 67.241,50L149.426,50C149.743,50 150,49.743 150,49.426L150,46.407Z" style="fill:rgb(155,155,155);fill-opacity:0.55;"/>
                <path id="rect15690" d="M150,54.741C150,54.424 149.743,54.167 149.426,54.167L67.241,54.167C66.924,54.167 66.667,54.424 66.667,54.741L66.667,57.759C66.667,58.076 66.924,58.333 67.241,58.333L149.426,58.333C149.743,58.333 150,58.076 150,57.759L150,54.741Z" style="fill:rgb(155,155,155);fill-opacity:0.55;"/>
                <path id="rect15692" d="M150,63.074C150,62.757 149.743,62.5 149.426,62.5L67.241,62.5C66.924,62.5 66.667,62.757 66.667,63.074L66.667,66.093C66.667,66.409 66.924,66.667 67.241,66.667L149.426,66.667C149.743,66.667 150,66.409 150,66.093L150,63.074Z" style="fill:rgb(155,155,155);fill-opacity:0.55;"/>
                <path id="rect15694" d="M150,71.407C150,71.091 149.743,70.833 149.426,70.833L67.241,70.833C66.924,70.833 66.667,71.091 66.667,71.407L66.667,74.426C66.667,74.743 66.924,75 67.241,75L149.426,75C149.743,75 150,74.743 150,74.426L150,71.407Z" style="fill:rgb(155,155,155);fill-opacity:0.55;"/>
                <path id="rect15696" d="M150,79.741C150,79.424 149.743,79.167 149.426,79.167L67.241,79.167C66.924,79.167 66.667,79.424 66.667,79.741L66.667,82.759C66.667,83.076 66.924,83.333 67.241,83.333L149.426,83.333C149.743,83.333 150,83.076 150,82.759L150,79.741Z" style="fill:rgb(155,155,155);fill-opacity:0.55;"/>
                <path id="rect15698" d="M150,88.074C150,87.757 149.743,87.5 149.426,87.5L67.241,87.5C66.924,87.5 66.667,87.757 66.667,88.074L66.667,91.093C66.667,91.409 66.924,91.667 67.241,91.667L149.426,91.667C149.743,91.667 150,91.409 150,91.093L150,88.074Z" style="fill:rgb(155,155,155);fill-opacity:0.55;"/>
                <path id="rect15700" d="M150,96.407C150,96.091 149.743,95.833 149.426,95.833L67.241,95.833C66.924,95.833 66.667,96.091 66.667,96.407L66.667,99.426C66.667,99.743 66.924,100 67.241,100L149.426,100C149.743,100 150,99.743 150,99.426L150,96.407Z" style="fill:rgb(155,155,155);fill-opacity:0.55;"/>
                <path id="rect15732" d="M104.167,104.425C104.167,104.282 104.051,104.167 103.908,104.167L66.925,104.167C66.782,104.167 66.667,104.282 66.667,104.425L66.667,108.075C66.667,108.218 66.782,108.333 66.925,108.333L103.908,108.333C104.051,108.333 104.167,108.218 104.167,108.075L104.167,104.425Z" style="fill:rgb(155,155,155);fill-opacity:0.55;"/>
                <path id="rect15736" d="M150,121.407C150,121.091 149.743,120.833 149.426,120.833L67.241,120.833C66.924,120.833 66.667,121.091 66.667,121.407L66.667,124.426C66.667,124.743 66.924,125 67.241,125L149.426,125C149.743,125 150,124.743 150,124.426L150,121.407Z" style="fill:rgb(155,155,155);fill-opacity:0.55;"/>
                <path id="rect15738" d="M150,129.741C150,129.424 149.743,129.167 149.426,129.167L67.241,129.167C66.924,129.167 66.667,129.424 66.667,129.741L66.667,132.759C66.667,133.076 66.924,133.333 67.241,133.333L149.426,133.333C149.743,133.333 150,133.076 150,132.759L150,129.741Z" style="fill:rgb(155,155,155);fill-opacity:0.55;"/>
                <path id="rect15740" d="M150,138.074C150,137.757 149.743,137.5 149.426,137.5L67.241,137.5C66.924,137.5 66.667,137.757 66.667,138.074L66.667,141.093C66.667,141.409 66.924,141.667 67.241,141.667L149.426,141.667C149.743,141.667 150,141.409 150,141.093L150,138.074Z" style="fill:rgb(155,155,155);fill-opacity:0.55;"/>
                <path id="rect15742" d="M150,146.407C150,146.091 149.743,145.833 149.426,145.833L67.241,145.833C66.924,145.833 66.667,146.091 66.667,146.407L66.667,149.426C66.667,149.743 66.924,150 67.241,150L149.426,150C149.743,150 150,149.743 150,149.426L150,146.407Z" style="fill:rgb(155,155,155);fill-opacity:0.55;"/>
                <path id="rect15744" d="M125,154.569C125,154.347 124.82,154.167 124.598,154.167L67.068,154.167C66.847,154.167 66.667,154.347 66.667,154.569L66.667,157.931C66.667,158.153 66.847,158.333 67.068,158.333L124.598,158.333C124.82,158.333 125,158.153 125,157.931L125,154.569Z" style="fill:rgb(155,155,155);fill-opacity:0.55;"/>
            </g>
            <path id="path5138" d="M117.691,130.52L88.116,113.057L59.615,128.682L57.341,16.448L118.957,16.448L117.691,130.52Z" style="fill:url(#_Linear7);"/>
            <path id="path2204" d="M51.781,14.658C51.781,14.658 51,2.522 62.949,2.261L104.664,2.114C109.489,2.114 110.758,4.963 110.758,8.79L110.758,123.875L85.606,102.224L61.143,123.875L60.799,14.665L51.781,14.658Z" style="fill:url(#_Linear8);stroke:rgb(54,72,120);stroke-width:4.17px;stroke-linecap:butt;stroke-linejoin:miter;"/>
            <path id="path3668" d="M54.293,12.549C54.213,9.272 55.47,4.501 64.064,4.24L104.283,4.167C106.837,4.167 108.709,4.864 108.709,7.498L108.587,43.716L63.821,43.716L63.3,12.497L54.293,12.549Z" style="fill:url(#_Linear9);"/>
            <path id="rect5895" d="M107.806,28.137C107.806,27.994 107.69,27.878 107.548,27.878L64.08,27.878C63.937,27.878 63.821,27.994 63.821,28.137L63.821,80.968C63.821,81.111 63.937,81.226 64.08,81.226L107.548,81.226C107.69,81.226 107.806,81.111 107.806,80.968L107.806,28.137Z" style="fill:url(#_Linear10);"/>
            <path id="path5969" d="M101.987,9.206L106.565,12.971L106.448,114.633L85.406,96.682L65.434,114.23L65.413,11.457L101.987,9.206Z" style="fill:none;stroke:url(#_Linear11);stroke-width:4.17px;stroke-linecap:butt;stroke-linejoin:miter;"/>
            <path id="path2894" d="M63.161,16.41L62.977,4.306C54.1,4.306 54.138,12.367 54.138,16.41L63.161,16.41Z" style="fill:url(#_Linear12);fill-rule:nonzero;"/>
            <path id="path2904" d="M63.161,16.41L62.977,7.603C53.401,7.678 54.138,16.41 54.138,16.41L63.161,16.41Z" style="fill:url(#_Linear13);fill-rule:nonzero;"/>
        </g>
    </g>
    <defs>
        <linearGradient id="_Linear1" x1="0" y1="0" x2="1" y2="0" gradientUnits="userSpaceOnUse" gradientTransform="matrix(1.81329e-15,29.6132,-29.6132,1.81329e-15,84.2983,168.527)"><stop offset="0" style="stop-color:black;stop-opacity:0"/><stop offset="0.5" style="stop-color:black;stop-opacity:0.4"/><stop offset="1" style="stop-color:black;stop-opacity:0"/></linearGradient>
        <radialGradient id="_Radial2" cx="0" cy="0" r="1" gradientUnits="userSpaceOnUse" gradientTransform="matrix(29.3198,0,0,14.284,160.15,183.159)"><stop offset="0" style="stop-color:black;stop-opacity:0.4"/><stop offset="1" style="stop-color:black;stop-opacity:0"/></radialGradient>
        <radialGradient id="_Radial3" cx="0" cy="0" r="1" gradientUnits="userSpaceOnUse" gradientTransform="matrix(-29.3198,0,0,14.284,37.7666,183.159)"><stop offset="0" style="stop-color:black;stop-opacity:0.4"/><stop offset="1" style="stop-color:black;stop-opacity:0"/></radialGradient>
        <radialGradient id="_Radial4" cx="0" cy="0" r="1" gradientUnits="userSpaceOnUse" gradientTransform="matrix(347.012,0,0,377.46,135.505,154.907)"><stop offset="0" style="stop-color:rgb(250,250,250);stop-opacity:1"/><stop offset="1" style="stop-color:rgb(187,187,187);stop-opacity:1"/></radialGradient>
        <radialGradient id="_Radial5" cx="0" cy="0" r="1" gradientUnits="userSpaceOnUse" gradientTransform="matrix(152.308,0,0,163.02,49.1435,18.2595)"><stop offset="0" style="stop-color:rgb(163,163,163);stop-opacity:1"/><stop offset="1" style="stop-color:rgb(76,76,76);stop-opacity:1"/></radialGradient>
        <radialGradient id="_Radial6" cx="0" cy="0" r="1" gradientUnits="userSpaceOnUse" gradientTransform="matrix(154.707,0,0,164.549,46.2196,33.6546)"><stop offset="0" style="stop-color:white;stop-opacity:1"/><stop offset="1" style="stop-color:rgb(248,248,248);stop-opacity:1"/></radialGradient>
        <linearGradient id="_Linear7" x1="0" y1="0" x2="1" y2="0" gradientUnits="userSpaceOnUse" gradientTransform="matrix(1.18899,74.3724,-74.3724,1.18899,100.776,71.4844)"><stop offset="0" style="stop-color:black;stop-opacity:0.28"/><stop offset="1" style="stop-color:black;stop-opacity:0"/></linearGradient>
        <linearGradient id="_Linear8" x1="0" y1="0" x2="1" y2="0" gradientUnits="userSpaceOnUse" gradientTransform="matrix(-0.15856,-80.3723,80.3723,-0.15856,88.3951,97.9178)"><stop offset="0" style="stop-color:rgb(133,157,188);stop-opacity:1"/><stop offset="1" style="stop-color:rgb(84,114,153);stop-opacity:1"/></linearGradient>
        <linearGradient id="_Linear9" x1="0" y1="0" x2="1" y2="0" gradientUnits="userSpaceOnUse" gradientTransform="matrix(9.88229e-16,16.139,-16.139,9.88229e-16,75.8484,9.13252)"><stop offset="0" style="stop-color:white;stop-opacity:0.45"/><stop offset="1" style="stop-color:white;stop-opacity:0"/></linearGradient>
        <linearGradient id="_Linear10" x1="0" y1="0" x2="1" y2="0" gradientUnits="userSpaceOnUse" gradientTransform="matrix(3.19137e-15,52.1191,-52.1191,3.19137e-15,85.8137,25.8674)"><stop offset="0" style="stop-color:black;stop-opacity:0"/><stop offset="0.5" style="stop-color:black;stop-opacity:0.16"/><stop offset="1" style="stop-color:black;stop-opacity:0"/></linearGradient>
        <linearGradient id="_Linear11" x1="0" y1="0" x2="1" y2="0" gradientUnits="userSpaceOnUse" gradientTransform="matrix(1.17124e-15,-19.1278,19.1278,1.17124e-15,85.8608,33.6691)"><stop offset="0" style="stop-color:white;stop-opacity:0.19"/><stop offset="1" style="stop-color:white;stop-opacity:0"/></linearGradient>
        <linearGradient id="_Linear12" x1="0" y1="0" x2="1" y2="0" gradientUnits="userSpaceOnUse" gradientTransform="matrix(3.00639,4.51772,-4.51772,3.00639,55.643,4.30632)"><stop offset="0" style="stop-color:white;stop-opacity:0.48"/><stop offset="1" style="stop-color:white;stop-opacity:0"/></linearGradient>
        <linearGradient id="_Linear13" x1="0" y1="0" x2="1" y2="0" gradientUnits="userSpaceOnUse" gradientTransform="matrix(-0.130204,5.65933,-5.65933,-0.130204,60.767,7.59621)"><stop offset="0" style="stop-color:black;stop-opacity:0.36"/><stop offset="1" style="stop-color:black;stop-opacity:0"/></linearGradient>
    </defs>
</svg>
