<?xml version="1.0" encoding="UTF-8" standalone="no"?>
<!DOCTYPE svg PUBLIC "-//W3C//DTD SVG 1.1//EN" "http://www.w3.org/Graphics/SVG/1.1/DTD/svg11.dtd">
<svg width="100%" height="100%" viewBox="0 0 64 64" version="1.1" xmlns="http://www.w3.org/2000/svg" xmlns:xlink="http://www.w3.org/1999/xlink" xml:space="preserve" xmlns:serif="http://www.serif.com/" style="fill-rule:evenodd;clip-rule:evenodd;stroke-linecap:round;stroke-linejoin:round;">
    <g id="g32" transform="matrix(0.445177,0,0,0.445177,0,9.37446)">
        <g id="g2423">
            <path id="path60" d="M143.763,90.302C143.763,97.384 111.58,103.126 71.881,103.126C32.182,103.126 0,97.384 0,90.302C0,83.22 32.182,77.478 71.881,77.478C111.58,77.478 143.763,83.22 143.763,90.302Z" style="fill:url(#_Radial1);fill-rule:nonzero;"/>
            <path id="path62" d="M65.384,94.888C65.384,102.432 52.294,108.549 36.146,108.549C19.999,108.549 6.908,102.432 6.908,94.888C6.908,87.343 19.999,81.226 36.146,81.226C52.294,81.226 65.384,87.343 65.384,94.888Z" style="fill:url(#_Radial2);fill-rule:nonzero;"/>
            <path id="path64" d="M133.606,94.888C133.606,102.432 120.515,108.549 104.368,108.549C88.22,108.549 75.13,102.432 75.13,94.888C75.13,87.343 88.22,81.226 104.368,81.226C120.515,81.226 133.606,87.343 133.606,94.888Z" style="fill:url(#_Radial3);fill-rule:nonzero;"/>
        </g>
        <g id="g3807">
            <g id="g3706">
                <path id="path4262" d="M36.158,2.087C31.228,2.049 26.721,5.06 24.854,9.622C22.988,14.185 24.137,19.381 27.68,22.81L54.808,49.938L27.68,77.066C22.946,81.8 22.946,89.475 27.68,94.209C32.414,98.943 40.089,98.943 44.823,94.209L71.952,67.081L99.08,94.209C102.122,97.339 106.543,98.537 110.76,97.412C114.977,96.287 118.347,92.975 119.426,88.746C120.505,84.517 119.197,80.073 116.035,77.066L88.907,49.938L116.035,22.81C119.604,19.358 120.776,14.015 118.861,9.434C116.945,4.853 112.333,1.97 107.369,2.087C104.22,2.211 101.244,3.564 99.08,5.855L71.952,32.983L44.823,5.855C42.568,3.472 39.439,2.111 36.158,2.087Z" style="fill:url(#_Radial4);fill-rule:nonzero;stroke:rgb(85,87,83);stroke-width:4.17px;"/>
            </g>
            <path id="path5143" d="M36.249,6.252C33.063,6.228 30.036,8.244 28.827,11.2C27.619,14.154 28.287,17.507 30.65,19.794C30.693,19.793 30.737,19.793 30.78,19.794L57.864,47.008C58.663,47.798 59.114,48.878 59.114,50.002C59.114,51.127 58.663,52.206 57.864,52.997L30.78,80.081C27.665,83.196 27.665,88.163 30.78,91.278C33.896,94.394 38.863,94.394 41.978,91.278L69.062,64.065C69.852,63.265 70.932,62.815 72.056,62.815C73.181,62.815 74.26,63.265 75.051,64.065L102.134,91.278C104.093,93.293 106.988,94.117 109.817,93.362C112.617,92.615 114.718,90.499 115.416,87.763C116.118,85.011 115.269,82.046 113.202,80.081L113.072,80.081L85.989,52.997C85.189,52.206 84.738,51.127 84.738,50.002C84.738,48.878 85.189,47.798 85.989,47.008L113.072,19.794C113.115,19.793 113.159,19.793 113.202,19.794C115.542,17.531 116.244,13.856 115.025,10.94C113.793,7.993 110.909,6.175 107.603,6.252C105.558,6.333 103.658,7.252 102.265,8.726C102.222,8.771 102.179,8.814 102.134,8.857L75.051,35.94C74.26,36.74 73.181,37.19 72.056,37.19C70.932,37.19 69.852,36.74 69.062,35.94L41.978,8.857C41.977,8.813 41.977,8.77 41.978,8.726C40.53,7.197 38.379,6.268 36.249,6.252Z" style="fill:none;fill-rule:nonzero;stroke:url(#_Linear5);stroke-width:4.17px;"/>
            <path id="path3797" d="M57.664,50C75.342,44.844 70.806,50.552 86.463,50.552L115.261,79.351L99.331,91.667L72.252,64.349L45.164,90.746L31.004,76.87L57.664,50Z" style="fill:url(#_Radial6);"/>
        </g>
    </g>
    <defs>
        <radialGradient id="_Radial1" cx="0" cy="0" r="1" gradientUnits="userSpaceOnUse" gradientTransform="matrix(71.8814,0,0,12.8239,71.8814,90.302)"><stop offset="0" style="stop-color:black;stop-opacity:0.09"/><stop offset="1" style="stop-color:black;stop-opacity:0"/></radialGradient>
        <radialGradient id="_Radial2" cx="0" cy="0" r="1" gradientUnits="userSpaceOnUse" gradientTransform="matrix(27.8429,0,0,13.0094,36.1462,94.8876)"><stop offset="0" style="stop-color:black;stop-opacity:0.2"/><stop offset="1" style="stop-color:black;stop-opacity:0"/></radialGradient>
        <radialGradient id="_Radial3" cx="0" cy="0" r="1" gradientUnits="userSpaceOnUse" gradientTransform="matrix(28.1938,0,0,13.1734,104.368,94.8876)"><stop offset="0" style="stop-color:black;stop-opacity:0.2"/><stop offset="1" style="stop-color:black;stop-opacity:0"/></radialGradient>
        <radialGradient id="_Radial4" cx="0" cy="0" r="1" gradientUnits="userSpaceOnUse" gradientTransform="matrix(51.1243,0,0,51.0811,71.8832,39.1228)"><stop offset="0" style="stop-color:rgb(156,158,153);stop-opacity:1"/><stop offset="1" style="stop-color:rgb(134,136,131);stop-opacity:1"/></radialGradient>
        <linearGradient id="_Linear5" x1="0" y1="0" x2="1" y2="0" gradientUnits="userSpaceOnUse" gradientTransform="matrix(4.78874e-15,78.2061,-78.2061,4.78874e-15,61.4661,57.1025)"><stop offset="0" style="stop-color:white;stop-opacity:0.36"/><stop offset="1" style="stop-color:white;stop-opacity:0"/></linearGradient>
        <radialGradient id="_Radial6" cx="0" cy="0" r="1" gradientUnits="userSpaceOnUse" gradientTransform="matrix(48.7611,0,0,24.5456,68.0898,49.2378)"><stop offset="0" style="stop-color:rgb(85,87,83);stop-opacity:0.3"/><stop offset="1" style="stop-color:rgb(85,87,83);stop-opacity:0"/></radialGradient>
    </defs>
</svg>
