<?xml version="1.0" encoding="UTF-8" standalone="no"?>
<!DOCTYPE svg PUBLIC "-//W3C//DTD SVG 1.1//EN" "http://www.w3.org/Graphics/SVG/1.1/DTD/svg11.dtd">
<svg width="100%" height="100%" viewBox="0 0 64 64" version="1.1" xmlns="http://www.w3.org/2000/svg" xmlns:xlink="http://www.w3.org/1999/xlink" xml:space="preserve" xmlns:serif="http://www.serif.com/" style="fill-rule:evenodd;clip-rule:evenodd;">
    <g transform="matrix(0.434998,0,0,0.434998,0.169904,6.96653)">
        <g id="Shadow">
            <g id="Shadow1" serif:id="Shadow">
                <g id="g114" opacity="0.4">
                    <rect id="rect116" x="122.296" y="89.84" width="17.544" height="16.667" style="fill:url(#_Radial1);"/>
                    <rect id="rect118" x="6.506" y="89.84" width="17.544" height="16.667" style="fill:url(#_Radial2);"/>
                    <rect id="rect120" x="24.05" y="89.84" width="98.246" height="16.667" style="fill:url(#_Linear3);"/>
                </g>
            </g>
        </g>
        <path id="rect122" d="M137.757,19.037C137.757,13.271 133.075,8.59 127.309,8.59L19.037,8.59C13.271,8.59 8.59,13.271 8.59,19.037L8.59,89.809C8.59,95.575 13.271,100.257 19.037,100.257L127.309,100.257C133.075,100.257 137.757,95.575 137.757,89.809L137.757,19.037Z" style="fill:url(#_Linear4);stroke:rgb(147,147,147);stroke-width:4.17px;"/>
        <path id="path124" d="M70.653,29.793C70.653,31.019 70.364,31.959 69.787,32.613C69.209,33.263 68.422,33.588 67.425,33.588C67.018,33.588 66.629,33.511 66.257,33.359L66.257,31.618C66.585,31.867 66.948,31.991 67.346,31.991C67.836,31.991 68.203,31.81 68.448,31.448C68.698,31.082 68.822,30.535 68.822,29.806L68.822,24.003L70.653,24.003L70.653,29.793M75.764,26.444C76.787,26.444 77.603,26.758 78.211,27.386C78.819,28.014 79.123,28.858 79.123,29.917C79.123,31.069 78.797,31.967 78.145,32.613C77.494,33.254 76.619,33.575 75.521,33.575C74.511,33.575 73.688,33.258 73.054,32.626C72.424,31.994 72.109,31.165 72.109,30.14C72.109,28.988 72.439,28.086 73.1,27.431C73.76,26.773 74.648,26.444 75.764,26.444M75.613,32.168C76.146,32.168 76.579,31.978 76.912,31.599C77.249,31.215 77.417,30.694 77.417,30.035C77.417,29.368 77.251,28.842 76.918,28.459C76.586,28.07 76.16,27.876 75.639,27.876C75.123,27.876 74.686,28.079 74.327,28.485C73.968,28.886 73.789,29.416 73.789,30.074C73.789,30.724 73.964,31.237 74.314,31.612C74.668,31.983 75.101,32.168 75.613,32.168M86.76,33.385L85.002,33.385L85.002,29.715C85.002,29.1 84.908,28.655 84.72,28.38C84.531,28.101 84.21,27.961 83.755,27.961C83.357,27.961 83.027,28.112 82.764,28.413C82.502,28.714 82.371,29.098 82.371,29.564L82.371,33.385L80.593,33.385L80.593,23.467L82.371,23.467L82.371,27.621C82.611,27.229 82.911,26.934 83.27,26.738C83.633,26.542 84.055,26.444 84.536,26.444C85.275,26.444 85.831,26.673 86.202,27.13C86.574,27.588 86.76,28.275 86.76,29.191L86.76,33.385M94.817,33.385L93.059,33.385L93.059,29.715C93.059,29.1 92.965,28.655 92.776,28.38C92.588,28.101 92.267,27.961 91.812,27.961C91.414,27.961 91.084,28.112 90.821,28.413C90.559,28.714 90.428,29.098 90.428,29.564L90.428,33.385L88.65,33.385L88.65,26.686L90.428,26.686L90.428,27.621C90.668,27.229 90.968,26.934 91.326,26.738C91.689,26.542 92.112,26.444 92.593,26.444C93.332,26.444 93.887,26.673 94.259,27.13C94.631,27.588 94.817,28.275 94.817,29.191L94.817,33.385M100.571,24.003L103.865,24.003C105.457,24.003 106.651,24.385 107.447,25.148C108.247,25.911 108.648,27.054 108.648,28.576C108.648,30.046 108.197,31.215 107.296,32.083C106.399,32.951 105.183,33.385 103.648,33.385L100.571,33.385L100.571,24.003M102.401,31.939L103.609,31.939C104.597,31.939 105.374,31.645 105.938,31.056C106.506,30.467 106.791,29.662 106.791,28.642C106.791,27.652 106.515,26.882 105.964,26.332C105.413,25.783 104.645,25.508 103.661,25.508L102.401,25.508L102.401,31.939M113.345,26.444C114.369,26.444 115.184,26.758 115.792,27.386C116.4,28.014 116.704,28.858 116.704,29.917C116.704,31.069 116.379,31.967 115.727,32.613C115.075,33.254 114.2,33.575 113.102,33.575C112.092,33.575 111.27,33.258 110.636,32.626C110.006,31.994 109.691,31.165 109.691,30.14C109.691,28.988 110.021,28.086 110.681,27.431C111.342,26.773 112.23,26.444 113.345,26.444M113.194,32.168C113.728,32.168 114.161,31.978 114.493,31.599C114.83,31.215 114.999,30.694 114.999,30.035C114.999,29.368 114.832,28.842 114.5,28.459C114.168,28.07 113.741,27.876 113.221,27.876C112.704,27.876 112.267,28.079 111.908,28.485C111.55,28.886 111.37,29.416 111.37,30.074C111.37,30.724 111.545,31.237 111.895,31.612C112.25,31.983 112.683,32.168 113.194,32.168M123.954,30.421L119.48,30.421C119.48,30.971 119.648,31.398 119.985,31.703C120.326,32.004 120.799,32.155 121.402,32.155C122.067,32.155 122.708,31.956 123.325,31.56L123.325,33.012C122.633,33.37 121.859,33.548 121.002,33.548C119.965,33.548 119.154,33.245 118.568,32.639C117.986,32.033 117.695,31.204 117.695,30.153C117.695,29.019 118.006,28.116 118.627,27.444C119.252,26.768 120.075,26.43 121.094,26.43C121.99,26.43 122.69,26.71 123.193,27.268C123.701,27.822 123.954,28.596 123.954,29.59L123.954,30.421M122.314,29.244C122.314,28.777 122.196,28.413 121.96,28.151C121.728,27.889 121.398,27.759 120.969,27.759C120.58,27.759 120.243,27.894 119.959,28.164C119.674,28.43 119.515,28.79 119.48,29.244L122.314,29.244" style="fill-rule:nonzero;"/>
        <path id="rect126" d="M127.34,44.007C127.34,41.707 125.473,39.84 123.173,39.84L69.006,39.84C66.707,39.84 64.84,41.707 64.84,44.007C64.84,46.306 66.707,48.173 69.006,48.173L123.173,48.173C125.473,48.173 127.34,46.306 127.34,44.007Z" style="fill:rgb(141,141,141);fill-opacity:0.4;"/>
        <path id="rect128" d="M110.86,56.507C110.86,54.207 108.993,52.34 106.693,52.34L69.378,52.34C67.079,52.34 65.212,54.207 65.212,56.507C65.212,58.806 67.079,60.673 69.378,60.673L106.693,60.673C108.993,60.673 110.86,58.806 110.86,56.507Z" style="fill:rgb(141,141,141);fill-opacity:0.4;"/>
        <g id="g130" opacity="0.49">
            <rect id="rect132" x="19.173" y="73.419" width="2.923" height="16.256"/>
            <rect id="rect134" x="25.267" y="73.419" width="5.664" height="8.088"/>
            <rect id="rect136" x="33.79" y="73.419" width="2.923" height="8.088"/>
            <rect id="rect138" x="39.637" y="73.419" width="5.847" height="8.088"/>
            <rect id="rect140" x="48.407" y="73.419" width="2.923" height="8.088"/>
            <rect id="rect142" x="54.254" y="73.419" width="2.923" height="8.088"/>
            <rect id="rect144" x="63.024" y="73.419" width="2.923" height="8.088"/>
            <rect id="rect146" x="68.871" y="73.419" width="5.847" height="8.088"/>
            <rect id="rect148" x="77.642" y="73.419" width="5.847" height="8.088"/>
            <rect id="rect150" x="86.412" y="73.419" width="2.923" height="8.088"/>
            <rect id="rect152" x="92.259" y="73.419" width="2.923" height="8.088"/>
            <rect id="rect154" x="98.106" y="73.419" width="2.923" height="8.088"/>
            <rect id="rect156" x="103.952" y="73.419" width="5.847" height="8.088"/>
            <rect id="rect158" x="115.646" y="73.419" width="5.847" height="8.088"/>
            <rect id="rect160" x="124.416" y="73.419" width="2.923" height="16.256"/>
        </g>
        <path id="path162" d="M28.091,86.245C28.31,86.297 28.481,86.405 28.603,86.57C28.727,86.735 28.789,86.938 28.789,87.18C28.789,87.552 28.674,87.839 28.444,88.043C28.215,88.246 27.888,88.348 27.465,88.348C27.323,88.348 27.176,88.332 27.025,88.3C26.876,88.269 26.721,88.223 26.56,88.161L26.56,87.669C26.687,87.752 26.826,87.814 26.978,87.856C27.129,87.898 27.287,87.919 27.451,87.919C27.738,87.919 27.957,87.856 28.106,87.73C28.258,87.604 28.333,87.421 28.333,87.18C28.333,86.958 28.263,86.785 28.122,86.661C27.983,86.535 27.789,86.472 27.54,86.472L27.145,86.472L27.145,86.053L27.558,86.053C27.783,86.053 27.955,86.004 28.075,85.905C28.194,85.804 28.254,85.659 28.254,85.471C28.254,85.278 28.192,85.13 28.068,85.027C27.946,84.923 27.769,84.871 27.54,84.871C27.414,84.871 27.28,84.886 27.136,84.916C26.993,84.947 26.835,84.994 26.662,85.057L26.662,84.604C26.836,84.55 26.999,84.51 27.15,84.483C27.302,84.456 27.446,84.442 27.581,84.442C27.928,84.442 28.203,84.531 28.406,84.707C28.608,84.882 28.71,85.119 28.71,85.418C28.71,85.626 28.656,85.803 28.549,85.947C28.441,86.09 28.289,86.189 28.091,86.245M30.054,87.846L31.652,87.846L31.652,88.274L29.503,88.274L29.503,87.846C29.677,87.646 29.913,87.378 30.213,87.042C30.513,86.704 30.702,86.486 30.779,86.389C30.926,86.205 31.028,86.051 31.085,85.925C31.144,85.797 31.174,85.672 31.174,85.549C31.174,85.349 31.11,85.186 30.983,85.06C30.858,84.934 30.694,84.871 30.491,84.871C30.348,84.871 30.196,84.899 30.036,84.954C29.877,85.01 29.707,85.094 29.526,85.206L29.526,84.692C29.71,84.61 29.882,84.547 30.042,84.505C30.203,84.463 30.349,84.442 30.482,84.442C30.833,84.442 31.112,84.54 31.321,84.735C31.53,84.93 31.634,85.19 31.634,85.516C31.634,85.671 31.607,85.818 31.555,85.958C31.503,86.095 31.409,86.258 31.271,86.447C31.233,86.495 31.113,86.637 30.911,86.87C30.708,87.102 30.423,87.427 30.054,87.846M33.874,84.954L32.718,86.963L33.874,86.963L33.874,84.954M33.754,84.51L34.329,84.51L34.329,86.963L34.812,86.963L34.812,87.387L34.329,87.387L34.329,88.274L33.874,88.274L33.874,87.387L32.346,87.387L32.346,86.895L33.754,84.51M35.576,84.51L37.374,84.51L37.374,84.939L35.996,84.939L35.996,85.862C36.062,85.837 36.129,85.818 36.195,85.806C36.262,85.793 36.328,85.786 36.395,85.786C36.772,85.786 37.072,85.901 37.292,86.131C37.513,86.362 37.623,86.674 37.623,87.067C37.623,87.472 37.51,87.787 37.283,88.012C37.057,88.236 36.737,88.348 36.324,88.348C36.182,88.348 36.037,88.334 35.889,88.307C35.742,88.28 35.591,88.24 35.433,88.186L35.433,87.674C35.569,87.757 35.71,87.818 35.855,87.858C36,87.899 36.154,87.919 36.315,87.919C36.577,87.919 36.784,87.843 36.936,87.69C37.089,87.537 37.165,87.329 37.165,87.067C37.165,86.805 37.089,86.597 36.936,86.444C36.784,86.291 36.577,86.215 36.315,86.215C36.193,86.215 36.07,86.23 35.948,86.26C35.827,86.29 35.703,86.337 35.576,86.401L35.576,84.51M40.985,84.846C40.749,84.846 40.572,84.975 40.452,85.234C40.335,85.491 40.276,85.879 40.276,86.396C40.276,86.912 40.335,87.3 40.452,87.558C40.572,87.816 40.749,87.944 40.985,87.944C41.222,87.944 41.4,87.816 41.518,87.558C41.637,87.3 41.697,86.912 41.697,86.396C41.697,85.879 41.637,85.491 41.518,85.234C41.4,84.975 41.222,84.846 40.985,84.846M40.985,84.442C41.365,84.442 41.654,84.61 41.853,84.944C42.054,85.277 42.155,85.761 42.155,86.396C42.155,87.03 42.054,87.514 41.853,87.848C41.654,88.181 41.365,88.348 40.985,88.348C40.606,88.348 40.316,88.181 40.115,87.848C39.915,87.514 39.815,87.03 39.815,86.396C39.815,85.761 39.915,85.277 40.115,84.944C40.316,84.61 40.606,84.442 40.985,84.442M42.967,84.51L44.764,84.51L44.764,84.939L43.386,84.939L43.386,85.862C43.452,85.837 43.519,85.818 43.585,85.806C43.652,85.793 43.718,85.786 43.785,85.786C44.163,85.786 44.462,85.901 44.683,86.131C44.903,86.362 45.014,86.674 45.014,87.067C45.014,87.472 44.9,87.787 44.674,88.012C44.447,88.236 44.127,88.348 43.715,88.348C43.573,88.348 43.427,88.334 43.279,88.307C43.133,88.28 42.981,88.24 42.824,88.186L42.824,87.674C42.96,87.757 43.1,87.818 43.245,87.858C43.39,87.899 43.544,87.919 43.706,87.919C43.967,87.919 44.174,87.843 44.327,87.69C44.479,87.537 44.556,87.329 44.556,87.067C44.556,86.805 44.479,86.597 44.327,86.444C44.174,86.291 43.967,86.215 43.706,86.215C43.583,86.215 43.461,86.23 43.338,86.26C43.217,86.29 43.093,86.337 42.967,86.401L42.967,84.51M45.923,84.51L47.72,84.51L47.72,84.939L46.342,84.939L46.342,85.862C46.409,85.837 46.475,85.818 46.542,85.806C46.608,85.793 46.675,85.786 46.741,85.786C47.119,85.786 47.418,85.901 47.639,86.131C47.859,86.362 47.97,86.674 47.97,87.067C47.97,87.472 47.856,87.787 47.63,88.012C47.403,88.236 47.083,88.348 46.671,88.348C46.529,88.348 46.384,88.334 46.236,88.307C46.089,88.28 45.937,88.24 45.78,88.186L45.78,87.674C45.916,87.757 46.056,87.818 46.202,87.858C46.347,87.899 46.5,87.919 46.662,87.919C46.923,87.919 47.13,87.843 47.283,87.69C47.435,87.537 47.512,87.329 47.512,87.067C47.512,86.805 47.435,86.597 47.283,86.444C47.13,86.291 46.923,86.215 46.662,86.215C46.539,86.215 46.417,86.23 46.294,86.26C46.174,86.29 46.05,86.337 45.923,86.401L45.923,84.51M48.759,84.51L50.935,84.51L50.935,84.727L49.706,88.274L49.228,88.274L50.384,84.939L48.759,84.939L48.759,84.51M53.313,84.51L55.111,84.51L55.111,84.939L53.732,84.939L53.732,85.862C53.799,85.837 53.865,85.818 53.932,85.806C53.998,85.793 54.065,85.786 54.131,85.786C54.509,85.786 54.808,85.901 55.029,86.131C55.25,86.362 55.36,86.674 55.36,87.067C55.36,87.472 55.247,87.787 55.02,88.012C54.793,88.236 54.474,88.348 54.061,88.348C53.919,88.348 53.774,88.334 53.626,88.307C53.479,88.28 53.327,88.24 53.17,88.186L53.17,87.674C53.306,87.757 53.447,87.818 53.592,87.858C53.737,87.899 53.89,87.919 54.052,87.919C54.313,87.919 54.521,87.843 54.673,87.69C54.826,87.537 54.902,87.329 54.902,87.067C54.902,86.805 54.826,86.597 54.673,86.444C54.521,86.291 54.313,86.215 54.052,86.215C53.93,86.215 53.807,86.23 53.685,86.26C53.564,86.29 53.44,86.337 53.313,86.401L53.313,84.51M56.344,87.846L57.092,87.846L57.092,84.974L56.278,85.156L56.278,84.692L57.088,84.51L57.545,84.51L57.545,87.846L58.294,87.846L58.294,88.274L56.344,88.274L56.344,87.846M60.2,84.846C59.964,84.846 59.787,84.975 59.667,85.234C59.549,85.491 59.491,85.879 59.491,86.396C59.491,86.912 59.549,87.3 59.667,87.558C59.787,87.816 59.964,87.944 60.2,87.944C60.437,87.944 60.615,87.816 60.733,87.558C60.852,87.3 60.912,86.912 60.912,86.396C60.912,85.879 60.852,85.491 60.733,85.234C60.615,84.975 60.437,84.846 60.2,84.846M60.2,84.442C60.579,84.442 60.869,84.61 61.068,84.944C61.269,85.277 61.37,85.761 61.37,86.396C61.37,87.03 61.269,87.514 61.068,87.848C60.869,88.181 60.579,88.348 60.2,88.348C59.821,88.348 59.531,88.181 59.33,87.848C59.13,87.514 59.03,87.03 59.03,86.396C59.03,85.761 59.13,85.277 59.33,84.944C59.531,84.61 59.821,84.442 60.2,84.442M63.213,86.189C63.007,86.189 62.844,86.268 62.723,86.424C62.604,86.58 62.544,86.795 62.544,87.067C62.544,87.337 62.604,87.552 62.723,87.71C62.844,87.866 63.007,87.944 63.213,87.944C63.418,87.944 63.581,87.866 63.7,87.71C63.821,87.552 63.882,87.337 63.882,87.067C63.882,86.795 63.821,86.58 63.7,86.424C63.581,86.268 63.418,86.189 63.213,86.189M64.122,84.594L64.122,85.057C64.007,84.997 63.891,84.951 63.773,84.919C63.656,84.887 63.541,84.871 63.426,84.871C63.124,84.871 62.892,84.984 62.732,85.211C62.574,85.438 62.483,85.781 62.46,86.24C62.549,86.094 62.661,85.982 62.796,85.905C62.93,85.826 63.078,85.786 63.24,85.786C63.58,85.786 63.848,85.901 64.045,86.131C64.243,86.36 64.342,86.672 64.342,87.067C64.342,87.453 64.239,87.764 64.034,87.997C63.828,88.231 63.554,88.348 63.213,88.348C62.821,88.348 62.522,88.181 62.315,87.848C62.108,87.514 62.005,87.03 62.005,86.396C62.005,85.801 62.132,85.327 62.385,84.974C62.639,84.62 62.98,84.442 63.408,84.442C63.523,84.442 63.638,84.455 63.755,84.48C63.873,84.505 63.995,84.543 64.122,84.594M66.616,84.51L68.413,84.51L68.413,84.939L67.035,84.939L67.035,85.862C67.101,85.837 67.168,85.818 67.234,85.806C67.301,85.793 67.367,85.786 67.434,85.786C67.812,85.786 68.111,85.901 68.332,86.131C68.552,86.362 68.663,86.674 68.663,87.067C68.663,87.472 68.549,87.787 68.323,88.012C68.096,88.236 67.776,88.348 67.364,88.348C67.222,88.348 67.077,88.334 66.928,88.307C66.782,88.28 66.63,88.24 66.473,88.186L66.473,87.674C66.609,87.757 66.749,87.818 66.894,87.858C67.04,87.899 67.193,87.919 67.355,87.919C67.616,87.919 67.823,87.843 67.976,87.69C68.128,87.537 68.205,87.329 68.205,87.067C68.205,86.805 68.128,86.597 67.976,86.444C67.823,86.291 67.616,86.215 67.355,86.215C67.232,86.215 67.11,86.23 66.987,86.26C66.866,86.29 66.743,86.337 66.616,86.401L66.616,84.51M70.825,84.954L69.669,86.963L70.825,86.963L70.825,84.954M70.705,84.51L71.281,84.51L71.281,86.963L71.764,86.963L71.764,87.387L71.281,87.387L71.281,88.274L70.825,88.274L70.825,87.387L69.297,87.387L69.297,86.895L70.705,84.51M73.503,84.846C73.267,84.846 73.089,84.975 72.97,85.234C72.852,85.491 72.793,85.879 72.793,86.396C72.793,86.912 72.852,87.3 72.97,87.558C73.089,87.816 73.267,87.944 73.503,87.944C73.74,87.944 73.918,87.816 74.035,87.558C74.155,87.3 74.214,86.912 74.214,86.396C74.214,85.879 74.155,85.491 74.035,85.234C73.918,84.975 73.74,84.846 73.503,84.846M73.503,84.442C73.882,84.442 74.171,84.61 74.371,84.944C74.572,85.277 74.672,85.761 74.672,86.396C74.672,87.03 74.572,87.514 74.371,87.848C74.171,88.181 73.882,88.348 73.503,88.348C73.123,88.348 72.833,88.181 72.632,87.848C72.433,87.514 72.333,87.03 72.333,86.396C72.333,85.761 72.433,85.277 72.632,84.944C72.833,84.61 73.123,84.442 73.503,84.442M76.515,86.189C76.31,86.189 76.147,86.268 76.026,86.424C75.906,86.58 75.847,86.795 75.847,87.067C75.847,87.337 75.906,87.552 76.026,87.71C76.147,87.866 76.31,87.944 76.515,87.944C76.721,87.944 76.883,87.866 77.003,87.71C77.124,87.552 77.184,87.337 77.184,87.067C77.184,86.795 77.124,86.58 77.003,86.424C76.883,86.268 76.721,86.189 76.515,86.189M77.425,84.594L77.425,85.057C77.31,84.997 77.193,84.951 77.075,84.919C76.959,84.887 76.843,84.871 76.729,84.871C76.426,84.871 76.195,84.984 76.035,85.211C75.876,85.438 75.786,85.781 75.763,86.24C75.852,86.094 75.964,85.982 76.098,85.905C76.233,85.826 76.381,85.786 76.543,85.786C76.883,85.786 77.151,85.901 77.347,86.131C77.545,86.36 77.644,86.672 77.644,87.067C77.644,87.453 77.542,87.764 77.336,87.997C77.131,88.231 76.857,88.348 76.515,88.348C76.124,88.348 75.825,88.181 75.618,87.848C75.411,87.514 75.307,87.03 75.307,86.396C75.307,85.801 75.434,85.327 75.688,84.974C75.942,84.62 76.283,84.442 76.71,84.442C76.825,84.442 76.941,84.455 77.057,84.48C77.175,84.505 77.298,84.543 77.425,84.594M79.918,84.51L81.716,84.51L81.716,84.939L80.338,84.939L80.338,85.862C80.404,85.837 80.471,85.818 80.537,85.806C80.604,85.793 80.67,85.786 80.737,85.786C81.114,85.786 81.414,85.901 81.634,86.131C81.855,86.362 81.965,86.674 81.965,87.067C81.965,87.472 81.852,87.787 81.625,88.012C81.399,88.236 81.079,88.348 80.666,88.348C80.524,88.348 80.379,88.334 80.231,88.307C80.084,88.28 79.933,88.24 79.775,88.186L79.775,87.674C79.911,87.757 80.052,87.818 80.197,87.858C80.342,87.899 80.496,87.919 80.657,87.919C80.919,87.919 81.126,87.843 81.278,87.69C81.431,87.537 81.507,87.329 81.507,87.067C81.507,86.805 81.431,86.597 81.278,86.444C81.126,86.291 80.919,86.215 80.657,86.215C80.535,86.215 80.412,86.23 80.29,86.26C80.169,86.29 80.045,86.337 79.918,86.401L79.918,84.51M84.128,84.954L82.972,86.963L84.128,86.963L84.128,84.954M84.008,84.51L84.584,84.51L84.584,86.963L85.067,86.963L85.067,87.387L84.584,87.387L84.584,88.274L84.128,88.274L84.128,87.387L82.6,87.387L82.6,86.895L84.008,84.51M86.862,86.189C86.656,86.189 86.493,86.268 86.372,86.424C86.253,86.58 86.193,86.795 86.193,87.067C86.193,87.337 86.253,87.552 86.372,87.71C86.493,87.866 86.656,87.944 86.862,87.944C87.068,87.944 87.23,87.866 87.349,87.71C87.47,87.552 87.531,87.337 87.531,87.067C87.531,86.795 87.47,86.58 87.349,86.424C87.23,86.268 87.068,86.189 86.862,86.189M87.771,84.594L87.771,85.057C87.656,84.997 87.54,84.951 87.422,84.919C87.306,84.887 87.19,84.871 87.075,84.871C86.773,84.871 86.542,84.984 86.381,85.211C86.223,85.438 86.132,85.781 86.109,86.24C86.198,86.094 86.31,85.982 86.445,85.905C86.579,85.826 86.727,85.786 86.889,85.786C87.229,85.786 87.497,85.901 87.694,86.131C87.892,86.36 87.991,86.672 87.991,87.067C87.991,87.453 87.888,87.764 87.683,87.997C87.477,88.231 87.204,88.348 86.862,88.348C86.471,88.348 86.171,88.181 85.964,87.848C85.757,87.514 85.654,87.03 85.654,86.396C85.654,85.801 85.781,85.327 86.035,84.974C86.288,84.62 86.629,84.442 87.057,84.442C87.172,84.442 87.287,84.455 87.404,84.48C87.522,84.505 87.644,84.543 87.771,84.594M88.787,84.51L90.584,84.51L90.584,84.939L89.206,84.939L89.206,85.862C89.272,85.837 89.339,85.818 89.405,85.806C89.472,85.793 89.538,85.786 89.605,85.786C89.983,85.786 90.282,85.901 90.503,86.131C90.723,86.362 90.834,86.674 90.834,87.067C90.834,87.472 90.72,87.787 90.494,88.012C90.267,88.236 89.947,88.348 89.535,88.348C89.393,88.348 89.248,88.334 89.099,88.307C88.953,88.28 88.801,88.24 88.644,88.186L88.644,87.674C88.78,87.757 88.92,87.818 89.065,87.858C89.211,87.899 89.364,87.919 89.526,87.919C89.787,87.919 89.994,87.843 90.147,87.69C90.299,87.537 90.376,87.329 90.376,87.067C90.376,86.805 90.299,86.597 90.147,86.444C89.994,86.291 89.787,86.215 89.526,86.215C89.403,86.215 89.281,86.23 89.158,86.26C89.038,86.29 88.914,86.337 88.787,86.401L88.787,84.51M93.101,84.51L95.277,84.51L95.277,84.727L94.048,88.274L93.57,88.274L94.726,84.939L93.101,84.939L93.101,84.51M97.152,84.846C96.916,84.846 96.738,84.975 96.619,85.234C96.501,85.491 96.442,85.879 96.442,86.396C96.442,86.912 96.501,87.3 96.619,87.558C96.738,87.816 96.916,87.944 97.152,87.944C97.389,87.944 97.567,87.816 97.685,87.558C97.804,87.3 97.864,86.912 97.864,86.396C97.864,85.879 97.804,85.491 97.685,85.234C97.567,84.975 97.389,84.846 97.152,84.846M97.152,84.442C97.531,84.442 97.821,84.61 98.02,84.944C98.221,85.277 98.322,85.761 98.322,86.396C98.322,87.03 98.221,87.514 98.02,87.848C97.821,88.181 97.531,88.348 97.152,88.348C96.772,88.348 96.482,88.181 96.281,87.848C96.082,87.514 95.982,87.03 95.982,86.396C95.982,85.761 96.082,85.277 96.281,84.944C96.482,84.61 96.772,84.442 97.152,84.442M100.165,86.189C99.959,86.189 99.796,86.268 99.675,86.424C99.556,86.58 99.496,86.795 99.496,87.067C99.496,87.337 99.556,87.552 99.675,87.71C99.796,87.866 99.959,87.944 100.165,87.944C100.37,87.944 100.533,87.866 100.652,87.71C100.773,87.552 100.833,87.337 100.833,87.067C100.833,86.795 100.773,86.58 100.652,86.424C100.533,86.268 100.37,86.189 100.165,86.189M101.074,84.594L101.074,85.057C100.959,84.997 100.842,84.951 100.725,84.919C100.608,84.887 100.493,84.871 100.378,84.871C100.075,84.871 99.844,84.984 99.684,85.211C99.525,85.438 99.435,85.781 99.412,86.24C99.501,86.094 99.613,85.982 99.747,85.905C99.882,85.826 100.03,85.786 100.192,85.786C100.532,85.786 100.8,85.901 100.997,86.131C101.195,86.36 101.294,86.672 101.294,87.067C101.294,87.453 101.191,87.764 100.985,87.997C100.78,88.231 100.506,88.348 100.165,88.348C99.773,88.348 99.474,88.181 99.267,87.848C99.06,87.514 98.956,87.03 98.956,86.396C98.956,85.801 99.083,85.327 99.337,84.974C99.591,84.62 99.932,84.442 100.36,84.442C100.474,84.442 100.59,84.455 100.706,84.48C100.824,84.505 100.947,84.543 101.074,84.594M102.089,84.51L103.887,84.51L103.887,84.939L102.509,84.939L102.509,85.862C102.575,85.837 102.642,85.818 102.708,85.806C102.775,85.793 102.841,85.786 102.908,85.786C103.285,85.786 103.585,85.901 103.805,86.131C104.026,86.362 104.136,86.674 104.136,87.067C104.136,87.472 104.023,87.787 103.796,88.012C103.57,88.236 103.25,88.348 102.837,88.348C102.695,88.348 102.55,88.334 102.402,88.307C102.255,88.28 102.104,88.24 101.946,88.186L101.946,87.674C102.082,87.757 102.223,87.818 102.368,87.858C102.513,87.899 102.667,87.919 102.828,87.919C103.09,87.919 103.297,87.843 103.449,87.69C103.602,87.537 103.678,87.329 103.678,87.067C103.678,86.805 103.602,86.597 103.449,86.444C103.297,86.291 103.09,86.215 102.828,86.215C102.706,86.215 102.583,86.23 102.461,86.26C102.34,86.29 102.216,86.337 102.089,86.401L102.089,84.51M106.403,84.51L108.58,84.51L108.58,84.727L107.351,88.274L106.873,88.274L108.029,84.939L106.403,84.939L106.403,84.51M110.511,86.189C110.306,86.189 110.142,86.268 110.021,86.424C109.902,86.58 109.842,86.795 109.842,87.067C109.842,87.337 109.902,87.552 110.021,87.71C110.142,87.866 110.306,87.944 110.511,87.944C110.717,87.944 110.879,87.866 110.998,87.71C111.119,87.552 111.18,87.337 111.18,87.067C111.18,86.795 111.119,86.58 110.998,86.424C110.879,86.268 110.717,86.189 110.511,86.189M111.42,84.594L111.42,85.057C111.305,84.997 111.189,84.951 111.071,84.919C110.955,84.887 110.839,84.871 110.724,84.871C110.422,84.871 110.191,84.984 110.03,85.211C109.872,85.438 109.781,85.781 109.758,86.24C109.848,86.094 109.959,85.982 110.094,85.905C110.228,85.826 110.377,85.786 110.538,85.786C110.878,85.786 111.147,85.901 111.343,86.131C111.541,86.36 111.64,86.672 111.64,87.067C111.64,87.453 111.537,87.764 111.332,87.997C111.126,88.231 110.853,88.348 110.511,88.348C110.12,88.348 109.82,88.181 109.613,87.848C109.406,87.514 109.303,87.03 109.303,86.396C109.303,85.801 109.43,85.327 109.684,84.974C109.937,84.62 110.278,84.442 110.706,84.442C110.821,84.442 110.936,84.455 111.053,84.48C111.171,84.505 111.293,84.543 111.42,84.594M112.316,84.51L114.492,84.51L114.492,84.727L113.263,88.274L112.785,88.274L113.941,84.939L112.316,84.939L112.316,84.51M115.401,88.196L115.401,87.732C115.516,87.793 115.632,87.839 115.75,87.871C115.868,87.903 115.984,87.919 116.097,87.919C116.399,87.919 116.63,87.806 116.788,87.581C116.949,87.354 117.04,87.011 117.063,86.55C116.975,86.695 116.864,86.805 116.729,86.883C116.595,86.96 116.446,86.999 116.283,86.999C115.944,86.999 115.676,86.885 115.478,86.658C115.282,86.43 115.183,86.118 115.183,85.723C115.183,85.336 115.286,85.026 115.492,84.793C115.697,84.559 115.971,84.442 116.312,84.442C116.704,84.442 117.002,84.61 117.208,84.944C117.415,85.277 117.518,85.761 117.518,86.396C117.518,86.99 117.391,87.464 117.137,87.818C116.885,88.171 116.545,88.348 116.117,88.348C116.002,88.348 115.886,88.335 115.768,88.31C115.65,88.285 115.528,88.247 115.401,88.196M116.312,86.6C116.518,86.6 116.68,86.522 116.8,86.366C116.921,86.21 116.981,85.995 116.981,85.723C116.981,85.452 116.921,85.239 116.8,85.083C116.68,84.925 116.518,84.846 116.312,84.846C116.107,84.846 115.943,84.925 115.823,85.083C115.703,85.239 115.644,85.452 115.644,85.723C115.644,85.995 115.703,86.21 115.823,86.366C115.943,86.522 116.107,86.6 116.312,86.6M118.357,88.196L118.357,87.732C118.472,87.793 118.588,87.839 118.706,87.871C118.824,87.903 118.94,87.919 119.053,87.919C119.355,87.919 119.586,87.806 119.744,87.581C119.905,87.354 119.996,87.011 120.019,86.55C119.931,86.695 119.82,86.805 119.686,86.883C119.551,86.96 119.402,86.999 119.239,86.999C118.9,86.999 118.632,86.885 118.434,86.658C118.238,86.43 118.139,86.118 118.139,85.723C118.139,85.336 118.242,85.026 118.448,84.793C118.653,84.559 118.927,84.442 119.268,84.442C119.66,84.442 119.958,84.61 120.164,84.944C120.371,85.277 120.474,85.761 120.474,86.396C120.474,86.99 120.347,87.464 120.094,87.818C119.841,88.171 119.501,88.348 119.073,88.348C118.959,88.348 118.842,88.335 118.724,88.31C118.606,88.285 118.484,88.247 118.357,88.196M119.268,86.6C119.474,86.6 119.636,86.522 119.756,86.366C119.877,86.21 119.937,85.995 119.937,85.723C119.937,85.452 119.877,85.239 119.756,85.083C119.636,84.925 119.474,84.846 119.268,84.846C119.063,84.846 118.9,84.925 118.779,85.083C118.659,85.239 118.6,85.452 118.6,85.723C118.6,85.995 118.659,86.21 118.779,86.366C118.9,86.522 119.063,86.6 119.268,86.6" style="fill-rule:nonzero;"/>
        <path id="rect164" d="M56.629,24.352C56.629,23.701 56.101,23.173 55.45,23.173L20.185,23.173C19.534,23.173 19.006,23.701 19.006,24.352L19.006,65.53C19.006,66.18 19.534,66.708 20.185,66.708L55.45,66.708C56.101,66.708 56.629,66.18 56.629,65.53L56.629,24.352Z" style="fill:url(#_Linear5);"/>
        <g id="g166">
            <path id="path168" d="M52.266,66.816C53.44,63.493 52.467,56.908 44.857,51.787L30.639,51.787C23.029,56.514 22.078,62.979 23.83,66.757L52.266,66.816Z" style="fill:rgb(147,147,147);"/>
            <path id="path170" d="M47.6,44.532L47.6,44.538C47.6,49.833 43.17,54.19 37.787,54.19C32.404,54.19 27.975,49.833 27.975,44.538L27.975,44.532C27.975,39.238 32.404,34.881 37.787,34.881C43.17,34.881 47.6,39.238 47.6,44.532Z" style="fill:rgb(147,147,147);"/>
        </g>
        <path id="rect172" d="M133.59,19.469C133.59,15.764 130.582,12.756 126.877,12.756L19.469,12.756C15.764,12.756 12.756,15.764 12.756,19.469L12.756,89.377C12.756,93.082 15.764,96.09 19.469,96.09L126.877,96.09C130.582,96.09 133.59,93.082 133.59,89.377L133.59,19.469Z" style="fill:none;stroke:white;stroke-width:4.17px;"/>
    </g>
    <defs>
        <radialGradient id="_Radial1" cx="0" cy="0" r="1" gradientUnits="userSpaceOnUse" gradientTransform="matrix(17.5771,0,0,8.33332,122.271,98.1731)"><stop offset="0" style="stop-color:black;stop-opacity:1"/><stop offset="1" style="stop-color:black;stop-opacity:0"/></radialGradient>
        <radialGradient id="_Radial2" cx="0" cy="0" r="1" gradientUnits="userSpaceOnUse" gradientTransform="matrix(-17.5771,0,0,-8.33332,24.075,98.1731)"><stop offset="0" style="stop-color:black;stop-opacity:1"/><stop offset="1" style="stop-color:black;stop-opacity:0"/></radialGradient>
        <linearGradient id="_Linear3" x1="0" y1="0" x2="1" y2="0" gradientUnits="userSpaceOnUse" gradientTransform="matrix(1.02466e-15,-16.734,16.734,1.02466e-15,76.8858,106.572)"><stop offset="0" style="stop-color:black;stop-opacity:0"/><stop offset="0.5" style="stop-color:black;stop-opacity:1"/><stop offset="1" style="stop-color:black;stop-opacity:0"/></linearGradient>
        <linearGradient id="_Linear4" x1="0" y1="0" x2="1" y2="0" gradientUnits="userSpaceOnUse" gradientTransform="matrix(65.1572,109.589,-109.589,65.1572,33.075,-16.5895)"><stop offset="0" style="stop-color:white;stop-opacity:1"/><stop offset="1" style="stop-color:rgb(221,221,221);stop-opacity:1"/></linearGradient>
        <linearGradient id="_Linear5" x1="0" y1="0" x2="1" y2="0" gradientUnits="userSpaceOnUse" gradientTransform="matrix(-2.37256,60.492,-60.492,-2.37256,34.3378,17.9821)"><stop offset="0" style="stop-color:rgb(158,158,158);stop-opacity:1"/><stop offset="1" style="stop-color:rgb(221,221,221);stop-opacity:0"/></linearGradient>
    </defs>
</svg>
