<?xml version="1.0" encoding="UTF-8" standalone="no"?>
<!DOCTYPE svg PUBLIC "-//W3C//DTD SVG 1.1//EN" "http://www.w3.org/Graphics/SVG/1.1/DTD/svg11.dtd">
<svg width="100%" height="100%" viewBox="0 0 64 64" version="1.1" xmlns="http://www.w3.org/2000/svg" xmlns:xlink="http://www.w3.org/1999/xlink" xml:space="preserve" xmlns:serif="http://www.serif.com/" style="fill-rule:evenodd;clip-rule:evenodd;">
    <g id="g32" transform="matrix(0.550311,0,0,0.550311,5.24637,-0.727169)">
        <path id="path56" d="M24.858,18.34L58.768,75.188L27.36,12.92L24.858,18.34Z" style="fill:white;fill-opacity:0.6;"/>
        <path id="path4906" d="M73.615,93.152C73.615,100.009 63.27,105.652 50.699,105.652C38.127,105.652 27.782,100.009 27.782,93.152C27.782,86.294 38.127,80.651 50.699,80.651C63.27,80.651 73.615,86.294 73.615,93.152Z" style="fill:url(#_Radial1);fill-rule:nonzero;"/>
        <path id="path59" d="M23.423,10.235C23.423,10.235 17.483,16.834 17.366,33.57C17.248,50.453 53.846,84.247 53.846,84.247L59.549,79.533L23.423,10.235Z" style="fill:rgb(217,214,208);stroke:rgb(136,138,133);stroke-width:4.17px;"/>
        <path id="path61" d="M24.482,17.294C24.482,17.294 21.926,22.148 21.536,33.867C21.145,45.691 53.087,80.763 53.087,80.763L55.954,79.217L24.482,17.294Z" style="fill:none;stroke:white;stroke-opacity:0.4;stroke-width:4.17px;"/>
        <path id="path63" d="M19.449,23.389L53.95,77.652L56.082,75.984L23.277,13.716L19.449,23.389Z" style="fill:white;fill-opacity:0.8;"/>
        <path id="path3122" d="M48.615,103.568C48.615,109.283 38.27,113.985 25.699,113.985C13.127,113.985 2.782,109.283 2.782,103.568C2.782,97.854 13.127,93.151 25.699,93.151C38.27,93.151 48.615,97.854 48.615,103.568Z" style="fill:url(#_Radial2);fill-rule:nonzero;"/>
        <path id="path4009" d="M94.449,103.568C94.449,109.283 85.044,113.985 73.615,113.985C62.187,113.985 52.782,109.283 52.782,103.568C52.782,97.854 62.187,93.151 73.615,93.151C85.044,93.151 94.449,97.854 94.449,103.568Z" style="fill:url(#_Radial3);fill-rule:nonzero;"/>
        <path id="path67" d="M70.142,107.592C79.941,107.446 83.89,100.211 83.89,91.117C83.89,82.592 78.447,75.573 71.516,74.729L58.627,74.643L50.893,82.108C52.751,85.705 56.156,88.78 56.221,91.546C56.352,97.327 60.346,107.737 70.142,107.592ZM71.332,99.099C66.877,99.347 63.125,95.483 62.958,91.632L62.461,80.193L69.408,80.279C76.357,80.667 76.226,90.837 76.053,93.207C75.89,95.428 74.209,98.939 71.332,99.099Z" style="fill:rgb(239,41,41);fill-rule:nonzero;stroke:rgb(164,0,0);stroke-width:4.45px;stroke-linecap:round;"/>
        <path id="path69" d="M73.649,8.59C73.649,8.59 79.902,16.057 79.865,31.851C79.829,47.644 43.369,83.104 43.369,83.104L36.574,77.668L73.649,8.59Z" style="fill:rgb(217,214,208);stroke:rgb(136,138,133);stroke-width:4.17px;"/>
        <path id="path71" d="M72.669,15.163C72.669,15.163 75.294,20.017 75.695,31.737C76.096,43.56 43.284,78.633 43.284,78.633L40.338,77.087L72.669,15.163Z" style="fill:none;stroke:white;stroke-opacity:0.4;stroke-width:4.17px;"/>
        <path id="path73" d="M24.205,107.592C13.492,107.446 9.174,100.211 9.174,91.117C9.174,82.592 15.125,75.573 22.702,74.729L36.793,74.643L45.248,82.108C43.217,85.705 39.494,88.78 39.424,91.546C39.28,97.327 34.914,107.737 24.205,107.592ZM24.111,99.221C27.846,99.221 30.095,95.486 30.031,91.632L29.841,80.306L23.171,80.392C18.795,80.955 16.7,85.78 16.7,91.463C16.7,97.526 20.575,99.647 24.111,99.221Z" style="fill:rgb(239,41,41);fill-rule:nonzero;stroke:rgb(164,0,0);stroke-width:4.45px;stroke-linecap:round;"/>
        <path id="path75" d="M77.782,21.414L42.226,75.678L40.028,74.01L73.837,11.741L77.782,21.414Z" style="fill:white;fill-opacity:0.8;"/>
        <path id="path77" d="M25.301,103.526C17.126,103.417 14.751,98.16 14.751,91.339C14.751,84.943 18.372,79.508 24.154,78.874L34.907,78.81L39.756,82.949C38.12,85.259 35.441,87.703 35.387,89.779C35.278,94.115 33.473,103.635 25.301,103.526Z" style="fill:none;fill-rule:nonzero;stroke:white;stroke-opacity:0.2;stroke-width:4.45px;stroke-linecap:round;"/>
        <path id="path79" d="M69.877,103.526C77.508,103.417 79.724,97.819 79.724,90.997C79.724,84.602 76.344,79.508 70.948,78.874L60.911,78.81L56.385,83.12C57.913,85.429 60.413,87.703 60.463,89.779C60.565,94.115 62.25,103.635 69.877,103.526Z" style="fill:none;fill-rule:nonzero;stroke:white;stroke-opacity:0.2;stroke-width:4.45px;stroke-linecap:round;"/>
        <path id="path81" d="M50.992,68.599C50.992,70.548 49.385,72.153 47.432,72.153C45.478,72.153 43.871,70.548 43.871,68.599C43.871,66.649 45.478,65.045 47.432,65.045C49.385,65.045 50.992,66.649 50.992,68.599Z" style="fill:white;fill-rule:nonzero;stroke:rgb(136,138,133);stroke-width:4.17px;"/>
        <path id="path83" d="M40.095,67.464L46.164,55.865L44.098,51.999L40.095,67.464Z" style="fill-opacity:0.16;fill-rule:nonzero;"/>
        <path id="path85" d="M61.115,82.742C61.115,81.551 60.133,80.57 58.94,80.57C57.746,80.57 56.764,81.551 56.764,82.742C56.764,83.933 57.746,84.914 58.94,84.914C60.133,84.914 61.115,83.933 61.115,82.742Z" style="fill:white;fill-opacity:0.65;fill-rule:nonzero;"/>
        <path id="path87" d="M19.449,82.835C19.449,81.692 18.508,80.752 17.365,80.752C16.223,80.752 15.282,81.692 15.282,82.835C15.282,83.978 16.223,84.918 17.365,84.918C18.508,84.918 19.449,83.978 19.449,82.835Z" style="fill:white;fill-opacity:0.65;fill-rule:nonzero;"/>
        <path id="path89" d="M49.397,65.932C49.397,67.495 48.109,68.781 46.543,68.781C44.977,68.781 43.688,67.495 43.688,65.932C43.688,64.369 44.977,63.083 46.543,63.083C48.109,63.083 49.397,64.369 49.397,65.932Z" style="fill:white;fill-rule:nonzero;"/>
    </g>
    <defs>
        <radialGradient id="_Radial1" cx="0" cy="0" r="1" gradientUnits="userSpaceOnUse" gradientTransform="matrix(22.9167,0,0,12.5,50.6987,93.1516)"><stop offset="0" style="stop-color:black;stop-opacity:0.1"/><stop offset="1" style="stop-color:black;stop-opacity:0"/></radialGradient>
        <radialGradient id="_Radial2" cx="0" cy="0" r="1" gradientUnits="userSpaceOnUse" gradientTransform="matrix(22.9167,0,0,10.4167,25.6987,103.568)"><stop offset="0" style="stop-color:black;stop-opacity:0.5"/><stop offset="1" style="stop-color:black;stop-opacity:0"/></radialGradient>
        <radialGradient id="_Radial3" cx="0" cy="0" r="1" gradientUnits="userSpaceOnUse" gradientTransform="matrix(20.8334,0,0,10.4167,73.6154,103.568)"><stop offset="0" style="stop-color:black;stop-opacity:0.5"/><stop offset="1" style="stop-color:black;stop-opacity:0"/></radialGradient>
    </defs>
</svg>
