<?xml version="1.0" encoding="UTF-8" standalone="no"?>
<!DOCTYPE svg PUBLIC "-//W3C//DTD SVG 1.1//EN" "http://www.w3.org/Graphics/SVG/1.1/DTD/svg11.dtd">
<svg width="100%" height="100%" viewBox="0 0 64 64" version="1.1" xmlns="http://www.w3.org/2000/svg" xmlns:xlink="http://www.w3.org/1999/xlink" xml:space="preserve" xmlns:serif="http://www.serif.com/" style="fill-rule:evenodd;clip-rule:evenodd;">
    <g id="g32" transform="matrix(0.438858,0,0,0.438858,-1.02693,1.23802)">
        <g id="g2977" opacity="0.6">
            <g id="g2960" opacity="0.6">
                <path id="path2962" d="M114.84,64.887C114.84,83.199 93.209,98.268 66.923,98.268C40.637,98.268 19.006,83.199 19.006,64.887C19.006,46.575 40.637,31.506 66.923,31.506C93.209,31.506 114.84,46.575 114.84,64.887Z" style="fill:url(#_Radial1);fill-rule:nonzero;"/>
                <path id="path2964" d="M45.382,8.59C34.229,8.59 25.256,16.17 25.256,25.593L25.256,54.117C25.256,63.539 34.229,71.12 45.382,71.12L56.986,71.12L90.434,70.083C98.423,67.83 104.423,61.643 104.423,54.117L104.423,25.593C104.423,16.17 95.205,8.59 84.053,8.59L45.382,8.59Z" style="fill:url(#_Linear2);stroke:rgb(136,138,133);stroke-width:4.17px;"/>
                <path id="path2966" d="M68.415,48.583L62.355,48.583L62.355,44.513C62.355,42.733 62.651,41.27 63.243,40.125C63.835,38.98 65.083,37.649 66.987,36.134L69.842,33.781C71.048,32.848 71.915,31.967 72.444,31.138C72.994,30.31 73.269,29.464 73.269,28.601C73.269,27.033 72.571,25.764 71.175,24.795C69.8,23.826 67.97,23.341 65.686,23.341C64.015,23.341 62.228,23.65 60.324,24.266C58.442,24.883 56.475,25.782 54.423,26.962L54.423,21.993C56.411,20.989 58.421,20.24 60.451,19.747C62.503,19.253 64.618,19.007 66.796,19.006C70.688,19.007 73.808,19.861 76.156,21.57C78.525,23.28 79.709,25.535 79.709,28.337C79.709,29.676 79.328,30.953 78.567,32.169C77.806,33.367 76.473,34.724 74.569,36.24L71.778,38.513C70.783,39.341 70.075,39.993 69.652,40.469C69.25,40.927 68.964,41.376 68.795,41.817C68.668,42.187 68.573,42.636 68.51,43.165C68.446,43.693 68.414,44.416 68.415,45.332L68.415,48.583" style="fill:rgb(114,159,207);fill-rule:nonzero;"/>
                <path id="path2968" d="M60.945,53.016L68.988,53.016L68.988,60.675L60.945,60.675L60.945,53.016" style="fill:rgb(114,159,207);fill-rule:nonzero;"/>
                <path id="path2970" d="M45.367,12.756C36.11,12.756 29.423,18.848 29.423,25.647L29.423,54.163C29.423,60.962 36.078,66.923 45.367,66.923L56.998,66.923C57.786,66.927 58.556,67.152 59.22,67.574L86.273,70.439C86.062,68.431 87.33,66.564 89.279,66.012C95.902,64.146 100.256,59.495 100.256,54.163L100.256,25.647C100.256,18.925 93.308,12.756 84.051,12.756L45.367,12.756Z" style="fill:none;stroke:white;stroke-width:4.17px;"/>
            </g>
            <g id="g2944">
                <path id="path2946" d="M148.173,77.387C148.173,95.699 126.543,110.768 100.256,110.768C73.97,110.768 52.34,95.699 52.34,77.387C52.34,59.075 73.97,44.006 100.256,44.006C126.543,44.006 148.173,59.075 148.173,77.387Z" style="fill:url(#_Radial3);fill-rule:nonzero;"/>
                <path id="path2948" d="M78.715,21.09C67.562,21.09 58.59,28.67 58.59,38.093L58.59,66.617C58.59,76.039 67.562,83.62 78.715,83.62L90.319,83.62L126.291,106.506L123.767,82.583C131.756,80.33 137.756,74.143 137.756,66.617L137.756,38.093C137.756,28.67 128.539,21.09 117.386,21.09L78.715,21.09Z" style="fill:url(#_Linear4);stroke:rgb(136,138,133);stroke-width:4.17px;"/>
                <path id="path2950" d="M101.748,61.083L95.688,61.083L95.688,57.013C95.688,55.233 95.984,53.77 96.576,52.625C97.169,51.48 98.417,50.149 100.32,48.634L103.176,46.281C104.381,45.348 105.248,44.467 105.777,43.638C106.327,42.81 106.602,41.964 106.602,41.101C106.602,39.533 105.904,38.264 104.508,37.295C103.133,36.326 101.304,35.841 99.019,35.841C97.348,35.841 95.561,36.15 93.658,36.766C91.775,37.383 89.808,38.282 87.756,39.462L87.756,34.493C89.745,33.489 91.754,32.74 93.784,32.247C95.836,31.753 97.951,31.507 100.13,31.506C104.022,31.507 107.141,32.361 109.489,34.07C111.858,35.78 113.042,38.035 113.042,40.837C113.042,42.176 112.662,43.453 111.9,44.669C111.139,45.867 109.806,47.224 107.903,48.74L105.111,51.013C104.117,51.841 103.408,52.493 102.985,52.969C102.583,53.427 102.298,53.876 102.129,54.317C102.002,54.687 101.906,55.136 101.843,55.665C101.78,56.193 101.748,56.916 101.748,57.832L101.748,61.083" style="fill:rgb(114,159,207);fill-rule:nonzero;"/>
                <path id="path2952" d="M94.279,65.516L102.321,65.516L102.321,73.175L94.279,73.175L94.279,65.516" style="fill:rgb(114,159,207);fill-rule:nonzero;"/>
                <path id="path2954" d="M78.7,25.256C69.444,25.256 62.756,31.348 62.756,38.147L62.756,66.663C62.756,73.462 69.411,79.423 78.7,79.423L90.332,79.423C91.119,79.427 91.89,79.652 92.554,80.074L121.305,98.303L119.606,82.939C119.395,80.931 120.663,79.064 122.612,78.512C129.236,76.646 133.59,71.995 133.59,66.663L133.59,38.147C133.59,31.425 126.641,25.256 117.384,25.256L78.7,25.256Z" style="fill:none;stroke:white;stroke-width:4.17px;"/>
            </g>
        </g>
        <g id="g2937">
            <path id="path86" d="M98.173,98.22C98.173,116.533 76.543,131.601 50.256,131.601C23.97,131.601 2.34,116.533 2.34,98.22C2.34,79.908 23.97,64.84 50.256,64.84C76.543,64.84 98.173,79.908 98.173,98.22Z" style="fill:url(#_Radial5);fill-rule:nonzero;"/>
            <path id="path88" d="M28.715,41.923C17.562,41.923 8.59,49.504 8.59,58.926L8.59,87.45C8.59,96.873 17.562,104.453 28.715,104.453L40.319,104.453L76.291,127.34L73.767,103.417C81.756,101.164 87.756,94.976 87.756,87.45L87.756,58.926C87.756,49.504 78.539,41.923 67.386,41.923L28.715,41.923Z" style="fill:url(#_Linear6);stroke:rgb(136,138,133);stroke-width:4.17px;"/>
            <path id="path90" d="M51.748,81.916L45.688,81.916L45.688,77.846C45.688,76.066 45.984,74.604 46.576,73.458C47.169,72.313 48.417,70.983 50.32,69.467L53.176,67.115C54.381,66.181 55.248,65.3 55.777,64.472C56.327,63.644 56.602,62.798 56.602,61.934C56.602,60.366 55.904,59.097 54.508,58.128C53.133,57.159 51.304,56.675 49.019,56.675C47.348,56.675 45.561,56.983 43.658,57.6C41.775,58.216 39.808,59.115 37.756,60.296L37.756,55.327C39.745,54.322 41.754,53.573 43.784,53.08C45.836,52.587 47.951,52.34 50.13,52.34C54.022,52.34 57.141,53.194 59.489,54.904C61.858,56.613 63.042,58.868 63.042,61.67C63.042,63.009 62.662,64.287 61.9,65.503C61.139,66.701 59.806,68.058 57.903,69.573L55.111,71.846C54.117,72.674 53.408,73.326 52.985,73.802C52.583,74.26 52.298,74.709 52.129,75.15C52.002,75.52 51.906,75.969 51.843,76.498C51.78,77.027 51.748,77.749 51.748,78.665L51.748,81.916" style="fill:rgb(114,159,207);fill-rule:nonzero;"/>
            <path id="path92" d="M44.279,86.349L52.321,86.349L52.321,94.008L44.279,94.008L44.279,86.349" style="fill:rgb(114,159,207);fill-rule:nonzero;"/>
            <path id="path2931" d="M28.7,46.09C19.444,46.09 12.756,52.181 12.756,58.98L12.756,87.496C12.756,94.295 19.411,100.256 28.7,100.256L40.332,100.256C41.119,100.26 41.89,100.486 42.554,100.908L71.305,119.137L69.606,103.772C69.395,101.765 70.663,99.897 72.612,99.345C79.236,97.479 83.59,92.828 83.59,87.496L83.59,58.98C83.59,52.258 76.641,46.09 67.384,46.09L28.7,46.09Z" style="fill:none;stroke:white;stroke-width:4.17px;"/>
        </g>
    </g>
    <defs>
        <radialGradient id="_Radial1" cx="0" cy="0" r="1" gradientUnits="userSpaceOnUse" gradientTransform="matrix(47.9167,0,0,33.3807,66.9231,64.8872)"><stop offset="0" style="stop-color:black;stop-opacity:0.15"/><stop offset="1" style="stop-color:black;stop-opacity:0"/></radialGradient>
        <linearGradient id="_Linear2" x1="0" y1="0" x2="1" y2="0" gradientUnits="userSpaceOnUse" gradientTransform="matrix(2.50282e-15,40.8742,-40.8742,2.50282e-15,31.5299,18.1886)"><stop offset="0" style="stop-color:rgb(238,238,236);stop-opacity:1"/><stop offset="1" style="stop-color:white;stop-opacity:1"/></linearGradient>
        <radialGradient id="_Radial3" cx="0" cy="0" r="1" gradientUnits="userSpaceOnUse" gradientTransform="matrix(47.9167,0,0,33.3807,100.256,77.3872)"><stop offset="0" style="stop-color:black;stop-opacity:0.15"/><stop offset="1" style="stop-color:black;stop-opacity:0"/></radialGradient>
        <linearGradient id="_Linear4" x1="0" y1="0" x2="1" y2="0" gradientUnits="userSpaceOnUse" gradientTransform="matrix(2.50282e-15,40.8742,-40.8742,2.50282e-15,64.8632,30.6886)"><stop offset="0" style="stop-color:rgb(238,238,236);stop-opacity:1"/><stop offset="1" style="stop-color:white;stop-opacity:1"/></linearGradient>
        <radialGradient id="_Radial5" cx="0" cy="0" r="1" gradientUnits="userSpaceOnUse" gradientTransform="matrix(47.9167,0,0,33.3807,50.2565,98.2205)"><stop offset="0" style="stop-color:black;stop-opacity:0.15"/><stop offset="1" style="stop-color:black;stop-opacity:0"/></radialGradient>
        <linearGradient id="_Linear6" x1="0" y1="0" x2="1" y2="0" gradientUnits="userSpaceOnUse" gradientTransform="matrix(2.50282e-15,40.8742,-40.8742,2.50282e-15,14.8632,51.522)"><stop offset="0" style="stop-color:rgb(238,238,236);stop-opacity:1"/><stop offset="1" style="stop-color:white;stop-opacity:1"/></linearGradient>
    </defs>
</svg>
