<?xml version="1.0" encoding="UTF-8" standalone="no"?>
<!DOCTYPE svg PUBLIC "-//W3C//DTD SVG 1.1//EN" "http://www.w3.org/Graphics/SVG/1.1/DTD/svg11.dtd">
<svg width="100%" height="100%" viewBox="0 0 64 64" version="1.1" xmlns="http://www.w3.org/2000/svg" xmlns:xlink="http://www.w3.org/1999/xlink" xml:space="preserve" xmlns:serif="http://www.serif.com/" style="fill-rule:evenodd;clip-rule:evenodd;stroke-linecap:round;">
    <g id="g4399" transform="matrix(0.453871,0,0,0.453871,-18.1646,-12.2483)">
        <g id="g4267" opacity="0.16">
            <path id="path4269" d="M44.428,137.533C44.428,143.643 56.345,148.67 70.828,148.67C85.31,148.67 97.227,143.643 97.227,137.533C97.227,131.424 85.31,126.396 70.828,126.396C56.345,126.396 44.428,131.424 44.428,137.533Z" style="fill:url(#_Radial1);fill-rule:nonzero;"/>
        </g>
        <g id="g4311">
            <path id="path4313" d="M101.795,126.795L80.962,126.795C69.456,126.795 60.129,117.468 60.129,105.962C60.129,94.456 69.456,85.129 80.962,85.129L143.462,85.129M130.962,60.129L155.962,85.129L130.962,110.129" style="fill:none;fill-rule:nonzero;stroke:url(#_Linear2);stroke-width:29.17px;"/>
            <path id="path4315" d="M101.795,126.795L80.962,126.795C69.456,126.795 60.129,117.468 60.129,105.962C60.129,94.456 69.456,85.129 80.962,85.129L143.462,85.129M130.962,60.129L155.962,85.129L130.962,110.129" style="fill:none;fill-rule:nonzero;stroke:url(#_Linear3);stroke-width:20.83px;"/>
            <path id="path4317" d="M131.092,51.665C133.242,51.75 135.344,52.706 136.821,54.269L167.811,85.129L136.821,115.988C133.897,119.617 127.735,119.948 124.439,116.652C121.143,113.356 121.473,107.194 125.103,104.269L135.91,93.462L80.962,93.462C73.96,93.462 68.462,98.96 68.462,105.962C68.462,112.964 73.96,118.462 80.962,118.462L101.795,118.462C106.198,118.4 110.247,122.392 110.247,126.795C110.247,131.198 106.198,135.191 101.795,135.129L80.962,135.129C64.952,135.129 51.795,121.972 51.795,105.962C51.795,89.952 64.952,76.795 80.962,76.795L135.91,76.795L125.103,65.988C122.71,63.674 121.923,59.853 123.207,56.782C124.491,53.711 127.764,51.587 131.092,51.665Z" style="fill:none;fill-rule:nonzero;stroke:white;stroke-opacity:0.3;stroke-width:4.17px;stroke-linecap:butt;"/>
            <path id="path4319" d="M123.207,56.782C124.491,53.711 127.764,51.587 131.092,51.665C133.242,51.75 135.344,52.706 136.821,54.269L167.811,85.129M101.795,135.129L80.962,135.129C64.952,135.129 51.795,121.972 51.795,105.962C51.795,89.952 64.952,76.795 80.962,76.795L135.91,76.795" style="fill:none;fill-rule:nonzero;stroke:url(#_Linear4);stroke-width:4.17px;"/>
            <path id="path4321" d="M80.962,93.462C73.96,93.462 68.462,98.96 68.462,105.962C68.462,112.964 73.96,118.462 80.962,118.462L101.795,118.462C106.198,118.4 110.247,122.392 110.247,126.795" style="fill:none;fill-rule:nonzero;stroke:url(#_Linear5);stroke-width:4.17px;"/>
            <path id="path4323" d="M124.439,116.652C121.143,113.356 121.473,107.194 125.103,104.269L135.91,93.462" style="fill:none;fill-rule:nonzero;stroke:url(#_Radial6);stroke-width:4.17px;"/>
        </g>
    </g>
    <defs>
        <radialGradient id="_Radial1" cx="0" cy="0" r="1" gradientUnits="userSpaceOnUse" gradientTransform="matrix(-26.3994,0,0,11.137,70.8275,137.533)"><stop offset="0" style="stop-color:black;stop-opacity:1"/><stop offset="1" style="stop-color:black;stop-opacity:0"/></radialGradient>
        <linearGradient id="_Linear2" x1="0" y1="0" x2="1" y2="0" gradientUnits="userSpaceOnUse" gradientTransform="matrix(3.11009e-15,-50.7916,50.7916,3.11009e-15,108.045,137.217)"><stop offset="0" style="stop-color:rgb(58,116,4);stop-opacity:1"/><stop offset="1" style="stop-color:rgb(78,154,6);stop-opacity:1"/></linearGradient>
        <linearGradient id="_Linear3" x1="0" y1="0" x2="1" y2="0" gradientUnits="userSpaceOnUse" gradientTransform="matrix(5.20564e-15,-85.0145,85.0145,5.20564e-15,108.045,128.771)"><stop offset="0" style="stop-color:rgb(138,226,52);stop-opacity:1"/><stop offset="0.31" style="stop-color:rgb(115,210,22);stop-opacity:1"/><stop offset="0.57" style="stop-color:rgb(159,231,89);stop-opacity:1"/><stop offset="1" style="stop-color:white;stop-opacity:1"/></linearGradient>
        <linearGradient id="_Linear4" x1="0" y1="0" x2="1" y2="0" gradientUnits="userSpaceOnUse" gradientTransform="matrix(1.86568e-15,30.4688,-30.4688,1.86568e-15,49.712,89.4895)"><stop offset="0" style="stop-color:white;stop-opacity:0.5"/><stop offset="1" style="stop-color:white;stop-opacity:0"/></linearGradient>
        <linearGradient id="_Linear5" x1="0" y1="0" x2="1" y2="0" gradientUnits="userSpaceOnUse" gradientTransform="matrix(5.59217e-16,-9.13271,9.13271,5.59217e-16,92.789,105.607)"><stop offset="0" style="stop-color:white;stop-opacity:0.5"/><stop offset="1" style="stop-color:white;stop-opacity:0"/></linearGradient>
        <radialGradient id="_Radial6" cx="0" cy="0" r="1" gradientUnits="userSpaceOnUse" gradientTransform="matrix(-143.503,0,0,13.6782,123.833,109.049)"><stop offset="0" style="stop-color:white;stop-opacity:0.5"/><stop offset="1" style="stop-color:white;stop-opacity:0"/></radialGradient>
    </defs>
</svg>
