<?xml version="1.0" encoding="UTF-8" standalone="no"?>
<!DOCTYPE svg PUBLIC "-//W3C//DTD SVG 1.1//EN" "http://www.w3.org/Graphics/SVG/1.1/DTD/svg11.dtd">
<svg width="100%" height="100%" viewBox="0 0 64 64" version="1.1" xmlns="http://www.w3.org/2000/svg" xmlns:xlink="http://www.w3.org/1999/xlink" xml:space="preserve" xmlns:serif="http://www.serif.com/" style="fill-rule:evenodd;clip-rule:evenodd;stroke-linecap:round;">
    <g id="g32" transform="matrix(0.49581,0,0,0.49581,-7.24686,-6.8359)">
        <path id="path96" d="M61.525,41.853C61.525,50.5 49.672,65.198 46.412,57.518C40.143,42.748 30.796,56.048 26.376,47.294C22.009,38.647 42.584,38.169 44.598,30.073C47.499,18.413 61.525,33.205 61.525,41.853Z" style="fill:none;fill-rule:nonzero;stroke:rgb(233,185,110);stroke-width:12.5px;"/>
        <path id="path98" d="M128.016,45.355C138.659,51.406 120.245,57.518 111.902,57.518C103.56,57.518 96.789,50.5 96.789,41.853C96.789,33.205 108.864,25.642 116.656,30.94C124.332,36.16 117.246,39.232 128.016,45.355Z" style="fill:none;fill-rule:nonzero;stroke:rgb(233,185,110);stroke-width:12.5px;"/>
        <path id="path100" d="M139.664,114.437C139.664,123.522 112.574,130.887 79.157,130.887C45.74,130.887 18.65,123.522 18.65,114.437C18.65,105.353 45.74,97.988 79.157,97.988C112.574,97.988 139.664,105.353 139.664,114.437Z" style="fill:url(#_Radial1);fill-rule:nonzero;"/>
        <path id="path102" d="M61.525,109.738C52.46,112.618 51.364,131.961 44.212,126.612C36.649,120.954 45.587,110.84 33.755,112.445C21.976,114.042 29.899,97.752 46.412,94.072C54.555,92.258 61.525,101.091 61.525,109.738Z" style="fill:none;fill-rule:nonzero;stroke:rgb(233,185,110);stroke-width:12.5px;"/>
        <path id="path104" d="M126.34,111.133C113.514,114.735 123.001,125.448 113.89,126.664C105.14,127.831 101.523,117.54 100.351,109.738C99.187,101.982 105.571,88.639 111.902,94.072C117.35,98.748 139.257,107.506 126.34,111.133Z" style="fill:none;fill-rule:nonzero;stroke:rgb(233,185,110);stroke-width:12.5px;"/>
        <path id="path106" d="M61.525,41.853C61.525,50.5 49.672,65.198 46.412,57.518C40.143,42.748 30.796,56.048 26.376,47.294C22.009,38.647 42.584,38.169 44.598,30.073C47.499,18.413 61.525,33.205 61.525,41.853Z" style="fill:none;fill-rule:nonzero;stroke:white;stroke-width:4.17px;"/>
        <path id="path108" d="M128.016,45.355C138.659,51.406 120.245,57.518 111.902,57.518C103.56,57.518 96.789,50.5 96.789,41.853C96.789,33.205 108.864,25.642 116.656,30.94C124.332,36.16 117.246,39.232 128.016,45.355Z" style="fill:none;fill-rule:nonzero;stroke:white;stroke-width:4.17px;"/>
        <path id="path110" d="M61.525,109.738C52.46,112.618 51.364,131.961 44.212,126.612C36.649,120.954 45.587,110.84 33.755,112.445C21.976,114.042 29.899,97.752 46.412,94.072C54.555,92.258 61.525,101.091 61.525,109.738Z" style="fill:none;fill-rule:nonzero;stroke:white;stroke-width:4.17px;"/>
        <path id="path112" d="M126.34,111.133C113.514,114.735 123.001,125.448 113.89,126.664C105.14,127.831 101.523,117.54 100.351,109.738C99.187,101.982 105.571,88.639 111.902,94.072C117.35,98.748 139.257,107.506 126.34,111.133Z" style="fill:none;fill-rule:nonzero;stroke:white;stroke-width:4.17px;"/>
        <path id="path114" d="M79.157,26.187C52.74,26.187 31.299,48.411 31.299,75.795C31.299,103.179 52.74,125.404 79.157,125.404C105.575,125.404 127.015,103.179 127.015,75.795C127.015,48.411 105.575,26.187 79.157,26.187ZM79.157,52.296C91.671,52.296 101.827,62.824 101.827,75.795C101.827,88.767 91.671,99.294 79.157,99.294C66.644,99.294 56.488,88.767 56.488,75.795C56.488,62.824 66.644,52.296 79.157,52.296Z" style="fill:url(#_Radial2);fill-rule:nonzero;stroke:url(#_Linear3);stroke-width:4.17px;stroke-linejoin:round;"/>
        <path id="path116" d="M59.951,30.429C49.01,35.425 40.212,44.546 35.392,55.887C45.454,55.768 51.991,60.936 58.377,66.331C60.659,60.978 64.862,56.62 70.026,54.255C68.21,45.211 65.048,37.13 59.951,30.429Z" style="fill:url(#_Linear4);"/>
        <path id="path118" d="M58.377,85.26C50.715,87.217 43.054,87.735 35.392,95.704C40.212,107.045 49.01,116.165 59.951,121.161C61.317,111.891 63.934,103.455 70.026,97.336C64.862,94.971 60.659,90.613 58.377,85.26Z" style="fill:url(#_Linear5);fill-rule:nonzero;"/>
        <path id="path120" d="M98.364,30.429C93.455,36.821 89.275,43.941 88.288,54.255C93.452,56.62 97.656,60.978 99.938,66.331C107.946,59.725 115.703,55.387 122.922,55.887C118.103,44.546 109.304,35.425 98.364,30.429Z" style="fill:url(#_Linear6);"/>
        <path id="path122" d="M99.938,85.26C97.656,90.613 93.452,94.971 88.288,97.336C93.38,103.545 96.433,111.791 98.364,121.161C109.304,116.165 118.103,107.045 122.922,95.704C117.473,89.569 109.335,86.659 99.938,85.26Z" style="fill:url(#_Linear7);"/>
        <path id="path124" d="M58.377,66.331C60.659,60.978 64.862,56.62 70.026,54.255M59.951,30.429C49.01,35.425 40.212,44.546 35.392,55.887" style="fill:none;fill-rule:nonzero;stroke:rgb(164,0,0);stroke-width:4.17px;"/>
        <path id="path126" d="M122.922,55.887C118.103,44.546 109.304,35.425 98.364,30.429M88.288,54.255C93.452,56.62 97.656,60.978 99.938,66.331" style="fill:none;fill-rule:nonzero;stroke:rgb(164,0,0);stroke-width:4.17px;"/>
        <path id="path128" d="M99.938,85.26C97.656,90.613 93.452,94.971 88.288,97.336M98.364,121.161C109.304,116.165 118.103,107.045 122.922,95.704" style="fill:none;fill-rule:nonzero;stroke:rgb(164,0,0);stroke-width:4.17px;"/>
        <path id="path130" d="M70.026,97.336C64.862,94.971 60.659,90.613 58.377,85.26M35.392,95.704C40.212,107.045 49.01,116.165 59.951,121.161" style="fill:none;fill-rule:nonzero;stroke:rgb(164,0,0);stroke-width:4.17px;"/>
        <path id="path132" d="M122.922,75.795C122.922,100.94 103.328,121.323 79.157,121.323C54.987,121.323 35.392,100.94 35.392,75.795C35.392,50.651 54.987,30.267 79.157,30.267C103.328,30.267 122.922,50.651 122.922,75.795Z" style="fill:none;fill-rule:nonzero;stroke:white;stroke-opacity:0.24;stroke-width:4.17px;"/>
        <path id="path134" d="M105.453,75.795C105.453,90.85 93.68,103.054 79.157,103.054C64.635,103.054 52.862,90.85 52.862,75.795C52.862,60.741 64.635,48.537 79.157,48.537C93.68,48.537 105.453,60.741 105.453,75.795Z" style="fill:none;fill-rule:nonzero;stroke:url(#_Radial8);stroke-width:4.17px;"/>
    </g>
    <defs>
        <radialGradient id="_Radial1" cx="0" cy="0" r="1" gradientUnits="userSpaceOnUse" gradientTransform="matrix(60.5071,0,0,16.4494,79.1573,114.437)"><stop offset="0" style="stop-color:black;stop-opacity:0.5"/><stop offset="1" style="stop-color:black;stop-opacity:0"/></radialGradient>
        <radialGradient id="_Radial2" cx="0" cy="0" r="1" gradientUnits="userSpaceOnUse" gradientTransform="matrix(49.1176,0,0,50.8682,79.1573,73.0344)"><stop offset="0" style="stop-color:rgb(238,238,236);stop-opacity:1"/><stop offset="0.57" style="stop-color:rgb(238,238,236);stop-opacity:1"/><stop offset="0.74" style="stop-color:white;stop-opacity:1"/><stop offset="1" style="stop-color:rgb(211,215,207);stop-opacity:1"/></radialGradient>
        <linearGradient id="_Linear3" x1="0" y1="0" x2="1" y2="0" gradientUnits="userSpaceOnUse" gradientTransform="matrix(-23.6869,-69.3535,69.3535,-23.6869,74.8549,96.67)"><stop offset="0" style="stop-color:rgb(136,138,133);stop-opacity:1"/><stop offset="1" style="stop-color:rgb(211,215,207);stop-opacity:1"/></linearGradient>
        <linearGradient id="_Linear4" x1="0" y1="0" x2="1" y2="0" gradientUnits="userSpaceOnUse" gradientTransform="matrix(-7.91945,-8.20914,8.20914,-7.91945,54.247,51.3131)"><stop offset="0" style="stop-color:rgb(239,41,41);stop-opacity:1"/><stop offset="1" style="stop-color:rgb(239,41,41);stop-opacity:0"/></linearGradient>
        <linearGradient id="_Linear5" x1="0" y1="0" x2="1" y2="0" gradientUnits="userSpaceOnUse" gradientTransform="matrix(8.52477,-8.8366,8.8366,8.52477,56.1363,101.735)"><stop offset="0" style="stop-color:rgb(239,41,41);stop-opacity:1"/><stop offset="1" style="stop-color:rgb(239,41,41);stop-opacity:0"/></linearGradient>
        <linearGradient id="_Linear6" x1="0" y1="0" x2="1" y2="0" gradientUnits="userSpaceOnUse" gradientTransform="matrix(10.7074,-11.0991,11.0991,10.7074,100.775,52.0022)"><stop offset="0" style="stop-color:rgb(239,41,41);stop-opacity:1"/><stop offset="1" style="stop-color:rgb(239,41,41);stop-opacity:0"/></linearGradient>
        <linearGradient id="_Linear7" x1="0" y1="0" x2="1" y2="0" gradientUnits="userSpaceOnUse" gradientTransform="matrix(-7.30231,-7.56941,7.56941,-7.30231,103.447,101.852)"><stop offset="0" style="stop-color:rgb(239,41,41);stop-opacity:1"/><stop offset="1" style="stop-color:rgb(239,41,41);stop-opacity:0"/></linearGradient>
        <radialGradient id="_Radial8" cx="0" cy="0" r="1" gradientUnits="userSpaceOnUse" gradientTransform="matrix(63.3084,0,0,65.8225,85.4324,95.0001)"><stop offset="0" style="stop-color:white;stop-opacity:0.8"/><stop offset="1" style="stop-color:white;stop-opacity:0"/></radialGradient>
    </defs>
</svg>
