<?xml version="1.0" encoding="UTF-8" standalone="no"?>
<!DOCTYPE svg PUBLIC "-//W3C//DTD SVG 1.1//EN" "http://www.w3.org/Graphics/SVG/1.1/DTD/svg11.dtd">
<svg width="100%" height="100%" viewBox="0 0 64 64" version="1.1" xmlns="http://www.w3.org/2000/svg" xmlns:xlink="http://www.w3.org/1999/xlink" xml:space="preserve" xmlns:serif="http://www.serif.com/" style="fill-rule:evenodd;clip-rule:evenodd;stroke-linecap:round;">
    <g transform="matrix(0.133585,0,0,0.133585,-20.373,-15.4766)">
        <g id="g11747">
            <g id="g11753">
                <path id="path11755" d="M563.038,354.704L302.621,354.704M354.704,250.538L250.538,354.704L354.704,458.871" style="fill:none;fill-rule:nonzero;stroke:url(#_Linear1);stroke-width:121.54px;"/>
                <path id="path11757" d="M563.038,354.704L302.621,354.704M354.704,250.538L250.538,354.704L354.704,458.871" style="fill:none;fill-rule:nonzero;stroke:url(#_Linear2);stroke-width:86.79px;"/>
                <path id="path11759" d="M354.158,215.271C345.204,215.625 336.446,219.608 330.288,226.121L201.167,354.704L330.288,483.283C342.475,498.404 368.15,499.783 381.883,486.05C395.617,472.317 394.242,446.642 379.117,434.454L334.088,389.425L556.25,389.425C585.425,389.425 597.917,372.513 597.917,354.167C597.917,335.821 586.267,319.979 556.25,319.979L334.087,319.979L379.117,274.95C389.088,265.308 392.367,249.387 387.012,236.592C381.662,223.796 368.025,214.946 354.158,215.271Z" style="fill:none;fill-rule:nonzero;stroke:white;stroke-opacity:0.3;stroke-width:17.38px;stroke-linecap:butt;"/>
                <path id="path11761" d="M387.013,236.592C381.662,223.796 368.025,214.946 354.158,215.271C345.204,215.625 336.446,219.608 330.287,226.121L201.167,354.704M563.038,319.979L334.087,319.979" style="fill:none;fill-rule:nonzero;stroke:url(#_Linear3);stroke-width:17.38px;"/>
                <path id="path11765" d="M381.883,486.05C395.617,472.317 394.242,446.642 379.117,434.454L334.088,389.425" style="fill:none;fill-rule:nonzero;stroke:url(#_Radial4);stroke-width:17.38px;"/>
            </g>
        </g>
    </g>
    <defs>
        <linearGradient id="_Linear1" x1="0" y1="0" x2="1" y2="0" gradientUnits="userSpaceOnUse" gradientTransform="matrix(1.29587e-14,-211.632,211.632,1.29587e-14,450.188,571.738)"><stop offset="0" style="stop-color:rgb(58,116,4);stop-opacity:1"/><stop offset="1" style="stop-color:rgb(78,154,6);stop-opacity:1"/></linearGradient>
        <linearGradient id="_Linear2" x1="0" y1="0" x2="1" y2="0" gradientUnits="userSpaceOnUse" gradientTransform="matrix(2.16901e-14,-354.227,354.227,2.16901e-14,450.188,536.546)"><stop offset="0" style="stop-color:rgb(138,226,52);stop-opacity:1"/><stop offset="0.31" style="stop-color:rgb(115,210,22);stop-opacity:1"/><stop offset="0.57" style="stop-color:rgb(159,231,89);stop-opacity:1"/><stop offset="1" style="stop-color:white;stop-opacity:1"/></linearGradient>
        <linearGradient id="_Linear3" x1="0" y1="0" x2="1" y2="0" gradientUnits="userSpaceOnUse" gradientTransform="matrix(7.77363e-15,126.953,-126.953,7.77363e-15,693.246,372.873)"><stop offset="0" style="stop-color:white;stop-opacity:0.5"/><stop offset="1" style="stop-color:white;stop-opacity:0"/></linearGradient>
        <radialGradient id="_Radial4" cx="0" cy="0" r="1" gradientUnits="userSpaceOnUse" gradientTransform="matrix(597.929,0,0,56.9925,384.407,454.371)"><stop offset="0" style="stop-color:white;stop-opacity:0.5"/><stop offset="1" style="stop-color:white;stop-opacity:0"/></radialGradient>
    </defs>
</svg>
