<?xml version="1.0" encoding="UTF-8" standalone="no"?><!DOCTYPE svg PUBLIC "-//W3C//DTD SVG 1.1//EN" "http://www.w3.org/Graphics/SVG/1.1/DTD/svg11.dtd"><svg width="100%" height="100%" viewBox="0 0 217 187" version="1.1" xmlns="http://www.w3.org/2000/svg" xmlns:xlink="http://www.w3.org/1999/xlink" xml:space="preserve" xmlns:serif="http://www.serif.com/" style="fill-rule:evenodd;clip-rule:evenodd;stroke-linecap:round;"><g id="g4399"><g id="g4267" opacity="0.16"><path id="path4269" d="M44.428,137.533c0,6.11 11.917,11.137 26.4,11.137c14.482,0 26.399,-5.027 26.399,-11.137c-0,-6.109 -11.917,-11.137 -26.399,-11.137c-14.483,0 -26.4,5.028 -26.4,11.137Z" style="fill:url(#_Radial1);fill-rule:nonzero;"/></g><g id="g4311"><path id="path4313" d="M101.795,126.795l-20.833,0c-11.506,0 -20.833,-9.327 -20.833,-20.833c-0,-11.506 9.327,-20.833 20.833,-20.833l62.5,-0m-12.5,-25l25,25l-25,25" style="fill:none;fill-rule:nonzero;stroke:url(#_Linear2);stroke-width:29.17px;"/><path id="path4315" d="M101.795,126.795l-20.833,0c-11.506,0 -20.833,-9.327 -20.833,-20.833c-0,-11.506 9.327,-20.833 20.833,-20.833l62.5,-0m-12.5,-25l25,25l-25,25" style="fill:none;fill-rule:nonzero;stroke:url(#_Linear3);stroke-width:20.83px;"/><path id="path4317" d="M131.092,51.665c2.15,0.085 4.252,1.041 5.729,2.604l30.99,30.86l-30.99,30.859c-2.924,3.629 -9.086,3.96 -12.382,0.664c-3.296,-3.296 -2.966,-9.458 0.664,-12.383l10.807,-10.807l-54.948,-0c-7.002,-0 -12.5,5.498 -12.5,12.5c-0,7.002 5.498,12.5 12.5,12.5l20.833,-0c4.403,-0.062 8.452,3.93 8.452,8.333c0,4.403 -4.049,8.396 -8.452,8.334l-20.833,-0c-16.01,-0 -29.167,-13.157 -29.167,-29.167c0,-16.01 13.157,-29.167 29.167,-29.167l54.948,0l-10.807,-10.807c-2.393,-2.314 -3.18,-6.135 -1.896,-9.206c1.284,-3.071 4.557,-5.195 7.885,-5.117Z" style="fill:none;fill-rule:nonzero;stroke:#fff;stroke-opacity:0.3;stroke-width:4.17px;stroke-linecap:butt;"/><path id="path4319" d="M123.207,56.782c1.284,-3.071 4.557,-5.195 7.885,-5.117c2.15,0.085 4.252,1.041 5.729,2.604l30.99,30.86m-66.016,50l-20.833,-0c-16.01,-0 -29.167,-13.157 -29.167,-29.167c0,-16.01 13.157,-29.167 29.167,-29.167l54.948,0" style="fill:none;fill-rule:nonzero;stroke:url(#_Linear4);stroke-width:4.17px;"/><path id="path4321" d="M80.962,93.462c-7.002,-0 -12.5,5.498 -12.5,12.5c-0,7.002 5.498,12.5 12.5,12.5l20.833,-0c4.403,-0.062 8.452,3.93 8.452,8.333" style="fill:none;fill-rule:nonzero;stroke:url(#_Linear5);stroke-width:4.17px;"/><path id="path4323" d="M124.439,116.652c-3.296,-3.296 -2.966,-9.458 0.664,-12.383l10.807,-10.807" style="fill:none;fill-rule:nonzero;stroke:url(#_Radial6);stroke-width:4.17px;"/></g></g><defs><radialGradient id="_Radial1" cx="0" cy="0" r="1" gradientUnits="userSpaceOnUse" gradientTransform="matrix(-26.3994,0,0,11.137,70.8275,137.533)"><stop offset="0" style="stop-color:#000;stop-opacity:1"/><stop offset="1" style="stop-color:#000;stop-opacity:0"/></radialGradient><linearGradient id="_Linear2" x1="0" y1="0" x2="1" y2="0" gradientUnits="userSpaceOnUse" gradientTransform="matrix(-3.11009e-15,-50.7916,-50.7916,3.11009e-15,108.045,137.217)"><stop offset="0" style="stop-color:#3a7404;stop-opacity:1"/><stop offset="1" style="stop-color:#4e9a06;stop-opacity:1"/></linearGradient><linearGradient id="_Linear3" x1="0" y1="0" x2="1" y2="0" gradientUnits="userSpaceOnUse" gradientTransform="matrix(-5.20564e-15,-85.0145,-85.0145,5.20564e-15,108.045,128.771)"><stop offset="0" style="stop-color:#8ae234;stop-opacity:1"/><stop offset="0.31" style="stop-color:#73d216;stop-opacity:1"/><stop offset="0.57" style="stop-color:#9fe759;stop-opacity:1"/><stop offset="1" style="stop-color:#fff;stop-opacity:1"/></linearGradient><linearGradient id="_Linear4" x1="0" y1="0" x2="1" y2="0" gradientUnits="userSpaceOnUse" gradientTransform="matrix(-1.86567e-15,30.4688,30.4688,1.86567e-15,49.712,89.4895)"><stop offset="0" style="stop-color:#fff;stop-opacity:0.5"/><stop offset="1" style="stop-color:#fff;stop-opacity:0"/></linearGradient><linearGradient id="_Linear5" x1="0" y1="0" x2="1" y2="0" gradientUnits="userSpaceOnUse" gradientTransform="matrix(-5.59217e-16,-9.13271,-9.13271,5.59217e-16,92.789,105.607)"><stop offset="0" style="stop-color:#fff;stop-opacity:0.5"/><stop offset="1" style="stop-color:#fff;stop-opacity:0"/></linearGradient><radialGradient id="_Radial6" cx="0" cy="0" r="1" gradientUnits="userSpaceOnUse" gradientTransform="matrix(-143.503,0,0,13.6782,123.833,109.049)"><stop offset="0" style="stop-color:#fff;stop-opacity:0.5"/><stop offset="1" style="stop-color:#fff;stop-opacity:0"/></radialGradient></defs></svg>