<?xml version="1.0" encoding="UTF-8" standalone="no"?>
<!DOCTYPE svg PUBLIC "-//W3C//DTD SVG 1.1//EN" "http://www.w3.org/Graphics/SVG/1.1/DTD/svg11.dtd">
<svg width="100%" height="100%" viewBox="0 0 64 64" version="1.1" xmlns="http://www.w3.org/2000/svg" xmlns:xlink="http://www.w3.org/1999/xlink" xml:space="preserve" xmlns:serif="http://www.serif.com/" style="fill-rule:evenodd;clip-rule:evenodd;stroke-linecap:round;stroke-linejoin:round;">
    <g id="g32" transform="matrix(0.466666,0,0,0.466666,0,14.856)">
        <path id="path6387" d="M34.193,0.005C32.591,0.161 31.223,1.225 30.677,2.739L18.177,36.202C17.71,37.479 17.895,38.904 18.673,40.019C19.451,41.134 20.724,41.799 22.083,41.801L30.937,41.801C32.718,41.779 34.287,40.628 34.844,38.937L35.364,37.505L44.349,37.505L44.87,39.067C45.47,40.707 47.029,41.799 48.776,41.801L57.63,41.801C58.259,41.811 58.883,41.677 59.453,41.411C59.496,41.412 59.54,41.412 59.583,41.411C60.083,41.597 60.613,41.685 61.146,41.671L69.739,41.671C70.582,41.654 71.399,41.381 72.083,40.89C72.156,40.927 72.272,40.985 72.344,41.02C74.595,42.108 76.924,42.322 79.114,42.322C83.403,42.322 87.574,40.588 90.443,37.244C91.388,36.136 91.918,34.77 92.526,33.468C93.315,35.041 94.119,36.561 95.39,37.765C98.651,40.833 103.161,42.322 108.151,42.322C108.281,42.328 108.411,42.328 108.542,42.322L115.833,41.671C117.98,41.469 119.619,39.661 119.609,37.505L119.609,33.338C119.609,31.037 117.744,29.171 115.443,29.171L109.193,29.171C108.848,29.171 108.084,28.777 107.239,27.869C106.83,27.419 106.588,26.886 106.588,25.395C106.588,24.65 106.759,23.548 106.979,22.661C107.199,21.774 107.709,21.119 107.37,21.489C107.719,21.109 107.97,20.838 109.193,20.838L115.443,20.838C117.744,20.838 119.609,18.972 119.609,16.671L119.609,12.505C119.609,10.203 117.744,8.338 115.443,8.338L108.151,8.338C103.17,8.338 98.658,9.801 95.39,12.895C94.239,13.978 93.534,15.422 92.786,16.801C92.145,15.329 91.497,13.864 90.443,12.635C87.616,9.32 83.5,7.426 79.114,7.426C77.151,7.426 75.516,7.989 73.906,8.598L73.906,4.171C73.906,1.87 72.041,0.005 69.739,0.005L61.146,0.005C58.845,0.005 56.979,1.87 56.979,4.171L56.979,24.093L48.906,2.739C48.306,1.099 46.746,0.007 45,0.005L34.583,0.005C34.453,-0.002 34.323,-0.002 34.193,0.005ZM75.989,21.619C76.781,21.619 76.536,21.569 76.771,21.88L76.901,21.88C77.103,22.142 77.422,22.993 77.422,24.874C77.422,26.756 77.018,27.846 76.901,27.999L76.771,27.999C76.619,28.2 76.979,28.13 75.989,28.13C75,28.13 74.106,27.458 74.427,27.869C74.286,27.683 73.906,26.737 73.906,24.874C73.906,23.011 74.235,22.129 74.427,21.88C74.189,22.188 75.175,21.619 75.989,21.619Z" style="fill:rgb(46,52,54);fill-rule:nonzero;"/>
        <path id="text3378" d="M34.583,4.171L22.083,37.635L30.937,37.635L32.37,33.338L47.213,33.338L48.776,37.635L57.63,37.635L45,4.171L34.583,4.171ZM61.146,4.171L61.146,37.505L69.739,37.505L69.739,33.859C70.919,35.336 72.732,36.536 74.167,37.244C75.601,37.937 77.249,38.156 79.114,38.156C82.414,38.156 85.197,36.981 87.318,34.51C89.438,32.023 90.443,28.777 90.443,24.874C90.443,20.971 89.438,17.841 87.318,15.369C85.197,12.883 82.414,11.593 79.114,11.593C77.249,11.593 75.601,12.057 74.167,12.765C72.732,13.458 70.919,14.543 69.739,16.02L69.739,4.171L61.146,4.171ZM39.792,11.984L44.349,25.005L35.234,25.005L39.792,11.984ZM108.151,12.505C103.896,12.505 100.656,13.616 98.255,15.89C95.854,18.15 94.609,21.357 94.609,25.395C94.609,29.433 95.854,32.496 98.255,34.77C100.656,37.03 103.896,38.156 108.151,38.156L115.443,37.505L115.443,33.338L109.193,33.338C107.086,33.338 105.424,32.002 104.245,30.734C103.079,29.451 102.422,27.684 102.422,25.395C102.422,23.106 103.079,19.893 104.245,18.624C105.424,17.342 107.086,16.671 109.193,16.671L115.443,16.671L115.443,12.505L108.151,12.505ZM75.989,17.452C77.823,17.453 79.2,18.14 80.156,19.406C81.129,20.671 81.588,22.463 81.588,24.874C81.588,27.285 81.129,29.208 80.156,30.473C79.2,31.739 77.823,32.296 75.989,32.296C74.156,32.296 72.16,31.739 71.172,30.473C70.199,29.192 69.739,27.27 69.739,24.874C69.739,22.478 70.199,20.671 71.172,19.406C72.16,18.125 74.156,17.453 75.989,17.452Z" style="fill:url(#_Linear1);fill-rule:nonzero;"/>
        <path id="path6389" d="M34.583,4.171L22.083,37.635L24.167,37.635L35.104,8.338L45.521,8.338L56.588,37.635L57.63,37.635L45,4.171L34.583,4.171ZM61.146,4.171L61.146,37.505L61.667,37.505L61.667,8.338L69.739,8.338L69.739,4.171L61.146,4.171ZM79.114,11.593C77.249,11.593 75.601,12.057 74.167,12.765C72.911,13.372 71.417,14.293 70.26,15.499L70.26,20.187C70.5,19.887 70.888,19.673 71.172,19.406C71.457,19.136 71.771,18.861 72.083,18.624C72.988,17.939 73.837,17.342 74.687,16.932C76.122,16.223 77.77,15.76 79.635,15.76C82.935,15.76 85.718,17.049 87.838,19.536C89.111,21.019 89.95,22.762 90.443,24.744C90.419,20.906 89.413,17.811 87.318,15.369C85.197,12.883 82.414,11.593 79.114,11.593ZM108.151,12.505C103.896,12.505 100.656,13.616 98.255,15.89C95.854,18.15 94.609,21.357 94.609,25.395C94.609,26.828 94.82,28.106 95.13,29.301C95.185,25.391 96.429,22.265 98.776,20.057C100.994,17.956 103.973,16.959 107.76,16.801C108.061,16.748 108.348,16.69 108.672,16.671L115.443,16.671L115.443,12.505L108.151,12.505ZM37.187,25.005L35.755,29.171L44.87,29.171L43.437,25.005L37.187,25.005ZM81.588,25.135C81.553,27.414 81.09,29.257 80.156,30.473C79.2,31.739 77.823,32.296 75.989,32.296C74.156,32.296 72.16,31.739 71.172,30.473C70.781,29.959 70.489,29.36 70.26,28.65C70.257,28.793 70.26,28.894 70.26,29.041C70.26,31.437 70.72,33.359 71.693,34.64C72.681,35.906 74.677,36.463 76.51,36.463C78.344,36.463 79.72,35.906 80.677,34.64C81.649,33.374 82.109,31.452 82.109,29.041C82.109,27.482 81.987,26.201 81.588,25.135ZM103.073,28.52C103.046,28.878 102.943,29.234 102.943,29.562C102.943,31.851 103.6,33.618 104.765,34.9C105.945,36.169 107.607,37.505 109.713,37.505L115.443,37.505L115.443,33.338L109.193,33.338C107.086,33.338 105.424,32.002 104.245,30.734C103.697,30.131 103.381,29.341 103.073,28.52Z" style="fill:rgb(186,189,182);fill-rule:nonzero;"/>
        <g id="g5022" opacity="0.4">
            <rect id="rect4173" x="23.33" y="45.681" width="90.483" height="32.079" style="fill:url(#_Linear2);"/>
            <path id="path5058" d="M113.813,45.682L113.813,77.76C123.463,77.82 137.143,70.573 137.143,61.719C137.143,52.865 126.374,45.682 113.813,45.682Z" style="fill:url(#_Radial3);fill-rule:nonzero;"/>
            <path id="path5018" d="M23.33,45.682L23.33,77.76C13.679,77.82 0,70.573 0,61.719C0,52.865 10.769,45.682 23.33,45.682Z" style="fill:url(#_Radial4);fill-rule:nonzero;"/>
        </g>
        <path id="path6406" d="M9.193,60.421L17.526,52.088L25.859,60.421L34.193,52.088L42.526,60.421L50.859,52.088L59.193,60.421L67.526,52.088L75.859,60.421L84.193,52.088L92.526,60.421L100.859,52.088L109.193,60.421L117.526,52.088L125.859,60.421" style="fill:none;stroke:rgb(78,154,6);stroke-width:12.5px;"/>
        <path id="path6404" d="M9.193,60.421L17.526,52.088L25.859,60.421L34.193,52.088L42.526,60.421L50.859,52.088L59.193,60.421L67.526,52.088L75.859,60.421L84.193,52.088L92.526,60.421L100.859,52.088L109.193,60.421L117.526,52.088L125.859,60.421" style="fill:none;stroke:rgb(138,226,52);stroke-width:4.17px;stroke-linecap:square;stroke-linejoin:miter;"/>
    </g>
    <defs>
        <linearGradient id="_Linear1" x1="0" y1="0" x2="1" y2="0" gradientUnits="userSpaceOnUse" gradientTransform="matrix(1.24131e-15,20.2722,-20.2722,1.24131e-15,84.8859,21.1073)"><stop offset="0" style="stop-color:rgb(85,87,83);stop-opacity:1"/><stop offset="1" style="stop-color:rgb(136,138,133);stop-opacity:1"/></linearGradient>
        <linearGradient id="_Linear2" x1="0" y1="0" x2="1" y2="0" gradientUnits="userSpaceOnUse" gradientTransform="matrix(1.96428e-15,32.0791,-32.0791,1.96428e-15,57.5955,45.6814)"><stop offset="0" style="stop-color:black;stop-opacity:0"/><stop offset="0.5" style="stop-color:black;stop-opacity:0.39"/><stop offset="1" style="stop-color:black;stop-opacity:0"/></linearGradient>
        <radialGradient id="_Radial3" cx="0" cy="0" r="1" gradientUnits="userSpaceOnUse" gradientTransform="matrix(21.9516,0,0,15.4735,114.385,61.5322)"><stop offset="0" style="stop-color:black;stop-opacity:0.4"/><stop offset="1" style="stop-color:black;stop-opacity:0"/></radialGradient>
        <radialGradient id="_Radial4" cx="0" cy="0" r="1" gradientUnits="userSpaceOnUse" gradientTransform="matrix(-21.9516,0,0,15.4735,22.7573,61.5322)"><stop offset="0" style="stop-color:black;stop-opacity:0.4"/><stop offset="1" style="stop-color:black;stop-opacity:0"/></radialGradient>
    </defs>
</svg>
