<?xml version="1.0" encoding="UTF-8" standalone="no"?>
<!DOCTYPE svg PUBLIC "-//W3C//DTD SVG 1.1//EN" "http://www.w3.org/Graphics/SVG/1.1/DTD/svg11.dtd">
<svg width="100%" height="100%" viewBox="0 0 64 64" version="1.1" xmlns="http://www.w3.org/2000/svg" xmlns:xlink="http://www.w3.org/1999/xlink" xml:space="preserve" xmlns:serif="http://www.serif.com/" style="fill-rule:evenodd;clip-rule:evenodd;stroke-linecap:round;">
    <g id="g4001" transform="matrix(0.465457,0,0,0.465457,-17.4723,-12.8469)">
        <path id="path9259-3" d="M114.295,126.795L135.129,126.795C146.635,126.795 155.962,117.468 155.962,105.962C155.962,94.456 146.635,85.129 135.129,85.129L72.629,85.129M85.129,60.129L60.129,85.129L85.129,110.129" style="fill:none;fill-rule:nonzero;stroke:url(#_Linear1);stroke-width:29.17px;"/>
        <path id="path9259-3-3" d="M114.295,126.795L135.129,126.795C146.635,126.795 155.962,117.468 155.962,105.962C155.962,94.456 146.635,85.129 135.129,85.129L72.629,85.129M85.129,60.129L60.129,85.129L85.129,110.129" style="fill:none;fill-rule:nonzero;stroke:url(#_Linear2);stroke-width:20.83px;"/>
        <path id="path9259-3-3-3" d="M84.998,51.665C82.849,51.75 80.747,52.706 79.269,54.269L48.28,85.129L79.269,115.988C82.194,119.617 88.356,119.948 91.652,116.652C94.948,113.356 94.618,107.194 90.988,104.269L80.181,93.462L135.129,93.462C142.131,93.462 147.629,98.96 147.629,105.962C147.629,112.964 142.131,118.462 135.129,118.462L114.295,118.462C109.893,118.4 105.843,122.392 105.843,126.795C105.843,131.198 109.893,135.191 114.295,135.129L135.129,135.129C151.138,135.129 164.295,121.972 164.295,105.962C164.295,89.952 151.138,76.795 135.129,76.795L80.181,76.795L90.988,65.988C93.381,63.674 94.168,59.853 92.883,56.782C91.599,53.711 88.326,51.587 84.998,51.665Z" style="fill:none;fill-rule:nonzero;stroke:white;stroke-opacity:0.5;stroke-width:4.17px;stroke-linecap:butt;"/>
        <path id="path9259-3-3-3-8" d="M92.883,56.782C91.599,53.711 88.326,51.587 84.998,51.665C82.849,51.75 80.747,52.706 79.269,54.269L48.28,85.129M114.295,135.129L135.129,135.129C151.138,135.129 164.295,121.972 164.295,105.962C164.295,89.952 151.138,76.795 135.129,76.795L80.181,76.795" style="fill:none;fill-rule:nonzero;stroke:url(#_Linear3);stroke-width:4.17px;"/>
        <path id="path9259-3-3-3-5" d="M135.129,93.462C142.131,93.462 147.629,98.96 147.629,105.962C147.629,112.964 142.131,118.462 135.129,118.462L114.295,118.462C109.893,118.4 105.843,122.392 105.843,126.795" style="fill:none;fill-rule:nonzero;stroke:url(#_Linear4);stroke-width:4.17px;"/>
        <path id="path9259-3-3-3-7" d="M91.652,116.652C94.948,113.356 94.618,107.194 90.988,104.269L80.181,93.462" style="fill:none;fill-rule:nonzero;stroke:url(#_Radial5);stroke-width:4.17px;"/>
    </g>
    <defs>
        <linearGradient id="_Linear1" x1="0" y1="0" x2="1" y2="0" gradientUnits="userSpaceOnUse" gradientTransform="matrix(3.23244e-15,-52.7898,52.7898,3.23244e-15,108.045,134.388)"><stop offset="0" style="stop-color:rgb(156,127,0);stop-opacity:1"/><stop offset="1" style="stop-color:rgb(196,160,0);stop-opacity:1"/></linearGradient>
        <linearGradient id="_Linear2" x1="0" y1="0" x2="1" y2="0" gradientUnits="userSpaceOnUse" gradientTransform="matrix(5.20564e-15,-85.0145,85.0145,5.20564e-15,108.045,128.771)"><stop offset="0" style="stop-color:rgb(237,212,0);stop-opacity:1"/><stop offset="0.31" style="stop-color:rgb(230,206,0);stop-opacity:1"/><stop offset="0.57" style="stop-color:rgb(252,233,79);stop-opacity:1"/><stop offset="1" style="stop-color:white;stop-opacity:1"/></linearGradient>
        <linearGradient id="_Linear3" x1="0" y1="0" x2="1" y2="0" gradientUnits="userSpaceOnUse" gradientTransform="matrix(1.86568e-15,30.4688,-30.4688,1.86568e-15,166.379,89.4895)"><stop offset="0" style="stop-color:white;stop-opacity:1"/><stop offset="1" style="stop-color:white;stop-opacity:0"/></linearGradient>
        <linearGradient id="_Linear4" x1="0" y1="0" x2="1" y2="0" gradientUnits="userSpaceOnUse" gradientTransform="matrix(5.59217e-16,-9.13271,9.13271,5.59217e-16,123.302,105.607)"><stop offset="0" style="stop-color:white;stop-opacity:1"/><stop offset="1" style="stop-color:white;stop-opacity:0"/></linearGradient>
        <radialGradient id="_Radial5" cx="0" cy="0" r="1" gradientUnits="userSpaceOnUse" gradientTransform="matrix(143.503,0,0,13.6782,92.2577,109.049)"><stop offset="0" style="stop-color:white;stop-opacity:1"/><stop offset="1" style="stop-color:white;stop-opacity:0"/></radialGradient>
    </defs>
</svg>
