<?xml version="1.0" encoding="UTF-8" standalone="no"?><!DOCTYPE svg PUBLIC "-//W3C//DTD SVG 1.1//EN" "http://www.w3.org/Graphics/SVG/1.1/DTD/svg11.dtd"><svg width="100%" height="100%" viewBox="0 0 15713 13542" version="1.1" xmlns="http://www.w3.org/2000/svg" xmlns:xlink="http://www.w3.org/1999/xlink" xml:space="preserve" xmlns:serif="http://www.serif.com/" style="fill-rule:evenodd;clip-rule:evenodd;stroke-linecap:round;"><g id="g4399"><g id="g4311"><path id="path4313" d="M8697.77,7625l0,-3122.66m-1808.44,904.217l1808.44,-1808.45l1808.46,1808.45" style="fill:none;fill-rule:nonzero;stroke:url(#_Linear1);stroke-width:2110.08px;"/><path id="path4315" d="M8697.77,7625l0,-3122.66m-1808.44,904.217l1808.44,-1808.45l1808.46,1808.45" style="fill:none;fill-rule:nonzero;stroke:url(#_Linear2);stroke-width:1506.79px;"/><path id="path4317" d="M6277.07,5369.42c6.146,-153.891 75.292,-304.358 188.367,-410.087l2232.34,-2218.37l2232.28,2218.37c262.516,209.304 286.458,650.4 48.037,886.337c-238.421,235.938 -684.166,212.309 -895.762,-47.537l-781.754,-773.592l-0,2542.27c-0,303.438 -137.621,641.525 -578.28,641.525c-424.375,0 -627.379,-221.579 -627.379,-641.525l0,-2542.27l-781.754,773.592c-167.396,171.304 -443.8,227.641 -665.937,135.729c-222.155,-91.908 -375.8,-326.213 -370.155,-564.442Z" style="fill:none;fill-rule:nonzero;stroke:#fff;stroke-opacity:0.3;stroke-width:300px;stroke-linecap:butt;"/><path id="path4319" d="M6647.23,5967.55c-222.155,-92.9 -375.8,-329.654 -370.155,-570.4c6.146,-155.521 75.292,-307.571 188.367,-414.408l2232.34,-2241.77m-602.863,4842.37l0,-2534.69" style="fill:none;fill-rule:nonzero;stroke:url(#_Linear3);stroke-width:301.75px;"/><path id="path4323" d="M10964.5,5837.84c-238.438,238.421 -670.559,255.125 -882.155,-7.463l-781.754,-781.754" style="fill:none;fill-rule:nonzero;stroke:url(#_Radial4);stroke-width:301.75px;"/></g></g><defs><linearGradient id="_Linear1" x1="0" y1="0" x2="1" y2="0" gradientUnits="userSpaceOnUse" gradientTransform="matrix(-3674.17,-4.49956e-13,4.49956e-13,-3674.17,12465.7,7064.34)"><stop offset="0" style="stop-color:#3a7404;stop-opacity:1"/><stop offset="1" style="stop-color:#4e9a06;stop-opacity:1"/></linearGradient><linearGradient id="_Linear2" x1="0" y1="0" x2="1" y2="0" gradientUnits="userSpaceOnUse" gradientTransform="matrix(-6149.79,-7.53132e-13,7.53132e-13,-6149.79,11854.8,7064.34)"><stop offset="0" style="stop-color:#8ae234;stop-opacity:1"/><stop offset="0.31" style="stop-color:#73d216;stop-opacity:1"/><stop offset="0.57" style="stop-color:#9fe759;stop-opacity:1"/><stop offset="1" style="stop-color:#fff;stop-opacity:1"/></linearGradient><linearGradient id="_Linear3" x1="0" y1="0" x2="1" y2="0" gradientUnits="userSpaceOnUse" gradientTransform="matrix(2204.05,2.52435e-29,-2.52435e-29,2204.05,9013.22,11284)"><stop offset="0" style="stop-color:#fff;stop-opacity:0.5"/><stop offset="1" style="stop-color:#fff;stop-opacity:0"/></linearGradient><radialGradient id="_Radial4" cx="0" cy="0" r="1" gradientUnits="userSpaceOnUse" gradientTransform="matrix(-6.35635e-13,10380.7,989.454,6.05866e-14,10428.1,5922.25)"><stop offset="0" style="stop-color:#fff;stop-opacity:0.5"/><stop offset="1" style="stop-color:#fff;stop-opacity:0"/></radialGradient></defs></svg>