<?xml version="1.0" encoding="UTF-8" standalone="no"?>
<!DOCTYPE svg PUBLIC "-//W3C//DTD SVG 1.1//EN" "http://www.w3.org/Graphics/SVG/1.1/DTD/svg11.dtd">
<svg width="100%" height="100%" viewBox="0 0 64 64" version="1.1" xmlns="http://www.w3.org/2000/svg" xmlns:xlink="http://www.w3.org/1999/xlink" xml:space="preserve" xmlns:serif="http://www.serif.com/" style="fill-rule:evenodd;clip-rule:evenodd;stroke-linecap:round;stroke-miterlimit:10;">
    <g transform="matrix(0.321238,0,0,0.321238,21.8169,22.0382)">
        <g id="Layer-1" serif:id="Layer 1" transform="matrix(1,0,0,1,-68,-68)">
            <g id="g1772">
                <path id="path4475" d="M199.314,166.492L199.314,166.501C199.314,180.167 154.346,191.412 99.699,191.412C45.053,191.412 0.085,180.167 0.085,166.501L0.085,166.492C0.085,152.826 45.053,141.581 99.699,141.581C154.346,141.581 199.314,152.826 199.314,166.492Z" style="fill:url(#_Radial1);"/>
                <path id="path2844" d="M77.615,13.098C43.702,13.098 16.178,40.622 16.178,74.535C16.178,108.448 43.702,135.971 77.615,135.971C92.113,135.971 104.911,130.203 115.422,121.794C114.566,125.989 115.097,130.274 118.573,133.293L164.256,172.991C169.396,177.455 177.121,176.87 181.585,171.731C186.048,166.592 185.464,158.866 180.324,154.402L134.641,114.705C131.843,112.275 128.42,111.555 125.031,112.027C133.309,101.559 139.052,88.907 139.052,74.535C139.052,40.622 111.528,13.098 77.615,13.098ZM77.3,18.207C109.131,18.207 132.682,38.161 132.682,73.59C132.682,109.736 108.446,128.972 77.3,128.972C46.871,128.972 21.917,106.147 21.917,73.59C21.917,40.323 46.187,18.207 77.3,18.207Z" style="fill:rgb(220,220,220);stroke:url(#_Linear2);stroke-width:8.33px;"/>
                <path id="path4430" d="M77.512,12.835C43.489,12.835 15.877,40.447 15.877,74.47C15.877,108.493 43.489,136.105 77.512,136.105C92.057,136.105 104.896,130.318 115.442,121.882C114.583,126.091 115.115,130.39 118.602,133.419L164.434,173.245C169.589,177.723 177.34,177.136 181.818,171.98C186.296,166.824 185.709,159.074 180.554,154.596L134.722,114.77C131.915,112.332 128.482,111.61 125.082,112.083C133.387,101.581 139.147,88.889 139.147,74.47C139.147,40.447 111.535,12.835 77.512,12.835ZM77.196,26.11C103.367,26.11 124.608,47.351 124.608,73.522C124.608,99.693 103.367,120.934 77.196,120.934C51.025,120.934 29.784,99.693 29.784,73.522C29.784,47.351 51.025,26.11 77.196,26.11Z" style="fill:rgb(220,220,220);"/>
                <path id="path4438" d="M164.613,173.24C162.618,163.769 170.435,153.193 179.546,153.289L134.711,114.713C122.441,114.477 116.922,124.183 118.974,133.88L164.613,173.24Z" style="fill:url(#_Linear3);"/>
                <path id="path4450" d="M133.916,72.47C133.916,103.93 108.028,129.818 76.568,129.818C45.107,129.818 19.219,103.93 19.219,72.47C19.219,41.009 45.107,15.121 76.568,15.121C108.028,15.121 133.916,41.009 133.916,72.47Z" style="fill:none;stroke:url(#_Linear4);stroke-width:4.17px;"/>
                <path id="path4485" d="M121.716,161.52L121.716,161.524C121.716,167.005 106.242,171.515 87.436,171.515C68.63,171.515 53.155,167.005 53.155,161.524L53.155,161.52C53.155,156.039 68.63,151.529 87.436,151.529C106.242,151.529 121.716,156.039 121.716,161.52Z" style="fill:url(#_Radial5);"/>
                <path id="rect4495" d="M180.274,170.145C183.463,166.406 183.048,160.745 179.348,157.512L132.992,117.001C129.292,113.768 123.699,114.179 120.511,117.917L120.06,118.446C116.871,122.185 117.286,127.846 120.986,131.079L167.342,171.59C171.042,174.823 176.634,174.413 179.823,170.674L180.274,170.145Z" style="fill:none;stroke:white;stroke-opacity:0.43;stroke-width:4.19px;"/>
                <path id="path4452" d="M124.986,73.097L124.986,73.112C124.986,99.673 103.129,121.53 76.568,121.53C50.006,121.53 28.15,99.673 28.15,73.112L28.15,73.097C28.15,46.535 50.006,24.679 76.568,24.679C103.129,24.679 124.986,46.535 124.986,73.097Z" style="fill:url(#_Radial6);stroke:rgb(48,99,163);stroke-width:4.17px;"/>
                <path id="path4462" d="M75.654,30.82C53.956,30.82 36.385,48.39 36.385,70.089C36.385,76.355 38.136,82.121 40.748,87.38C45.966,89.303 51.51,90.612 57.393,90.612C83.105,90.612 103.64,70.355 105.227,45.04C98.014,36.517 87.685,30.82 75.654,30.82Z" style="fill:url(#_Radial7);"/>
            </g>
        </g>
        <g transform="matrix(1,0,0,1,-68,-68)">
            <path id="rect4899-8" d="M73.725,46.823C71.848,46.823 70.324,48.348 70.324,50.225L70.324,68.122L52.427,68.122C50.55,68.122 49.025,69.646 49.025,71.524L49.025,78.919C49.025,80.796 50.55,82.321 52.427,82.321L70.324,82.321L70.324,100.217C70.324,102.094 71.848,103.619 73.725,103.619L81.121,103.619C82.998,103.619 84.522,102.094 84.522,100.217L84.522,82.321L102.419,82.321C104.296,82.321 105.821,80.796 105.821,78.919L105.821,71.524C105.821,69.646 104.296,68.122 102.419,68.122L84.522,68.122L84.522,50.225C84.522,48.348 82.998,46.823 81.121,46.823L73.725,46.823Z" style="fill:url(#_Linear8);fill-rule:nonzero;stroke:url(#_Linear9);stroke-width:2.37px;stroke-linejoin:round;stroke-miterlimit:4;"/>
            <path id="path5037-3" d="M73.725,49.264C73.15,49.264 72.764,49.65 72.764,50.225L72.764,68.122C72.783,69.405 71.606,70.581 70.324,70.562L52.427,70.562C51.852,70.562 51.466,70.949 51.466,71.524L51.466,78.919C51.466,79.494 51.852,79.88 52.427,79.88L70.324,79.88C71.606,79.861 72.783,81.038 72.764,82.321L72.764,100.217C72.764,100.792 73.15,101.179 73.725,101.179L81.121,101.179C81.696,101.179 82.082,100.792 82.082,100.217L82.082,82.321C82.063,81.038 83.24,79.862 84.522,79.88L102.419,79.88C102.994,79.88 103.38,79.494 103.38,78.919L103.38,71.524C103.38,70.949 102.994,70.562 102.419,70.562L84.522,70.562C83.24,70.581 82.063,69.405 82.082,68.122L82.082,50.225C82.082,49.65 81.696,49.264 81.121,49.264L73.725,49.264Z" style="fill:none;fill-rule:nonzero;stroke:url(#_Linear10);stroke-width:2.37px;stroke-linejoin:round;stroke-miterlimit:4;"/>
            <path id="path5090-6" d="M79.568,51.778L75.278,51.778L75.278,68.048C75.279,68.073 75.278,68.097 75.278,68.122C75.281,70.925 73.137,73.118 70.324,73.077L53.98,73.077L53.98,77.366M100.866,73.077L84.522,73.077M75.278,82.321L75.278,98.664" style="fill:none;fill-rule:nonzero;stroke:white;stroke-opacity:0.3;stroke-width:2.37px;stroke-linejoin:round;stroke-miterlimit:4;"/>
        </g>
    </g>
    <defs>
        <radialGradient id="_Radial1" cx="0" cy="0" r="1" gradientUnits="userSpaceOnUse" gradientTransform="matrix(99.6146,0,0,24.9106,99.6995,166.497)"><stop offset="0" style="stop-color:black;stop-opacity:0.17"/><stop offset="1" style="stop-color:black;stop-opacity:0"/></radialGradient>
        <linearGradient id="_Linear2" x1="0" y1="0" x2="1" y2="0" gradientUnits="userSpaceOnUse" gradientTransform="matrix(16.5401,16.5728,-16.5728,16.5401,114.026,110.751)"><stop offset="0" style="stop-color:rgb(138,138,138);stop-opacity:1"/><stop offset="1" style="stop-color:rgb(72,72,72);stop-opacity:1"/></linearGradient>
        <linearGradient id="_Linear3" x1="0" y1="0" x2="1" y2="0" gradientUnits="userSpaceOnUse" gradientTransform="matrix(14.2496,-15.8049,15.8049,14.2496,141.416,151.847)"><stop offset="0" style="stop-color:rgb(125,125,125);stop-opacity:1"/><stop offset="0.5" style="stop-color:rgb(177,177,177);stop-opacity:1"/><stop offset="1" style="stop-color:rgb(104,104,104);stop-opacity:1"/></linearGradient>
        <linearGradient id="_Linear4" x1="0" y1="0" x2="1" y2="0" gradientUnits="userSpaceOnUse" gradientTransform="matrix(-4.10981,63.0208,-63.0208,-4.10981,80.6776,44.8655)"><stop offset="0" style="stop-color:white;stop-opacity:1"/><stop offset="0.5" style="stop-color:white;stop-opacity:0.22"/><stop offset="1" style="stop-color:white;stop-opacity:1"/></linearGradient>
        <radialGradient id="_Radial5" cx="0" cy="0" r="1" gradientUnits="userSpaceOnUse" gradientTransform="matrix(34.2806,0,0,9.99088,87.4358,161.522)"><stop offset="0" style="stop-color:white;stop-opacity:1"/><stop offset="1" style="stop-color:white;stop-opacity:0"/></radialGradient>
        <radialGradient id="_Radial6" cx="0" cy="0" r="1" gradientUnits="userSpaceOnUse" gradientTransform="matrix(48.4183,0,0,48.4183,80.3653,92.5666)"><stop offset="0" style="stop-color:rgb(114,159,207);stop-opacity:0.21"/><stop offset="1" style="stop-color:rgb(114,159,207);stop-opacity:0.67"/></radialGradient>
        <radialGradient id="_Radial7" cx="0" cy="0" r="1" gradientUnits="userSpaceOnUse" gradientTransform="matrix(71.9142,-2.14855e-22,-1.58487e-22,62.4607,62.1214,43.8039)"><stop offset="0" style="stop-color:white;stop-opacity:0.83"/><stop offset="1" style="stop-color:white;stop-opacity:0.21"/></radialGradient>
        <linearGradient id="_Linear8" x1="0" y1="0" x2="1" y2="0" gradientUnits="userSpaceOnUse" gradientTransform="matrix(-9.63198,-72.0944,72.0944,-9.63198,81.3925,104.566)"><stop offset="0" style="stop-color:rgb(98,148,202);stop-opacity:1"/><stop offset="0.39" style="stop-color:rgb(52,101,164);stop-opacity:1"/><stop offset="1" style="stop-color:rgb(188,209,232);stop-opacity:1"/></linearGradient>
        <linearGradient id="_Linear9" x1="0" y1="0" x2="1" y2="0" gradientUnits="userSpaceOnUse" gradientTransform="matrix(-6.1356,-26.1623,26.1623,-6.1356,80.2568,87.1641)"><stop offset="0" style="stop-color:rgb(32,74,135);stop-opacity:1"/><stop offset="1" style="stop-color:rgb(52,101,164);stop-opacity:1"/></linearGradient>
        <linearGradient id="_Linear10" x1="0" y1="0" x2="1" y2="0" gradientUnits="userSpaceOnUse" gradientTransform="matrix(21.3255,59.9157,-59.9157,21.3255,78.6062,68.1218)"><stop offset="0" style="stop-color:white;stop-opacity:0.15"/><stop offset="1" style="stop-color:white;stop-opacity:0"/></linearGradient>
    </defs>
</svg>
