/* XPM */
static char *commit[] = {
/* columns rows colors chars-per-pixel */
"24 24 71 1 ",
"  c None",
". c black",
"X c gray13",
"o c gray14",
"O c #252525",
"+ c gray25",
"@ c gray33",
"# c #555555",
"$ c #565656",
"% c #5A5A5A",
"& c #5D5D5D",
"* c gray40",
"= c #6C6C6C",
"- c #DF421E",
"; c #46A046",
": c #625B81",
"> c #887FA3",
", c #848484",
"< c gray53",
"1 c #888888",
"2 c #8E8E8E",
"3 c #979797",
"4 c #9A9A9A",
"5 c #A0A0A0",
"6 c gray65",
"7 c #A9A9A9",
"8 c #AEAEAE",
"9 c gray75",
"0 c #BBB6CA",
"q c #C2C2C1",
"w c gray76",
"e c #C3C3C2",
"r c #C3C3C3",
"t c gray77",
"y c #C7C7C6",
"u c #C8C8C8",
"i c gray79",
"p c #C5C1D2",
"a c #CAC6D6",
"s c gray84",
"d c #D8D8D8",
"f c gray88",
"g c #E1E1E1",
"h c #E6E6E6",
"j c #EDEDEB",
"k c #EEEEED",
"l c #EFEFEF",
"z c #ECEAF0",
"x c #ECEBF0",
"c c #F0EFF3",
"v c gray94",
"b c #F1F1F0",
"n c #F2F2F1",
"m c #F4F4F3",
"M c #F4F3F6",
"N c #F5F5F4",
"B c gray96",
"V c #F6F6F5",
"C c #F6F6F6",
"Z c gray97",
"A c #F8F8F7",
"S c #F7F6F8",
"D c #F8F8F8",
"F c #F9F9F9",
"G c gray98",
"H c #FCFCFB",
"J c gray99",
"K c #FDFDFC",
"L c #FDFDFD",
"P c #FEFEFE",
"I c white",
/* pixels */
"                 ...... ",
"                 .xx00. ",
"                ..xp>>..",
"                .Spa>>>.",
"+++++++++##      .Mp>>. ",
"IIIIIIIIIGs<o     .c>.  ",
"IIIIIIIIIGhv5.     ..   ",
"IIIIIIIIIGdIB3o         ",
"IIIIIIIIIBiIIg1X        ",
";:IIIIIIIB9gsiw2        ",
"IIIIIIIIHB7*&#%<.       ",
":::G::::GBvsy64=.       ",
"GGGGGGGGGGGGGGG8.       ",
"--::G:::GGGGGGGw.       ",
"GGGGGGGGGGGGGGGy.       ",
"::A::AAAAAAAAAAy.       ",
"BBBBBBBBBBBBBBBy.       ",
"BBBBBBBBBBBBBBBw.       ",
":mmmmmmmmmmmmmmw.       ",
"vvvvvvvvvvvvvvvw.       ",
"---v:v:::v:::vvw.       ",
"lllllllllllllllw.       ",
"::::l--:lllllllw.       ",
"jjjjjjjjjjjjjjjw.       "
};
