/* XPM */
static char *gen_changelog[] = {
/* columns rows colors chars-per-pixel */
"24 24 122 2 ",
"   c None",
".  c black",
"X  c gray10",
"o  c #353535",
"O  c #442D0E",
"+  c #5E4417",
"@  c #7D5A22",
"#  c #645435",
"$  c #464646",
"%  c #505050",
"&  c gray32",
"*  c #535353",
"=  c gray33",
"-  c #585858",
";  c gray35",
":  c #675E46",
">  c gray39",
",  c #6E6E6C",
"<  c gray43",
"1  c gray44",
"2  c #787775",
"3  c #797979",
"4  c #7B7B7B",
"5  c #88601F",
"6  c #A27E36",
"7  c #9A8558",
"8  c #9F8B5F",
"9  c #A09069",
"0  c #BAA069",
"q  c #C7AF7A",
"w  c #CCB176",
"e  c #868583",
"r  c #868686",
"t  c gray53",
"y  c #8B8A86",
"u  c #888888",
"i  c #898989",
"p  c #8B8B88",
"a  c gray54",
"s  c #8B8B8B",
"d  c #8C8C89",
"f  c gray55",
"g  c #8D8D8D",
"h  c #8E8E8E",
"j  c gray56",
"k  c #909090",
"l  c gray57",
"z  c #929292",
"x  c #939393",
"c  c #969592",
"v  c gray58",
"b  c #959595",
"n  c #979797",
"m  c #9B9996",
"M  c #9C9B97",
"N  c #B8B39B",
"B  c #A4A4A4",
"V  c gray65",
"C  c #A8A7A3",
"Z  c #AAAAAA",
"A  c #B0AFAC",
"S  c gray70",
"D  c #B4B4B4",
"F  c #B6B6B6",
"G  c #C0BFBD",
"H  c #D6C08E",
"J  c #D9C28B",
"K  c #DEC58D",
"L  c #D8C291",
"P  c #DFCA96",
"I  c #E1CC99",
"U  c #C2C1BD",
"Y  c #F3E5BE",
"T  c #C5C5C5",
"R  c #C6C6C6",
"E  c gray79",
"W  c #CACACA",
"Q  c gray80",
"!  c #CECECE",
"~  c #D2D0D0",
"^  c #DBDAD8",
"/  c gray86",
"(  c gainsboro",
")  c #DDDDDD",
"_  c #F4E7C2",
"`  c #EBE8D3",
"'  c gray88",
"]  c #E1E1E1",
"[  c #E2E2E2",
"{  c gray89",
"}  c #E4E4E4",
"|  c gray90",
" . c #E6E6E6",
".. c #E7E7E7",
"X. c #EAE8E3",
"o. c gray91",
"O. c #E9E9E9",
"+. c #EAEAEA",
"@. c gray92",
"#. c #EFEDE9",
"$. c #ECECEC",
"%. c gray93",
"&. c #EEEEEE",
"*. c #EFEFEF",
"=. c #FEFCE8",
"-. c #FEFEED",
";. c gray94",
":. c #F1F1F1",
">. c gray95",
",. c #F3F3F3",
"<. c #F4F4F4",
"1. c gray96",
"2. c #F6F6F6",
"3. c gray97",
"4. c #F8F8F8",
"5. c #F9F9F9",
"6. c gray98",
"7. c #FBFBFB",
"8. c gray99",
"9. c #FDFDFD",
"0. c #FEFEFE",
"q. c white",
/* pixels */
"  . . . . . . . . . . . . . . . . . . . .       ",
". [ >.>.>.>.>.>.>.<.<.<.<.<.<.<.<.<.<.<.) .     ",
". >.[ [ [ [ [ } } } } o.o.o.o.o.$.$.$.$.$..     ",
". >.[ r r r r i i ; . & i o.o.$.$.$.$.>.>..     ",
". >.[ [ [ } } } [ . N . [ $.$.$.$.$.>.>.>..     ",
". >.[ r i i i i < . ` . = g g g g >.>.>.>..     ",
". >.} } } } } 3 . . -.. . 3 o.>.>.>.>.>.<..     ",
". >.} i i ; . . : _ =.6 # . . D >.>.>.<.<..     ",
". <.} } o.. 7 q J P Y w I K 8 . T <.<.<.<..     ",
". <.} i i & . . O @ 0 5 + . . n <.<.<.<.<..     ",
". <.o.o.o.o.[ k . . H . X $ . <.<.<.<.<.4..     ",
". <.o.i g g g g > . L . ; d C . <.<.4.4.4..     ",
". <.o.$.$.$.$.$.o.. 9 o . 2 G U . 4.4.4.4..     ",
". <.o.g g g g g g & . 1 T . i ~ C . 4.4.9..     ",
". <.$.$.$.$.>.>.>.>.T ) T T . M ^ A . 9.9..     ",
". <.$.g g g g k >.<.<.<.) ) S . C #.c . 9..     ",
". 4.>.>.>.>.>.<.<.<.<.4.4.[ E D . M X.e . .     ",
". 4.>.k k k k k k k k n n n [ Q B . m X.< .     ",
". >.>.<.<.<.<.<.<.4.4.4.4.9.9.} Q B . c X.2 .   ",
". E $.4.<.<.<.4.4.4.4.4.9.9.9.9.} Q Z . y X.2 . ",
"  . . . . . . . . . . . . . . . . . . . . y X.. ",
"                                          . .   ",
"                                                ",
"                                                "
};
