/* XPM */
static char *ins_changelog[] = {
/* columns rows colors chars-per-pixel */
"24 24 37 1 ",
"  c None",
". c black",
"X c #161616",
"o c gray25",
"O c #4B4B49",
"+ c #5D5D5D",
"@ c #494066",
"# c #767676",
"$ c gray52",
"% c #A0A0A0",
"& c gray66",
"* c gray68",
"= c #BBBBBB",
"- c #BCBCBC",
"; c gray74",
": c #C1C1C1",
"> c gray76",
", c #C3C3C3",
"< c gray88",
"1 c #E2E2E2",
"2 c gray89",
"3 c #E4E4E4",
"4 c gray90",
"5 c #E6E6E6",
"6 c #E7E7E7",
"7 c gray91",
"8 c #EAEAEA",
"9 c gray92",
"0 c #ECECEC",
"q c gray93",
"w c #EEEEEE",
"e c #EFEFEF",
"r c gray94",
"t c #F1F1F1",
"y c #FBFBFB",
"u c #FDFDFD",
"i c #FEFEFE",
/* pixels */
"                        ",
"                        ",
"  @ @@ @@ @@ @@         ",
"  @                     ",
"              @         ",
"  @           @         ",
"  @                     ",
"           .........    ",
"  @       .iiiiiii2>.   ",
"  @       .itttttt>y&.  ",
"          .itttttt*#+o. ",
"  @       .it@@@@t2$OX. ",
"  @       .iteeeeeeee=. ",
"          .ie@@@@@@@e=. ",
"  @       .ieeeeeeee9=. ",
"  @       .ie@@@@@@@9=. ",
"          .i999999499=. ",
"  @@ @@ @@.i9@@@@@@@4=. ",
"          .i944444444=. ",
"          .i4@@@@@@@4=. ",
"          .i444444222=. ",
"          .>-----====%. ",
"           ...........  ",
"                        "
};
