/* XPM */
static const char *kitchen_sink[] = {
/* columns rows colors chars-per-pixel */
"48 48 2 2 ",
".. c None",
"## c black",
/* pixels */
"................................................................................................",
"................................................................................................",
"..................................................................############........######....",
"..........................................................................####........######....",
"..................................................................##########################....",
"................................................................##....................######....",
"..............................................................##....########################....",
"..............................................................##..##..................######....",
"............................................................##########................######....",
"......................................................................................######....",
"......................................................................................######....",
"......................................................................................######....",
"......................................................................................######....",
"............................................................##........##..............######....",
"............................................................####....####..............######....",
"................................................................####..................######....",
"............##################################################################################..",
"..........##..################################################################################..",
"..........##....############################################################################....",
"..........##......########........########################################################......",
"..........##......######..################################################################......",
"..................######..############......####..####..##################################......",
"..................######..####......##..####..##..####..##################################......",
"..........##......######..########..##..####..##..####..##################################......",
"........####......######..########..##..####..##..####..##################################......",
"..........##......########........####..####..####......##################################......",
"..................########################################################################......",
"..................########################################################################......",
"..................############..........##################################################......",
"........##........############..##########################################################......",
"........####......############..##########....##....####......######....######......######......",
"..........##......############........####..##..##..##..####..####..####..##..############......",
"..................############..##########..##..##..##..####..####..##########....########......",
"..................############..##########..######..##..####..####..####..########..######......",
"..................############..........##..######..####....##..####....####......########......",
"..................########################################################################......",
"..........##........####################################################################........",
"..........##..........################################################################..........",
"........####................................####..####..........................................",
"..............................................##..##........########............................",
"..............................................##..##......##........##..........................",
"..............................................##..##....##....####....##........................",
"..............................................##..##....##..##....##..##........................",
"..........##..................................##....####....##....##..##........................",
"..........##....................................##........##......##..##........................",
"........##..##....................................########........##..##........................",
"..................................................................##..##........................",
"................................................................................................"
};
