/* XPM */
static char *last_page[] = {
/* columns rows colors chars-per-pixel */
"24 24 92 1 ",
"  c None",
". c black",
"X c gray15",
"o c #2F4050",
"O c #344353",
"+ c #3B4F63",
"@ c #384F66",
"# c #3A5067",
"$ c #3C5064",
"% c #3C5065",
"& c #3E5166",
"* c #3F5266",
"= c #3A5168",
"- c #3B5269",
"; c #3D526A",
": c #3E546A",
"> c #3F556B",
", c #3E5975",
"< c #3F5A76",
"1 c #464646",
"2 c #494949",
"3 c #405367",
"4 c #405468",
"5 c #40566C",
"6 c #41576D",
"7 c #42586E",
"8 c #44586F",
"9 c #45596F",
"0 c #465B70",
"q c #415B77",
"w c #425C78",
"e c #435E79",
"r c #445F7A",
"t c #46607B",
"y c #47617B",
"u c #47617C",
"i c #48627D",
"p c #49637D",
"a c #4B647E",
"s c #4C647F",
"d c #4C657F",
"f c gray38",
"g c #6A6A6A",
"h c #616A73",
"j c #68727D",
"k c #7C7C7C",
"l c #4E6780",
"z c #4F6881",
"x c #506982",
"c c #526A83",
"v c #556D85",
"b c #5B7289",
"n c #7D8185",
"m c #77838F",
"M c #868788",
"N c #888888",
"B c #8B8B8B",
"V c #8F9296",
"C c #8F9396",
"Z c #8F9397",
"A c #909397",
"S c #959595",
"D c #91969C",
"F c #91979C",
"G c #92979C",
"H c #92979D",
"J c #9C9FA1",
"K c #9D9FA2",
"L c #A2A3A4",
"P c #A6A6A6",
"I c #ACACAC",
"U c gray68",
"Y c #B0B0B0",
"T c #B2B2B2",
"R c gray71",
"E c #B6B6B6",
"W c gray75",
"Q c #C5C5C5",
"! c gray79",
"~ c gray80",
"^ c LightGray",
"/ c #D6D6D6",
"( c #D8D8D8",
") c #DADADA",
"_ c #DEDEDE",
"` c gray89",
"' c #E5E5E5",
"] c #E6E6E6",
"[ c #EEEEEE",
"{ c #F2F2F2",
"} c #F6F6F6",
"| c white",
/* pixels */
"                        ",
"                        ",
"   ........   ........  ",
"  .vU/_][`!N2gNT~)]{|b. ",
"  .@T/_][}||PUTW~)]{|t. ",
"  .#T/_][}`|PUTW~)]{|t. ",
"  .-T/_][).|PUTW~)]{|t. ",
"  .-T/_]^..|PUTW~)]{|t. ",
"  .;T/_~...|PUTW~)]{|u. ",
"  .>T/Q.....X1fkSR]{|i. ",
"  .>T/_~...|PUTW~)]{|i. ",
"  .5T/_]^..|PUTW~)]{|a. ",
"  .5T/_][).|PUTW~)]{|d. ",
"  .7T/_][}`|PUTW~)]{|d. ",
"  .8T/_][}||PUTW~)]{|l. ",
"  .8R/_][}||PUTW~)]{|z. ",
"  .0MAZZZZZKPLHHHHHKmc. ",
"  .O43&&&&+hnjtrwwq<<c. ",
"  ..........o.........  ",
"           ...          ",
"                        ",
"                        ",
"                        ",
"                        "
};
