/* XPM */
static char *load_changelog[] = {
/* columns rows colors chars-per-pixel */
"24 24 52 1 ",
"  c None",
". c black",
"X c #434343",
"o c gray33",
"O c #DF421E",
"+ c #8B8B8B",
"@ c gray55",
"# c #8D8D8D",
"$ c #8E8E8E",
"% c gray56",
"& c #909090",
"* c gray57",
"= c #929292",
"- c #939393",
"; c gray58",
": c #959595",
"> c gray66",
", c #B7B7B7",
"< c gray74",
"1 c #C0C0C0",
"2 c gray79",
"3 c #CACACA",
"4 c gray84",
"5 c gray85",
"6 c #DADADA",
"7 c #DDDDDD",
"8 c #DFDFDF",
"9 c gray90",
"0 c gray91",
"q c #E9E9E9",
"w c #EAEAEA",
"e c gray92",
"r c #ECECEC",
"t c gray93",
"y c #EEEEEE",
"u c #EFEFEF",
"i c gray94",
"p c #F1F1F1",
"a c gray95",
"s c #F3F3F3",
"d c #F4F4F4",
"f c gray96",
"g c #F6F6F6",
"h c gray97",
"j c #F8F8F8",
"k c #F9F9F9",
"l c gray98",
"z c #FBFBFB",
"x c gray99",
"c c #FDFDFD",
"v c #FEFEFE",
"b c white",
/* pixels */
"  ..  ..  ..  ..        ",
" .d3..51..7>..d,..      ",
" .d00tttttiiiiddd4.     ",
" .d0+$$$$$$&&&$jjt.     ",
" .d00ttiiiidddjjX5.     ",
" .d0$$$&9OOOOcjj........",
" .dttiiidddddjjjo7.    .",
" .dttiiiddddddjjc5.    .",
" .jiidddddjjjcccc7.    .",
" .ji&&&&&&;;;;;cc7.    .",
" .jiiiddddjjjjccc7.    .",
" .ji&&&&&;;;;cccc7.    .",
" .iiidddjjjjccccct.    .",
" .3tjdjjjjjccccct<.    .",
"  ................     .",
"                       .",
"                       .",
"                     . .",
"                    .. .",
"   OOOOOOOOOOOOO  ......",
"   OOOOOOOOOOOOO    ..  ",
"                     .  ",
"                        ",
"                        "
};
