/* XPM */
static char *mh_logo_xpm[] = {
"18 13 2 1",
"# c #666699",
". c None s None",
"........##........",
".......####.......",
"......######......",
"......######......",
"....#########.....",
"..##############..",
".##...######....#.",
"##...#.#.####...#.",
"....#..#.##.#...#.",
"...#..##.#.#.#....",
"...#..#..#..#.#...",
"...#..#.##..#.##..",
"...#..#.#..#....#."
};
