/* XPM */
static char *view_diff[] = {
/* columns rows colors chars-per-pixel */
"24 24 63 1 ",
"  c None",
". c black",
"X c gray43",
"o c #6F6F6F",
"O c gray44",
"+ c #717171",
"@ c #727272",
"# c gray45",
"$ c #747474",
"% c gray46",
"& c #767676",
"* c #777777",
"= c gray47",
"- c #DF421E",
"; c #E3846E",
": c #838383",
"> c gray74",
", c #E19989",
"< c #E29A8A",
"1 c #E39B8B",
"2 c #E59C8B",
"3 c #E49C8C",
"4 c #E4AB9E",
"5 c #E8AEA1",
"6 c #C5C5C5",
"7 c gray79",
"8 c gray81",
"9 c #DADADA",
"0 c gray86",
"q c #DDDDDD",
"w c #EAD4CE",
"e c gray88",
"r c #E1E1E1",
"t c #E2E2E2",
"y c gray89",
"u c #E4E4E4",
"i c gray90",
"p c #E6E6E6",
"a c #E7E7E7",
"s c gray91",
"d c #E9E9E9",
"f c #EAEAEA",
"g c gray92",
"h c #ECECEC",
"j c gray93",
"k c #EEEEEE",
"l c #EFEFEF",
"z c gray94",
"x c #F1F1F1",
"c c gray95",
"v c #F3F3F3",
"b c #F4F4F4",
"n c gray96",
"m c #F6F6F6",
"M c gray97",
"N c #F8F8F8",
"B c #F9F9F9",
"V c gray98",
"C c #FBFBFB",
"Z c gray99",
"A c #FDFDFD",
"S c #FEFEFE",
"D c white",
/* pixels */
" ....................   ",
".tcccccccbbbbbbbbbbbq.  ",
".ctttttiiiidddddhhhhh.  ",
".ctttti8Xidddddhhhhcc.  ",
".cttti8XXdd+++++++ccc.  ",
".ctiiiiiXddhhhhhhcccc.  ",
".c,---id+dd++++++$ccb.  ",
".ci,--dd+dhhhhchcccbb.  ",
".bi-,-dddhh+++$cbcbbb.  ",
".b-4d3dhhhhhccccbbbbb.  ",
".b-ddhhhhhhccccbbbNNN.  ",
".b-ddhhhhccccbbbbNNNN.  ",
".b;-whh6$0cccbbbbNNNN.  ",
".bd2-5h+c$b:$$$$$=NNZ.  ",
".bhhhhccq$bbbbbNNNNZZ.  ",
".bhhhcc0$qb$$$$==NZZZ.  ",
".Nccccc$$$bNNNNNZZZZZ.  ",
".NcccbbbbbNNNZZZZZZZZ.  ",
".ccbbbbbbNNNZZZZZZZZh.  ",
".7hNbbbNNNNNZZZZZZZh>.  ",
" ....................   ",
"                        ",
"                        ",
"                        "
};
