<?xml version="1.0" encoding="UTF-8" standalone="no"?>
<!-- Created with Inkscape (http://www.inkscape.org/) -->

<svg
   xmlns:dc="http://purl.org/dc/elements/1.1/"
   xmlns:cc="http://creativecommons.org/ns#"
   xmlns:rdf="http://www.w3.org/1999/02/22-rdf-syntax-ns#"
   xmlns:svg="http://www.w3.org/2000/svg"
   xmlns="http://www.w3.org/2000/svg"
   xmlns:sodipodi="http://sodipodi.sourceforge.net/DTD/sodipodi-0.dtd"
   xmlns:inkscape="http://www.inkscape.org/namespaces/inkscape"
   width="640"
   height="370"
   id="svg2"
   version="1.1"
   inkscape:version="0.48.2 r9819"
   sodipodi:docname="copying.svg">
  <defs
     id="defs4">
    <marker
       inkscape:stockid="Arrow1Lend"
       orient="auto"
       refY="0"
       refX="0"
       id="Arrow1Lend"
       style="overflow:visible">
      <path
         id="path3656"
         d="M 0,0 5,-5 -12.5,0 5,5 0,0 z"
         style="fill-rule:evenodd;stroke:#000000;stroke-width:1pt;marker-start:none"
         transform="matrix(-0.8,0,0,-0.8,-10,0)" />
    </marker>
    <marker
       inkscape:stockid="Arrow1Mend"
       orient="auto"
       refY="0"
       refX="0"
       id="Arrow1Mend"
       style="overflow:visible">
      <path
         id="path3662"
         d="M 0,0 5,-5 -12.5,0 5,5 0,0 z"
         style="fill-rule:evenodd;stroke:#000000;stroke-width:1pt;marker-start:none"
         transform="matrix(-0.4,0,0,-0.4,-4,0)" />
    </marker>
    <inkscape:perspective
       sodipodi:type="inkscape:persp3d"
       inkscape:vp_x="0 : 526.18109 : 1"
       inkscape:vp_y="0 : 1000 : 0"
       inkscape:vp_z="744.09448 : 526.18109 : 1"
       inkscape:persp3d-origin="372.04724 : 350.78739 : 1"
       id="perspective10" />
  </defs>
  <sodipodi:namedview
     id="base"
     pagecolor="#ffffff"
     bordercolor="#666666"
     borderopacity="1.0"
     inkscape:pageopacity="0.0"
     inkscape:pageshadow="2"
     inkscape:zoom="1"
     inkscape:cx="364.81405"
     inkscape:cy="151.5"
     inkscape:document-units="px"
     inkscape:current-layer="layer1"
     showgrid="true"
     inkscape:window-width="1235"
     inkscape:window-height="754"
     inkscape:window-x="14"
     inkscape:window-y="0"
     inkscape:window-maximized="0">
    <inkscape:grid
       type="xygrid"
       id="grid2816"
       empspacing="5"
       visible="true"
       enabled="true"
       snapvisiblegridlinesonly="true" />
  </sodipodi:namedview>
  <metadata
     id="metadata7">
    <rdf:RDF>
      <cc:Work
         rdf:about="">
        <dc:format>image/svg+xml</dc:format>
        <dc:type
           rdf:resource="http://purl.org/dc/dcmitype/StillImage" />
      </cc:Work>
    </rdf:RDF>
  </metadata>
  <g
     inkscape:label="Layer 1"
     inkscape:groupmode="layer"
     id="layer1"
     transform="translate(-99.5,-132.86218)">
    <rect
       style="fill:none;stroke:#000000;stroke-opacity:1"
       id="rect2818"
       width="120"
       height="150"
       x="109.5"
       y="242.86218" />
    <rect
       y="242.86218"
       x="289.5"
       height="150"
       width="120"
       id="rect3610"
       style="fill:none;stroke:#000000;stroke-opacity:1" />
    <rect
       style="fill:none;stroke:#000000;stroke-opacity:1"
       id="rect3630"
       width="120"
       height="150"
       x="429.5"
       y="242.86218" />
    <path
       style="fill:none;stroke:#000000;stroke-width:1px;stroke-linecap:butt;stroke-linejoin:miter;stroke-opacity:1;marker-end:url(#Arrow1Lend)"
       d="m 169.5,212.86218 18,78"
       id="path3604"
       sodipodi:nodetypes="cc" />
    <path
       style="fill:none;stroke:#000000;stroke-width:1px;stroke-linecap:butt;stroke-linejoin:miter;stroke-opacity:1;marker-end:url(#Arrow1Lend)"
       d="m 189.5,302.86218 8,40"
       id="path3606"
       sodipodi:nodetypes="cc" />
    <path
       style="fill:none;stroke:#000000;stroke-width:1px;stroke-linecap:butt;stroke-linejoin:miter;stroke-opacity:1;marker-end:url(#Arrow1Lend)"
       d="m 169.5,212.86218 -34,52"
       id="path3608"
       sodipodi:nodetypes="cc" />
    <path
       style="fill:#d40000;stroke:#d40000;stroke-width:1px;stroke-linecap:butt;stroke-linejoin:miter;stroke-opacity:1;marker-end:url(#Arrow1Lend)"
       d="m 309.5,272.86218 130,0"
       id="path4307" />
    <path
       style="fill:#d40000;stroke:#d40000;stroke-width:1px;stroke-linecap:butt;stroke-linejoin:miter;stroke-opacity:1;marker-end:url(#Arrow1Lend)"
       d="m 369.5,312.86218 110,-34"
       id="path4309"
       sodipodi:nodetypes="cc" />
    <path
       style="fill:#d40000;stroke:#d40000;stroke-width:1px;stroke-linecap:butt;stroke-linejoin:miter;stroke-opacity:1;marker-end:url(#Arrow1Lend)"
       d="m 379.5,351.86218 142,-71"
       id="path4311"
       sodipodi:nodetypes="cc" />
    <path
       sodipodi:type="arc"
       style="fill:#000000;fill-opacity:1;stroke:#000000;stroke-width:1;stroke-linecap:butt;stroke-miterlimit:4;stroke-opacity:1;stroke-dasharray:none;stroke-dashoffset:0"
       id="path3592"
       sodipodi:cx="280"
       sodipodi:cy="222.36218"
       sodipodi:rx="10"
       sodipodi:ry="10"
       d="m 290,222.36218 c 0,5.52285 -4.47715,10 -10,10 -5.52285,0 -10,-4.47715 -10,-10 0,-5.52284 4.47715,-10 10,-10 5.52285,0 10,4.47716 10,10 z"
       transform="translate(-150.5,50.499997)" />
    <path
       transform="translate(-130.5,100.5)"
       d="m 290,222.36218 c 0,5.52285 -4.47715,10 -10,10 -5.52285,0 -10,-4.47715 -10,-10 0,-5.52284 4.47715,-10 10,-10 5.52285,0 10,4.47716 10,10 z"
       sodipodi:ry="10"
       sodipodi:rx="10"
       sodipodi:cy="222.36218"
       sodipodi:cx="280"
       id="path3594"
       style="fill:#ffffff;fill-opacity:1;stroke:#000000;stroke-width:1;stroke-linecap:butt;stroke-miterlimit:4;stroke-opacity:1;stroke-dasharray:none;stroke-dashoffset:0"
       sodipodi:type="arc" />
    <path
       sodipodi:type="arc"
       style="fill:#000000;fill-opacity:1;stroke:#000000;stroke-width:1;stroke-linecap:butt;stroke-miterlimit:4;stroke-opacity:1;stroke-dasharray:none;stroke-dashoffset:0"
       id="path3596"
       sodipodi:cx="280"
       sodipodi:cy="222.36218"
       sodipodi:rx="10"
       sodipodi:ry="10"
       d="m 290,222.36218 c 0,5.52285 -4.47715,10 -10,10 -5.52285,0 -10,-4.47715 -10,-10 0,-5.52284 4.47715,-10 10,-10 5.52285,0 10,4.47716 10,10 z"
       transform="translate(-90.5,80.499997)" />
    <path
       sodipodi:type="arc"
       style="fill:#ffffff;fill-opacity:1;stroke:#000000;stroke-width:1;stroke-linecap:butt;stroke-miterlimit:4;stroke-opacity:1;stroke-dasharray:none;stroke-dashoffset:0"
       id="path3598"
       sodipodi:cx="280"
       sodipodi:cy="222.36218"
       sodipodi:rx="10"
       sodipodi:ry="10"
       d="m 290,222.36218 c 0,5.52285 -4.47715,10 -10,10 -5.52285,0 -10,-4.47715 -10,-10 0,-5.52284 4.47715,-10 10,-10 5.52285,0 10,4.47716 10,10 z"
       transform="translate(-120.5,150.5)" />
    <path
       transform="translate(-80.5,130.5)"
       d="m 290,222.36218 c 0,5.52285 -4.47715,10 -10,10 -5.52285,0 -10,-4.47715 -10,-10 0,-5.52284 4.47715,-10 10,-10 5.52285,0 10,4.47716 10,10 z"
       sodipodi:ry="10"
       sodipodi:rx="10"
       sodipodi:cy="222.36218"
       sodipodi:cx="280"
       id="path3600"
       style="fill:#000000;fill-opacity:1;stroke:#000000;stroke-width:1;stroke-linecap:butt;stroke-miterlimit:4;stroke-opacity:1;stroke-dasharray:none;stroke-dashoffset:0"
       sodipodi:type="arc" />
    <path
       transform="translate(-110.5,-9.5000026)"
       d="m 290,222.36218 c 0,5.52285 -4.47715,10 -10,10 -5.52285,0 -10,-4.47715 -10,-10 0,-5.52284 4.47715,-10 10,-10 5.52285,0 10,4.47716 10,10 z"
       sodipodi:ry="10"
       sodipodi:rx="10"
       sodipodi:cy="222.36218"
       sodipodi:cx="280"
       id="path3602"
       style="fill:#000000;fill-opacity:1;stroke:#000000;stroke-width:1;stroke-linecap:butt;stroke-miterlimit:4;stroke-opacity:1;stroke-dasharray:none;stroke-dashoffset:0"
       sodipodi:type="arc" />
    <path
       transform="translate(29.5,50.499997)"
       d="m 290,222.36218 c 0,5.52285 -4.47715,10 -10,10 -5.52285,0 -10,-4.47715 -10,-10 0,-5.52284 4.47715,-10 10,-10 5.52285,0 10,4.47716 10,10 z"
       sodipodi:ry="10"
       sodipodi:rx="10"
       sodipodi:cy="222.36218"
       sodipodi:cx="280"
       id="path3612"
       style="fill:#d40000;fill-opacity:1;stroke:#000000;stroke-width:1;stroke-linecap:butt;stroke-miterlimit:4;stroke-opacity:1;stroke-dasharray:none;stroke-dashoffset:0"
       sodipodi:type="arc" />
    <path
       sodipodi:type="arc"
       style="fill:#ffffff;fill-opacity:1;stroke:#000000;stroke-width:1;stroke-linecap:butt;stroke-miterlimit:4;stroke-opacity:1;stroke-dasharray:none;stroke-dashoffset:0"
       id="path3614"
       sodipodi:cx="280"
       sodipodi:cy="222.36218"
       sodipodi:rx="10"
       sodipodi:ry="10"
       d="m 290,222.36218 c 0,5.52285 -4.47715,10 -10,10 -5.52285,0 -10,-4.47715 -10,-10 0,-5.52284 4.47715,-10 10,-10 5.52285,0 10,4.47716 10,10 z"
       transform="translate(49.5,100.5)" />
    <path
       transform="translate(89.5,90.499997)"
       d="m 290,222.36218 c 0,5.52285 -4.47715,10 -10,10 -5.52285,0 -10,-4.47715 -10,-10 0,-5.52284 4.47715,-10 10,-10 5.52285,0 10,4.47716 10,10 z"
       sodipodi:ry="10"
       sodipodi:rx="10"
       sodipodi:cy="222.36218"
       sodipodi:cx="280"
       id="path3616"
       style="fill:#d40000;fill-opacity:1;stroke:#000000;stroke-width:1;stroke-linecap:butt;stroke-miterlimit:4;stroke-opacity:1;stroke-dasharray:none;stroke-dashoffset:0"
       sodipodi:type="arc" />
    <path
       transform="translate(59.5,150.5)"
       d="m 290,222.36218 c 0,5.52285 -4.47715,10 -10,10 -5.52285,0 -10,-4.47715 -10,-10 0,-5.52284 4.47715,-10 10,-10 5.52285,0 10,4.47716 10,10 z"
       sodipodi:ry="10"
       sodipodi:rx="10"
       sodipodi:cy="222.36218"
       sodipodi:cx="280"
       id="path3618"
       style="fill:#ffffff;fill-opacity:1;stroke:#000000;stroke-width:1;stroke-linecap:butt;stroke-miterlimit:4;stroke-opacity:1;stroke-dasharray:none;stroke-dashoffset:0"
       sodipodi:type="arc" />
    <path
       sodipodi:type="arc"
       style="fill:#d40000;fill-opacity:1;stroke:#000000;stroke-width:1;stroke-linecap:butt;stroke-miterlimit:4;stroke-opacity:1;stroke-dasharray:none;stroke-dashoffset:0"
       id="path3620"
       sodipodi:cx="280"
       sodipodi:cy="222.36218"
       sodipodi:rx="10"
       sodipodi:ry="10"
       d="m 290,222.36218 c 0,5.52285 -4.47715,10 -10,10 -5.52285,0 -10,-4.47715 -10,-10 0,-5.52284 4.47715,-10 10,-10 5.52285,0 10,4.47716 10,10 z"
       transform="translate(99.5,130.5)" />
    <path
       transform="translate(169.5,50.499997)"
       d="m 290,222.36218 c 0,5.52285 -4.47715,10 -10,10 -5.52285,0 -10,-4.47715 -10,-10 0,-5.52284 4.47715,-10 10,-10 5.52285,0 10,4.47716 10,10 z"
       sodipodi:ry="10"
       sodipodi:rx="10"
       sodipodi:cy="222.36218"
       sodipodi:cx="280"
       id="path3634"
       style="fill:#000000;fill-opacity:1;stroke:#000000;stroke-width:1;stroke-linecap:butt;stroke-miterlimit:4;stroke-opacity:1;stroke-dasharray:none;stroke-dashoffset:0"
       sodipodi:type="arc" />
    <path
       sodipodi:type="arc"
       style="fill:#000000;fill-opacity:1;stroke:#000000;stroke-width:1;stroke-linecap:butt;stroke-miterlimit:4;stroke-opacity:1;stroke-dasharray:none;stroke-dashoffset:0"
       id="path3636"
       sodipodi:cx="280"
       sodipodi:cy="222.36218"
       sodipodi:rx="10"
       sodipodi:ry="10"
       d="m 290,222.36218 c 0,5.52285 -4.47715,10 -10,10 -5.52285,0 -10,-4.47715 -10,-10 0,-5.52284 4.47715,-10 10,-10 5.52285,0 10,4.47716 10,10 z"
       transform="translate(209.5,50.499997)" />
    <path
       transform="translate(249.5,50.499997)"
       d="m 290,222.36218 c 0,5.52285 -4.47715,10 -10,10 -5.52285,0 -10,-4.47715 -10,-10 0,-5.52284 4.47715,-10 10,-10 5.52285,0 10,4.47716 10,10 z"
       sodipodi:ry="10"
       sodipodi:rx="10"
       sodipodi:cy="222.36218"
       sodipodi:cx="280"
       id="path3640"
       style="fill:#000000;fill-opacity:1;stroke:#000000;stroke-width:1;stroke-linecap:butt;stroke-miterlimit:4;stroke-opacity:1;stroke-dasharray:none;stroke-dashoffset:0"
       sodipodi:type="arc" />
    <path
       transform="translate(209.5,-9.5000026)"
       d="m 290,222.36218 c 0,5.52285 -4.47715,10 -10,10 -5.52285,0 -10,-4.47715 -10,-10 0,-5.52284 4.47715,-10 10,-10 5.52285,0 10,4.47716 10,10 z"
       sodipodi:ry="10"
       sodipodi:rx="10"
       sodipodi:cy="222.36218"
       sodipodi:cx="280"
       id="path3642"
       style="fill:#000000;fill-opacity:1;stroke:#000000;stroke-width:1;stroke-linecap:butt;stroke-miterlimit:4;stroke-opacity:1;stroke-dasharray:none;stroke-dashoffset:0"
       sodipodi:type="arc" />
    <path
       style="fill:none;stroke:#000000;stroke-width:1px;stroke-linecap:butt;stroke-linejoin:miter;stroke-opacity:1;marker-end:url(#Arrow1Lend)"
       d="m 489.5,212.86218 0,50"
       id="path3644"
       sodipodi:nodetypes="cc" />
    <path
       style="fill:none;stroke:#000000;stroke-width:1px;stroke-linecap:butt;stroke-linejoin:miter;stroke-opacity:1;marker-end:url(#Arrow1Lend)"
       d="m 499.5,272.86218 20,0"
       id="path3646"
       sodipodi:nodetypes="cc"
       inkscape:connector-curvature="0" />
    <path
       style="fill:none;stroke:#000000;stroke-width:1px;stroke-linecap:butt;stroke-linejoin:miter;stroke-opacity:1;marker-end:url(#Arrow1Lend)"
       d="m 489.5,212.86218 -40,50"
       id="path3648"
       sodipodi:nodetypes="cc" />
    <text
       xml:space="preserve"
       style="font-size:16px;font-style:normal;font-variant:normal;font-weight:normal;font-stretch:normal;text-align:start;line-height:125%;writing-mode:lr-tb;text-anchor:start;fill:#000000;fill-opacity:1;stroke:none;font-family:Verdana;-inkscape-font-specification:Verdana"
       x="117.5"
       y="218.86218"
       id="text4871"
       sodipodi:linespacing="125%"><tspan
         sodipodi:role="line"
         id="tspan4873"
         x="117.5"
         y="218.86218">root</tspan></text>
    <text
       sodipodi:linespacing="125%"
       id="text4875"
       y="218.86218"
       x="437.5"
       style="font-size:16px;font-style:normal;font-variant:normal;font-weight:normal;font-stretch:normal;text-align:start;line-height:125%;writing-mode:lr-tb;text-anchor:start;fill:#000000;fill-opacity:1;stroke:none;font-family:Verdana;-inkscape-font-specification:Verdana"
       xml:space="preserve"><tspan
         y="218.86218"
         x="437.5"
         id="tspan4877"
         sodipodi:role="line">root</tspan></text>
    <path
       transform="translate(39.5,230.5)"
       d="m 290,222.36218 c 0,5.52285 -4.47715,10 -10,10 -5.52285,0 -10,-4.47715 -10,-10 0,-5.52284 4.47715,-10 10,-10 5.52285,0 10,4.47716 10,10 z"
       sodipodi:ry="10"
       sodipodi:rx="10"
       sodipodi:cy="222.36218"
       sodipodi:cx="280"
       id="path4879"
       style="fill:#ffffff;fill-opacity:1;stroke:#000000;stroke-width:1;stroke-linecap:butt;stroke-miterlimit:4;stroke-opacity:1;stroke-dasharray:none;stroke-dashoffset:0"
       sodipodi:type="arc" />
    <path
       transform="translate(39.5,200.5)"
       d="m 290,222.36218 c 0,5.52285 -4.47715,10 -10,10 -5.52285,0 -10,-4.47715 -10,-10 0,-5.52284 4.47715,-10 10,-10 5.52285,0 10,4.47716 10,10 z"
       sodipodi:ry="10"
       sodipodi:rx="10"
       sodipodi:cy="222.36218"
       sodipodi:cx="280"
       id="path4881"
       style="fill:#000000;fill-opacity:1;stroke:#000000;stroke-width:1;stroke-linecap:butt;stroke-miterlimit:4;stroke-opacity:1;stroke-dasharray:none;stroke-dashoffset:0"
       sodipodi:type="arc" />
    <path
       sodipodi:type="arc"
       style="fill:#d40000;fill-opacity:1;stroke:#000000;stroke-width:1;stroke-linecap:butt;stroke-miterlimit:4;stroke-opacity:1;stroke-dasharray:none;stroke-dashoffset:0"
       id="path4883"
       sodipodi:cx="280"
       sodipodi:cy="222.36218"
       sodipodi:rx="10"
       sodipodi:ry="10"
       d="m 290,222.36218 c 0,5.52285 -4.47715,10 -10,10 -5.52285,0 -10,-4.47715 -10,-10 0,-5.52284 4.47715,-10 10,-10 5.52285,0 10,4.47716 10,10 z"
       transform="translate(39.5,260.5)" />
    <text
       sodipodi:linespacing="125%"
       id="text4885"
       y="428.86218"
       x="339.5"
       style="font-size:16px;font-style:normal;font-variant:normal;font-weight:normal;font-stretch:normal;text-align:start;line-height:125%;writing-mode:lr-tb;text-anchor:start;fill:#000000;fill-opacity:1;stroke:none;font-family:Verdana;-inkscape-font-specification:Verdana"
       xml:space="preserve"><tspan
         y="428.86218"
         x="339.5"
         id="tspan4887"
         sodipodi:role="line">reachable (live) object</tspan></text>
    <text
       xml:space="preserve"
       style="font-size:16px;font-style:normal;font-variant:normal;font-weight:normal;font-stretch:normal;text-align:start;line-height:125%;writing-mode:lr-tb;text-anchor:start;fill:#000000;fill-opacity:1;stroke:none;font-family:Verdana;-inkscape-font-specification:Verdana"
       x="339.5"
       y="458.86218"
       id="text4889"
       sodipodi:linespacing="125%"><tspan
         sodipodi:role="line"
         id="tspan4891"
         x="339.5"
         y="458.86218">unreachable (dead) object</tspan></text>
    <text
       sodipodi:linespacing="125%"
       id="text4893"
       y="488.86218"
       x="339.5"
       style="font-size:16px;font-style:normal;font-variant:normal;font-weight:normal;font-stretch:normal;text-align:start;line-height:125%;writing-mode:lr-tb;text-anchor:start;fill:#000000;fill-opacity:1;stroke:none;font-family:Verdana;-inkscape-font-specification:Verdana"
       xml:space="preserve"><tspan
         y="488.86218"
         x="339.5"
         id="tspan4895"
         sodipodi:role="line">forwarding object</tspan></text>
    <text
       xml:space="preserve"
       style="font-size:16px;font-style:normal;font-variant:normal;font-weight:normal;font-stretch:normal;text-align:center;line-height:125%;writing-mode:lr-tb;text-anchor:middle;fill:#000000;fill-opacity:1;stroke:none;font-family:Verdana;-inkscape-font-specification:Verdana"
       x="170.19336"
       y="162.86218"
       id="text4897"
       sodipodi:linespacing="125%"><tspan
         sodipodi:role="line"
         id="tspan4899"
         x="170.19336"
         y="162.86218">Before</tspan><tspan
         sodipodi:role="line"
         x="170.19336"
         y="182.86218"
         id="tspan4901">collection</tspan></text>
    <text
       sodipodi:linespacing="125%"
       id="text4903"
       y="162.86218"
       x="420.40625"
       style="font-size:16px;font-style:normal;font-variant:normal;font-weight:normal;font-stretch:normal;text-align:center;line-height:125%;writing-mode:lr-tb;text-anchor:middle;fill:#000000;fill-opacity:1;stroke:none;font-family:Verdana;-inkscape-font-specification:Verdana"
       xml:space="preserve"><tspan
         sodipodi:role="line"
         id="tspan3647"
         x="420.40625"
         y="162.86218">During</tspan><tspan
         sodipodi:role="line"
         id="tspan3649"
         x="420.40625"
         y="182.86218">collection</tspan></text>
    <rect
       y="242.86218"
       x="609.5"
       height="150"
       width="120"
       id="rect3651"
       style="fill:none;stroke:#000000;stroke-opacity:1" />
    <path
       sodipodi:type="arc"
       style="fill:#000000;fill-opacity:1;stroke:#000000;stroke-width:1;stroke-linecap:butt;stroke-miterlimit:4;stroke-opacity:1;stroke-dasharray:none;stroke-dashoffset:0"
       id="path3653"
       sodipodi:cx="280"
       sodipodi:cy="222.36218"
       sodipodi:rx="10"
       sodipodi:ry="10"
       d="m 290,222.36218 c 0,5.52285 -4.47715,10 -10,10 -5.52285,0 -10,-4.47715 -10,-10 0,-5.52284 4.47715,-10 10,-10 5.52285,0 10,4.47716 10,10 z"
       transform="translate(349.5,50.499997)" />
    <path
       transform="translate(389.5,50.499997)"
       d="m 290,222.36218 c 0,5.52285 -4.47715,10 -10,10 -5.52285,0 -10,-4.47715 -10,-10 0,-5.52284 4.47715,-10 10,-10 5.52285,0 10,4.47716 10,10 z"
       sodipodi:ry="10"
       sodipodi:rx="10"
       sodipodi:cy="222.36218"
       sodipodi:cx="280"
       id="path3655"
       style="fill:#000000;fill-opacity:1;stroke:#000000;stroke-width:1;stroke-linecap:butt;stroke-miterlimit:4;stroke-opacity:1;stroke-dasharray:none;stroke-dashoffset:0"
       sodipodi:type="arc" />
    <path
       sodipodi:type="arc"
       style="fill:#000000;fill-opacity:1;stroke:#000000;stroke-width:1;stroke-linecap:butt;stroke-miterlimit:4;stroke-opacity:1;stroke-dasharray:none;stroke-dashoffset:0"
       id="path3657"
       sodipodi:cx="280"
       sodipodi:cy="222.36218"
       sodipodi:rx="10"
       sodipodi:ry="10"
       d="m 290,222.36218 c 0,5.52285 -4.47715,10 -10,10 -5.52285,0 -10,-4.47715 -10,-10 0,-5.52284 4.47715,-10 10,-10 5.52285,0 10,4.47716 10,10 z"
       transform="translate(429.5,50.499997)" />
    <path
       sodipodi:type="arc"
       style="fill:#000000;fill-opacity:1;stroke:#000000;stroke-width:1;stroke-linecap:butt;stroke-miterlimit:4;stroke-opacity:1;stroke-dasharray:none;stroke-dashoffset:0"
       id="path3659"
       sodipodi:cx="280"
       sodipodi:cy="222.36218"
       sodipodi:rx="10"
       sodipodi:ry="10"
       d="m 290,222.36218 c 0,5.52285 -4.47715,10 -10,10 -5.52285,0 -10,-4.47715 -10,-10 0,-5.52284 4.47715,-10 10,-10 5.52285,0 10,4.47716 10,10 z"
       transform="translate(389.5,-9.5000022)" />
    <path
       sodipodi:nodetypes="cc"
       id="path3661"
       d="m 669.5,212.86218 0,50"
       style="fill:none;stroke:#000000;stroke-width:1px;stroke-linecap:butt;stroke-linejoin:miter;stroke-opacity:1;marker-end:url(#Arrow1Lend)" />
    <path
       sodipodi:nodetypes="cc"
       id="path3663"
       d="m 679.5,272.86218 20,0"
       style="fill:none;stroke:#000000;stroke-width:1px;stroke-linecap:butt;stroke-linejoin:miter;stroke-opacity:1;marker-end:url(#Arrow1Lend)"
       inkscape:connector-curvature="0" />
    <path
       sodipodi:nodetypes="cc"
       id="path3665"
       d="m 669.5,212.86218 -40,50"
       style="fill:none;stroke:#000000;stroke-width:1px;stroke-linecap:butt;stroke-linejoin:miter;stroke-opacity:1;marker-end:url(#Arrow1Lend)" />
    <text
       xml:space="preserve"
       style="font-size:16px;font-style:normal;font-variant:normal;font-weight:normal;font-stretch:normal;text-align:start;line-height:125%;writing-mode:lr-tb;text-anchor:start;fill:#000000;fill-opacity:1;stroke:none;font-family:Verdana;-inkscape-font-specification:Verdana"
       x="617.5"
       y="218.86218"
       id="text3667"
       sodipodi:linespacing="125%"><tspan
         sodipodi:role="line"
         id="tspan3669"
         x="617.5"
         y="218.86218">root</tspan></text>
    <text
       xml:space="preserve"
       style="font-size:16px;font-style:normal;font-variant:normal;font-weight:normal;font-stretch:normal;text-align:center;line-height:125%;writing-mode:lr-tb;text-anchor:middle;fill:#000000;fill-opacity:1;stroke:none;font-family:Verdana;-inkscape-font-specification:Verdana"
       x="670.40625"
       y="162.86218"
       id="text3671"
       sodipodi:linespacing="125%"><tspan
         sodipodi:role="line"
         id="tspan3677"
         x="670.40625"
         y="162.86218">After</tspan><tspan
         sodipodi:role="line"
         id="tspan3679"
         x="670.40625"
         y="182.86218">collection</tspan></text>
  </g>
</svg>
