<svg width="16" height="16" viewBox="0 0 16 16"  xmlns="http://www.w3.org/2000/svg">
<style>svg {fill: currentColor;}</style>
<path fill-rule="evenodd" clip-rule="evenodd" d="M15 8C15 11.866 11.866 15 8 15C4.13401 15 1 11.866 1 8C1 4.13401 4.13401 1 8 1C11.866 1 15 4.13401 15 8ZM13 8C13 10.7614 10.7614 13 8 13C5.23858 13 3 10.7614 3 8C3 5.23858 5.23858 3 8 3C10.7614 3 13 5.23858 13 8ZM9.76777 4.81802L11.182 6.23223L9.41421 8L11.182 9.76777L9.76777 11.182L8 9.41421L6.23223 11.182L4.81802 9.76777L6.58579 8L4.81802 6.23223L6.23223 4.81802L8 6.58579L9.76777 4.81802Z" />
</svg>
