/* XPM */
static char *dummy[]={
"24 24 88 2",
"Qt c None",
".a c None",
".b c None",
".# c None",
".D c #6a4206",
".E c #6c470a",
"#v c #764800",
"#u c #7d510a",
".c c #813f40",
".B c #825307",
".A c #85570c",
".d c #8f5902",
".y c #9a691a",
".x c #9b6b1c",
".K c #b28235",
".I c #b2833b",
".J c #b38338",
".e c #b93e3e",
".L c #bd8a3e",
".C c #c29147",
".s c #c2a473",
".M c #c89548",
".X c #cf9640",
".W c #cf9641",
".Y c #cf9740",
".Z c #cf9741",
".z c #cfa462",
".Q c #d0b78b",
"#b c #d19b4a",
".2 c #d29a46",
".0 c #d29b46",
".3 c #d29b47",
".V c #d29e50",
".T c #d29e51",
".U c #d29f51",
".S c #d29f52",
".1 c #d39b46",
"#k c #d4a04e",
".w c #d4b078",
".5 c #d59f4c",
".H c #d5ae74",
".6 c #d69f4c",
"#n c #d7a354",
".4 c #d7b074",
"#a c #d8a352",
"#o c #d8a354",
".8 c #d8a452",
"## c #d9a351",
".9 c #d9a352",
"#. c #d9a452",
"#c c #dab47b",
".P c #dbc6a6",
"#i c #dca757",
"#h c #dca758",
"#e c #dca857",
"#g c #dca858",
"#j c #dda757",
"#f c #dda857",
".7 c #ddb77e",
".O c #ddccaf",
".F c #dfb677",
"#l c #dfbb83",
".t c #e1bb81",
".N c #e1c9a3",
"#d c #e3be87",
"#p c #e3c08a",
"#t c #e5cba0",
".R c #e5ceab",
".f c #e6d4b7",
".r c #e7d7be",
"#m c #e8c792",
".G c #e8c797",
".u c #ebdbc2",
"#s c #eccd9d",
"#r c #eccd9e",
".m c #ecfaeb",
"#q c #eed5ac",
".v c #efe4d2",
".g c #f0fbf0",
".q c #f5efe4",
".j c #f8fdf8",
".o c #f9fdf8",
".n c #f9fdf9",
".i c #fafefa",
".h c #fcfefc",
".p c #fdfefd",
".l c #fefefe",
".k c #ffffff",
"QtQtQtQtQtQtQtQtQtQtQtQtQtQt.#.a.b.c.c.c.cQtQtQt",
"QtQtQtQtQtQtQtQtQtQtQtQtQt.d.dQt.c.e.e.e.e.cQtQt",
"QtQtQtQtQtQtQtQtQtQtQtQtQt.d.f.c.e.e.e.e.e.e.cQt",
"QtQtQtQtQtQtQtQtQtQtQtQtQt.d.c.e.e.e.e.e.e.e.e.c",
"QtQtQtQtQtQtQtQtQtQtQtQtQt.d.c.e.g.h.i.j.k.l.e.c",
"QtQtQtQtQtQtQtQtQtQtQtQtQt.d.c.e.m.n.i.o.k.p.e.c",
"QtQtQtQt.d.d.d.d.d.d.d.d.d.d.c.e.e.e.e.e.e.e.e.c",
"QtQtQtQt.d.q.q.q.q.q.q.q.r.s.t.c.e.e.e.e.e.e.cQt",
"QtQtQtQt.d.q.u.u.u.u.u.v.w.x.y.t.c.e.e.e.e.cQtQt",
"QtQtQtQt.d.q.u.u.u.u.u.v.z.A.B.A.t.c.c.c.cQtQtQt",
"QtQtQtQt.d.u.q.q.q.q.q.q.C.D.D.E.E.F.G.dQtQtQtQt",
"QtQtQtQt.d.H.I.J.K.L.L.M.N.O.P.P.P.Q.R.dQtQtQtQt",
"QtQtQtQt.d.H.S.T.U.V.V.V.V.V.V.V.V.V.H.dQtQtQtQt",
"QtQtQtQt.d.H.W.X.W.X.X.Y.Y.Z.Y.Z.X.Z.H.dQtQtQtQt",
"QtQtQtQt.d.H.0.1.1.0.2.3.0.2.0.3.0.3.H.dQtQtQtQt",
"QtQtQtQt.d.4.5.6.6.6.6.5.6.6.6.5.6.5.H.dQtQtQtQt",
"QtQtQtQt.d.7.8.9#.#.#.#.##.8#a##.9#b#c.dQtQtQtQt",
"QtQtQtQt.d#d#e#f#g#e#f#g#e#g#h#i#j#k#l.dQtQtQtQt",
"QtQtQtQt.d#m#n#n#o#n#o#n#n#o#n#o#n#o#p.dQtQtQtQt",
"QtQtQtQt.d#q#r#r#r#r#r#r#r#r#r#r#s#r#t.dQtQtQtQt",
"QtQtQtQt#u.d.d.d.d.d.d.d.d.d.d.d.d.d.d#vQtQtQtQt",
"QtQtQtQtQtQtQtQtQtQtQtQtQtQtQtQtQtQtQtQtQtQtQtQt",
"QtQtQtQtQtQtQtQtQtQtQtQtQtQtQtQtQtQtQtQtQtQtQtQt",
"QtQtQtQtQtQtQtQtQtQtQtQtQtQtQtQtQtQtQtQtQtQtQtQt"};
