/* XPM */
static char *dummy[]={
"24 24 41 1",
". c None",
"i c #002a0a",
"a c #00390d",
"# c #003c0e",
"c c #004310",
"o c #005213",
"j c #133f13",
"e c #1a3b1a",
"l c #2d392d",
"L c #485c46",
"t c #587055",
"v c #5b9159",
"y c #5d905b",
"D c #63a261",
"x c #67af67",
"C c #67af68",
"H c #6b8868",
"K c #6ba368",
"q c #6d9d6c",
"n c #6fae6e",
"s c #6faf6f",
"h c #70a770",
"G c #75af74",
"k c #77a676",
"J c #7db17b",
"F c #82b881",
"M c #89ba88",
"f c #8aba88",
"b c #8bbb8c",
"A c #93be92",
"I c #9dc39d",
"z c #9fc59d",
"p c #a8cba6",
"d c #abd0ac",
"g c #b4d5b4",
"B c #b5d1b5",
"u c #b8d6b8",
"E c #bbd6ba",
"m c #cbdfcb",
"r c #d0e4d0",
"w c #d4e4d4",
"........................",
"........................",
"........................",
"........................",
"........................",
"........................",
"..................#.....",
".................###....",
"................ab#.....",
"......cc.......ade......",
"......cfc.....aghi......",
".......jkc...lmni.......",
".......opqc.crsti.......",
"........ouvcwxyi........",
"........ozABCDti........",
".........oEFGHi.........",
".........oIJKLi.........",
"..........oMHi..........",
"..........oHLi..........",
"...........ii...........",
"........................",
"........................",
"........................",
"........................"};
