/* XPM */
static char *dummy[]={
"24 24 63 1",
". c None",
"8 c #7d510a",
"z c #825307",
"y c #85570c",
"# c #8f5902",
"b c #97610b",
"v c #9a691a",
"u c #9b6b1c",
"F c #b28235",
"D c #b2833b",
"E c #b38338",
"h c #b47e2b",
"f c #b98330",
"G c #bd8a3e",
"e c #be8835",
"B c #bf7200",
"A c #c29147",
"n c #c2a473",
"i c #c48e3b",
"H c #c89548",
"g c #ca9442",
"P c #cf9640",
"O c #cf9641",
"x c #cfa462",
"p c #d19b4a",
"Q c #d29b46",
"M c #d29e50",
"K c #d29e51",
"L c #d29f51",
"J c #d29f52",
"R c #d39b46",
"t c #d4b078",
"T c #d59f4c",
"C c #d5ae74",
"U c #d69f4c",
"d c #d6b584",
"3 c #d7a354",
"S c #d7b074",
"4 c #d8a354",
"W c #d8a452",
"j c #d9a352",
"X c #d9a452",
"Z c #dca857",
"1 c #dca858",
"0 c #dda857",
"V c #ddb77e",
"w c #dfbc88",
"o c #e1bb81",
"Y c #e3be87",
"5 c #e58900",
"k c #e6d2b5",
"a c #e6d4b7",
"m c #e7d7be",
"2 c #e8c792",
"q c #e8c797",
"c c #e9cc9f",
"r c #ebdbc2",
"7 c #eccd9e",
"6 c #eed5ac",
"s c #efe4d2",
"I c #f59b14",
"l c #f5efe4",
"N c #ffffff",
"........................",
".............##.........",
".............#ab........",
".............#cdb.......",
".............#cedb#.....",
".............#cfgdb#....",
"....##########chijk#....",
"....#lllllllmnogipq#....",
"....#lrrrrrstuvoppw#....",
"....#lrrrrrsxyzyojq#....",
"....#rllllllABBBBBBBB...",
"....#CDEFGGHBIIIIIIIIB..",
"....#CJKLMMBIIINNNNIIIB.",
"....#COPOPBIIINNNNNNIIIB",
"....#CQRRQBIIINNIINNIIIB",
"....#STUUUBIIIIIIINNIIIB",
"....#VWjXXBIIIIINNNIIIIB",
"....#YZ01ZBIIIIINNIIIIIB",
"....#23343BIIIII55555IIB",
"....#67777BIIII5NN5555IB",
"....8#####BIII55NN55555B",
"...........B5555555555B.",
"............B55555555B..",
".............BBBBBBBB..."};
