/* XPM */
static char *dummy[]={
"24 24 93 2",
"Qt c None",
".a c None",
".b c None",
".# c None",
".c c #346a33",
".e c #5bb159",
".I c #6a4206",
".J c #6c470a",
"#A c #764800",
"#z c #7d510a",
".G c #825307",
".F c #85570c",
".d c #8f5902",
".D c #9a691a",
".C c #9b6b1c",
".P c #b28235",
".N c #b2833b",
".O c #b38338",
".Q c #bd8a3e",
".H c #c29147",
".w c #c2a473",
".R c #c89548",
".2 c #cf9640",
".1 c #cf9641",
".3 c #cf9740",
".4 c #cf9741",
".E c #cfa462",
".V c #d0b78b",
"#g c #d19b4a",
".7 c #d29a46",
".5 c #d29b46",
".8 c #d29b47",
".0 c #d29e50",
".Y c #d29e51",
".Z c #d29f51",
".X c #d29f52",
".6 c #d39b46",
"#p c #d4a04e",
".B c #d4b078",
"#. c #d59f4c",
".M c #d5ae74",
"## c #d69f4c",
"#s c #d7a354",
".9 c #d7b074",
"#f c #d8a352",
"#t c #d8a354",
"#b c #d8a452",
"#e c #d9a351",
"#c c #d9a352",
"#d c #d9a452",
"#h c #dab47b",
".U c #dbc6a6",
"#n c #dca757",
"#m c #dca758",
"#j c #dca857",
"#l c #dca858",
"#o c #dda757",
"#k c #dda857",
"#a c #ddb77e",
".T c #ddccaf",
".K c #dfb677",
"#q c #dfbb83",
".x c #e1bb81",
".S c #e1c9a3",
"#i c #e3be87",
"#u c #e3c08a",
"#y c #e5cba0",
".W c #e5ceab",
".f c #e6d4b7",
".v c #e7d7be",
"#r c #e8c792",
".L c #e8c797",
".z c #ebdbc2",
".g c #ebf9ea",
"#x c #eccd9d",
"#w c #eccd9e",
".p c #ecfaeb",
".y c #ecfaec",
"#v c #eed5ac",
".A c #efe4d2",
".k c #f0fbf0",
".t c #f3fcf3",
".u c #f5efe4",
".h c #f5fcf5",
".i c #f8fdf8",
".r c #f9fdf8",
".q c #f9fdf9",
".m c #fafefa",
".j c #fbfefb",
".l c #fcfefc",
".s c #fdfefd",
".o c #fefefe",
".n c #ffffff",
"QtQtQtQtQtQtQtQtQtQtQtQtQtQt.#.a.b.c.c.c.cQtQtQt",
"QtQtQtQtQtQtQtQtQtQtQtQtQt.d.dQt.c.e.e.e.e.cQtQt",
"QtQtQtQtQtQtQtQtQtQtQtQtQt.d.f.c.e.e.g.h.e.e.cQt",
"QtQtQtQtQtQtQtQtQtQtQtQtQt.d.c.e.e.e.i.j.e.e.e.c",
"QtQtQtQtQtQtQtQtQtQtQtQtQt.d.c.e.k.l.m.i.n.o.e.c",
"QtQtQtQtQtQtQtQtQtQtQtQtQt.d.c.e.p.q.m.r.n.s.e.c",
"QtQtQtQt.d.d.d.d.d.d.d.d.d.d.c.e.e.e.t.h.e.e.e.c",
"QtQtQtQt.d.u.u.u.u.u.u.u.v.w.x.c.e.e.k.y.e.e.cQt",
"QtQtQtQt.d.u.z.z.z.z.z.A.B.C.D.x.c.e.e.e.e.cQtQt",
"QtQtQtQt.d.u.z.z.z.z.z.A.E.F.G.F.x.c.c.c.cQtQtQt",
"QtQtQtQt.d.z.u.u.u.u.u.u.H.I.I.J.J.K.L.dQtQtQtQt",
"QtQtQtQt.d.M.N.O.P.Q.Q.R.S.T.U.U.U.V.W.dQtQtQtQt",
"QtQtQtQt.d.M.X.Y.Z.0.0.0.0.0.0.0.0.0.M.dQtQtQtQt",
"QtQtQtQt.d.M.1.2.1.2.2.3.3.4.3.4.2.4.M.dQtQtQtQt",
"QtQtQtQt.d.M.5.6.6.5.7.8.5.7.5.8.5.8.M.dQtQtQtQt",
"QtQtQtQt.d.9#.#########.#######.###..M.dQtQtQtQt",
"QtQtQtQt.d#a#b#c#d#d#d#d#e#b#f#e#c#g#h.dQtQtQtQt",
"QtQtQtQt.d#i#j#k#l#j#k#l#j#l#m#n#o#p#q.dQtQtQtQt",
"QtQtQtQt.d#r#s#s#t#s#t#s#s#t#s#t#s#t#u.dQtQtQtQt",
"QtQtQtQt.d#v#w#w#w#w#w#w#w#w#w#w#x#w#y.dQtQtQtQt",
"QtQtQtQt#z.d.d.d.d.d.d.d.d.d.d.d.d.d.d#AQtQtQtQt",
"QtQtQtQtQtQtQtQtQtQtQtQtQtQtQtQtQtQtQtQtQtQtQtQt",
"QtQtQtQtQtQtQtQtQtQtQtQtQtQtQtQtQtQtQtQtQtQtQtQt",
"QtQtQtQtQtQtQtQtQtQtQtQtQtQtQtQtQtQtQtQtQtQtQtQt"};
