/* XPM */
static char *dummy[]={
"24 24 73 2",
"Qt c None",
".T c #333333",
".B c #6a4206",
".C c #6c470a",
"#g c #7d510a",
".z c #825307",
".y c #85570c",
".# c #8f5902",
".b c #97610b",
".v c #9a691a",
".u c #9b6b1c",
".H c #b28235",
".F c #b2833b",
".G c #b38338",
".1 c #b3b3b3",
".h c #b47e2b",
".f c #b98330",
".I c #bd8a3e",
".e c #be8835",
".A c #c29147",
".n c #c2a473",
".i c #c48e3b",
".J c #c89548",
".g c #ca9442",
".V c #cf9640",
".U c #cf9641",
".W c #cf9740",
".x c #cfa462",
".N c #d0b78b",
".p c #d19b4a",
".Z c #d29a46",
".X c #d29b46",
".0 c #d29b47",
".S c #d29e50",
".Q c #d29e51",
".R c #d29f51",
".P c #d29f52",
".Y c #d39b46",
".t c #d4b078",
".4 c #d59f4c",
".E c #d5ae74",
".5 c #d69f4c",
".d c #d6b584",
"#c c #d7a354",
".3 c #d7b074",
"#d c #d8a354",
".7 c #d8a452",
".j c #d9a352",
".8 c #d9a452",
".M c #dbc6a6",
"#. c #dca857",
"#a c #dca858",
"## c #dda857",
".6 c #ddb77e",
".L c #ddccaf",
".D c #dfb677",
".w c #dfbc88",
".o c #e1bb81",
".K c #e1c9a3",
".9 c #e3be87",
".O c #e5ceab",
".k c #e6d2b5",
".a c #e6d4b7",
".m c #e7d7be",
"#b c #e8c792",
".q c #e8c797",
".c c #e9cc9f",
".r c #ebdbc2",
"#f c #eccd9e",
"#e c #eed5ac",
".s c #efe4d2",
".l c #f5efe4",
".2 c #ffffff",
"QtQtQtQtQtQtQtQtQtQtQtQtQtQtQtQtQtQtQtQtQtQtQtQt",
"QtQtQtQtQtQtQtQtQtQtQtQtQt.#.#QtQtQtQtQtQtQtQtQt",
"QtQtQtQtQtQtQtQtQtQtQtQtQt.#.a.bQtQtQtQtQtQtQtQt",
"QtQtQtQtQtQtQtQtQtQtQtQtQt.#.c.d.bQtQtQtQtQtQtQt",
"QtQtQtQtQtQtQtQtQtQtQtQtQt.#.c.e.d.b.#QtQtQtQtQt",
"QtQtQtQtQtQtQtQtQtQtQtQtQt.#.c.f.g.d.b.#QtQtQtQt",
"QtQtQtQt.#.#.#.#.#.#.#.#.#.#.c.h.i.j.k.#QtQtQtQt",
"QtQtQtQt.#.l.l.l.l.l.l.l.m.n.o.g.i.p.q.#QtQtQtQt",
"QtQtQtQt.#.l.r.r.r.r.r.s.t.u.v.o.p.p.w.#QtQtQtQt",
"QtQtQtQt.#.l.r.r.r.r.r.s.x.y.z.y.o.j.q.#QtQtQtQt",
"QtQtQtQt.#.r.l.l.l.l.l.l.A.B.B.C.C.D.q.#QtQtQtQt",
"QtQtQtQt.#.E.F.G.H.I.I.J.K.L.M.M.M.N.O.#QtQtQtQt",
"QtQtQtQt.#.E.P.Q.R.S.S.S.T.T.T.T.T.T.T.T.T.T.T.T",
"QtQtQtQt.#.E.U.V.U.V.V.W.T.T.T.T.T.T.T.T.T.T.T.T",
"QtQtQtQt.#.E.X.Y.Y.X.Z.0.T.T.1.1.1.1.1.1.1.1.2.T",
"QtQtQtQt.#.3.4.5.5.5.5.4.T.T.1.1.1.1.1.1.1.1.2.T",
"QtQtQtQt.#.6.7.j.8.8.8.8.T.T.1.1.1.1.1.1.1.1.2.T",
"QtQtQtQt.#.9#.###a#.###a.T.T.1.1.1.1.1.1.1.1.2.T",
"QtQtQtQt.##b#c#c#d#c#d#c.T.T.1.1.1.1.1.1.1.1.2.T",
"QtQtQtQt.##e#f#f#f#f#f#f.T.T.1.1.1.1.1.1.1.1.2.T",
"QtQtQtQt#g.#.#.#.#.#.#.#.T.T.1.1.1.1.1.1.1.1.2.T",
"QtQtQtQtQtQtQtQtQtQtQtQt.T.T.1.2.2.2.2.2.2.2.2.T",
"QtQtQtQtQtQtQtQtQtQtQtQt.T.1.2.2.2.2.2.2.2.2.2.T",
"QtQtQtQtQtQtQtQtQtQtQtQt.T.T.T.T.T.T.T.T.T.T.T.T"};
