/* XPM */
static char *dummy[]={
"24 24 87 2",
"Qt c None",
".d c #1ec11a",
".i c #25a622",
".g c #25b323",
".a c #3b743a",
".J c #6a4206",
".K c #6c470a",
"#u c #764800",
"#i c #7d510a",
".G c #825307",
".F c #85570c",
".# c #8f5902",
".c c #97610b",
".u c #9a691a",
".t c #9b6b1c",
".O c #b28235",
".B c #b2833b",
".N c #b38338",
".k c #b47e2b",
".j c #b98330",
".P c #bd8a3e",
".h c #be8835",
".I c #c29147",
".n c #c2a473",
".v c #c48e3b",
".Q c #c89548",
".p c #ca9442",
".3 c #cf9640",
".H c #cf9641",
".4 c #cf9740",
".5 c #cf9741",
".E c #cfa462",
".U c #d0b78b",
".y c #d19b4a",
".9 c #d29a46",
".M c #d29b46",
"#. c #d29b47",
".0 c #d29e50",
".Y c #d29e51",
".Z c #d29f51",
".D c #d29f52",
".8 c #d39b46",
"#o c #d4a04e",
".s c #d4b078",
".X c #d59f4c",
".A c #d5ae74",
"#b c #d69f4c",
".f c #d6b584",
"#a c #d7a354",
".W c #d7b074",
"#g c #d8a352",
"#q c #d8a354",
".2 c #d8a452",
"#f c #d9a351",
".w c #d9a352",
"#e c #d9a452",
"#h c #dab47b",
".T c #dbc6a6",
"#m c #dca757",
"#l c #dca758",
".7 c #dca857",
"#k c #dca858",
"#n c #dda757",
"#j c #dda857",
".1 c #ddb77e",
".S c #ddccaf",
".L c #dfb677",
"#p c #dfbb83",
".C c #dfbc88",
".o c #e1bb81",
".R c #e1c9a3",
".6 c #e3be87",
"#r c #e3c08a",
"#t c #e5cba0",
".V c #e5ceab",
".x c #e6d2b5",
".b c #e6d4b7",
".m c #e7d7be",
"## c #e8c792",
".z c #e8c797",
".e c #e9cc9f",
".q c #ebdbc2",
"#s c #eccd9d",
"#d c #eccd9e",
"#c c #eed5ac",
".r c #efe4d2",
".l c #f5efe4",
"QtQtQtQtQtQtQtQtQtQtQtQtQtQtQtQtQtQtQtQtQtQtQtQt",
"QtQtQtQtQtQtQtQtQtQtQtQt.#.#QtQtQt.a.a.a.a.a.a.a",
"QtQtQtQtQtQtQtQtQtQtQtQt.#.b.cQtQtQtQt.a.d.aQtQt",
"QtQtQtQtQtQtQtQtQtQtQtQt.#.e.f.cQtQt.a.d.g.g.aQt",
"QtQtQtQtQtQtQtQtQtQtQtQt.#.e.h.#.#.a.d.g.g.i.i.a",
"QtQtQtQtQtQtQtQtQtQtQtQt.#.e.j.#.b.c.a.g.g.i.aQt",
"QtQtQt.#.#.#.#.#.#.#.#.#.#.e.k.#.e.f.a.i.i.i.aQt",
"QtQtQt.#.l.l.l.l.l.l.l.m.n.o.p.#.e.h.a.i.i.i.aQt",
"QtQtQt.#.l.q.q.q.q.q.r.s.t.u.o.#.e.j.a.a.a.a.aQt",
"QtQtQt.#.l.q.#.#.#.#.#.#.#.#.#.#.e.k.v.w.x.#QtQt",
"QtQtQt.#.q.l.#.l.l.l.l.l.l.l.m.n.o.p.v.y.z.#QtQt",
"QtQtQt.#.A.B.#.l.q.q.q.q.q.r.s.t.u.o.y.y.C.#QtQt",
"QtQtQt.#.A.D.#.l.q.q.q.q.q.r.E.F.G.F.o.w.z.#QtQt",
"QtQtQt.#.A.H.#.q.l.l.l.l.l.l.I.J.J.K.K.L.z.#QtQt",
"QtQtQt.#.A.M.#.A.B.N.O.P.P.Q.R.S.T.T.T.U.V.#QtQt",
"QtQtQt.#.W.X.#.A.D.Y.Z.0.0.0.0.0.0.0.0.0.A.#QtQt",
"QtQtQt.#.1.2.#.A.H.3.H.3.3.4.4.5.4.5.3.5.A.#QtQt",
"QtQtQt.#.6.7.#.A.M.8.8.M.9#..M.9.M#..M#..A.#QtQt",
"QtQtQt.####a.#.W.X#b#b#b#b.X#b#b#b.X#b.X.A.#QtQt",
"QtQtQt.##c#d.#.1.2.w#e#e#e#e#f.2#g#f.w.y#h.#QtQt",
"QtQtQt#i.#.#.#.6.7#j#k.7#j#k.7#k#l#m#n#o#p.#QtQt",
"QtQtQtQtQtQt.####a#a#q#a#q#a#a#q#a#q#a#q#r.#QtQt",
"QtQtQtQtQtQt.##c#d#d#d#d#d#d#d#d#d#d#s#d#t.#QtQt",
"QtQtQtQtQtQt#i.#.#.#.#.#.#.#.#.#.#.#.#.#.##uQtQt"};
