/* XPM */
static char *dummy[]={
"24 24 173 2",
"Qt c None",
"aD c #14293d",
"#B c #183046",
"aQ c #1b3c5c",
"aP c #1e4061",
"#P c #21384d",
"aH c #214364",
"aN c #22415f",
"aO c #224465",
"ai c #294763",
"aG c #294b6c",
"aC c #2a3e51",
"at c #2a4d6d",
"aL c #2c3c49",
"ar c #2e4e6c",
".Z c #2f506f",
"aK c #365168",
"aj c #365a7b",
"ax c #375876",
"aw c #395c7b",
"av c #40607e",
"aM c #4e687e",
"aE c #506d87",
".Y c #53728d",
"aF c #567187",
".X c #575f65",
"aI c #577690",
".V c #5a6267",
".W c #5d6368",
"au c #607d96",
"#A c #627583",
"#8 c #637a8c",
"#q c #666357",
"#F c #687885",
".B c #6a4206",
".C c #6c470a",
"al c #6d8aa2",
"aB c #6e8ca4",
"#U c #708492",
"aJ c #7390a6",
"am c #7693ab",
"an c #7794ab",
"as c #7d510a",
"#4 c #7d98ad",
"#9 c #7d9ab2",
".4 c #7f7a6a",
"aa c #7f9bb3",
".z c #825307",
"#e c #827d6f",
"#. c #828e99",
".y c #85570c",
"aq c #87a3b8",
"#m c #8997a1",
"ay c #89a4b8",
"a. c #8aa5ba",
"#V c #8ca9be",
"ak c #8ea9bd",
".# c #8f5902",
"#O c #8fa7b9",
"a# c #91acc0",
"#W c #92adc1",
"aA c #95acbd",
"ap c #95aec0",
".U c #967d54",
"ab c #96b1c5",
".b c #97610b",
"af c #99b3c6",
".v c #9a691a",
".u c #9b6b1c",
"ac c #9fb7c8",
"ao c #9fb8ca",
"#3 c #a0b9cb",
"ad c #a1b9cb",
"#X c #a2bcce",
"ae c #a4bdcf",
"#2 c #a6bfd0",
"#1 c #a8c0d1",
"#0 c #a9c0cf",
"az c #a9c1d2",
"#M c #abc0d0",
"#N c #abc1d2",
"#H c #afc7d7",
"#Z c #b1c9d7",
".H c #b28235",
".F c #b2833b",
"#L c #b2cbdb",
".G c #b38338",
"#Y c #b3ccdd",
".h c #b47e2b",
".5 c #b6c2cb",
"#K c #b7d0df",
".f c #b98330",
"#r c #bbc8d1",
"#I c #bbd5e5",
"#v c #bcd5e5",
".I c #bd8a3e",
".9 c #bdcbd6",
"#u c #bdd5e5",
"#J c #bdd6e6",
".e c #be8835",
"#G c #bed0dd",
"#w c #bed5e3",
"#z c #bfd1de",
".3 c #c08d3e",
"#d c #c18e40",
".A c #c29147",
".n c #c2a473",
"#i c #c2d7e6",
".i c #c48e3b",
".T c #c4934b",
"#x c #c4d5e1",
"#j c #c5d7e4",
"#t c #c6dae8",
".J c #c89548",
"#y c #c8d8e4",
".g c #ca9442",
"#f c #cad4db",
"#h c #cbdde9",
".8 c #cedce7",
".1 c #cf9640",
".0 c #cf9641",
".2 c #cf9740",
".x c #cfa462",
".N c #d0b78b",
".p c #d19b4a",
"#b c #d29a46",
"## c #d29b46",
"#c c #d29b47",
".S c #d29e50",
".Q c #d29e51",
".R c #d29f51",
".P c #d29f52",
"#a c #d39b46",
".t c #d4b078",
"#o c #d59f4c",
".E c #d5ae74",
"#p c #d69f4c",
".d c #d6b584",
"#l c #d6e3ed",
"#6 c #d7a354",
"#n c #d7b074",
"#k c #d7e4ed",
"#7 c #d8a354",
"#D c #d8a452",
".j c #d9a352",
"#E c #d9a452",
".M c #dbc6a6",
"#R c #dca857",
"#T c #dca858",
"#s c #dce9f1",
"#S c #dda857",
"#C c #ddb77e",
".L c #ddccaf",
"#g c #ddeaf2",
".6 c #dee8ef",
".D c #dfb677",
".w c #dfbc88",
".o c #e1bb81",
".K c #e1c9a3",
".7 c #e1edf5",
"#Q c #e3be87",
".O c #e5ceab",
".k c #e6d2b5",
".a c #e6d4b7",
".m c #e7d7be",
"#5 c #e8c792",
".q c #e8c797",
".c c #e9cc9f",
".r c #ebdbc2",
"ah c #eccd9e",
"ag c #eed5ac",
".s c #efe4d2",
".l c #f5efe4",
"QtQtQtQtQtQtQtQtQtQtQtQtQtQtQtQtQtQtQtQtQtQtQtQt",
"QtQtQtQtQtQtQtQtQtQtQtQtQt.#.#QtQtQtQtQtQtQtQtQt",
"QtQtQtQtQtQtQtQtQtQtQtQtQt.#.a.bQtQtQtQtQtQtQtQt",
"QtQtQtQtQtQtQtQtQtQtQtQtQt.#.c.d.bQtQtQtQtQtQtQt",
"QtQtQtQtQtQtQtQtQtQtQtQtQt.#.c.e.d.b.#QtQtQtQtQt",
"QtQtQtQtQtQtQtQtQtQtQtQtQt.#.c.f.g.d.b.#QtQtQtQt",
"QtQtQtQt.#.#.#.#.#.#.#.#.#.#.c.h.i.j.k.#QtQtQtQt",
"QtQtQtQt.#.l.l.l.l.l.l.l.m.n.o.g.i.p.q.#QtQtQtQt",
"QtQtQtQt.#.l.r.r.r.r.r.s.t.u.v.o.p.p.w.#QtQtQtQt",
"QtQtQtQt.#.l.r.r.r.r.r.s.x.y.z.y.o.j.q.#QtQtQtQt",
"QtQtQtQt.#.r.l.l.l.l.l.l.A.B.B.C.C.D.q.#QtQtQtQt",
"QtQtQtQt.#.E.F.G.H.I.I.J.K.L.M.M.M.N.O.#QtQtQtQt",
"QtQtQtQt.#.E.P.Q.R.S.S.S.S.S.T.U.V.W.X.Y.Y.ZQtQt",
"QtQtQtQt.#.E.0.1.0.1.1.2.2.3.4.5.6.7.8.9#..Y.ZQt",
"QtQtQtQt.#.E###a#a###b#c#d#e#f#g#h#i#j#k#l#m.Y.Z",
"QtQtQtQt.##n#o#p#p#p#p#o#q#r#s#t#u#v#w#x#y#z#A#B",
"QtQtQtQt.##C#D.j#E#E#E#E#F#G#H#I#J#K#v#L#M#N#O#P",
"QtQtQtQt.##Q#R#S#T#R#S#T#U#V#W#X#Y#Z#0#1#2#3#4#P",
"QtQtQtQt.##5#6#6#7#6#7#6#8#9a.a#aaabacadaeaf.Y#P",
"QtQtQtQt.#agahahahahahahaiajakalamanao#3apaqar#P",
"QtQtQtQtas.#.#.#.#.#.#.#aiatauavawaxayazaAaBar#P",
"QtQtQtQtQtQtQtQtQtQtQtQtaCaDaEaFaGaH.ZaIaJaKai#P",
"QtQtQtQtQtQtQtQtQtQtQtQtQtaCaLaMaNaOaPaQ#P#P#BQt",
"QtQtQtQtQtQtQtQtQtQtQtQtQtQtaCaC#P#P#P#P#B#BQtQt"};
